<svg xmlns="http://www.w3.org/2000/svg" xmlns:xlink="http://www.w3.org/1999/xlink" width="500" zoomAndPan="magnify" viewBox="0 0 375 374.999991" height="500" preserveAspectRatio="xMidYMid meet" version="1.0"><defs><clipPath id="id1"><path d="M 4.546875 4.546875 L 370.546875 4.546875 L 370.546875 370.546875 L 4.546875 370.546875 Z M 4.546875 4.546875 " clip-rule="nonzero"/></clipPath><clipPath id="id2"><path d="M 205 270 L 233 270 L 233 299.542969 L 205 299.542969 Z M 205 270 " clip-rule="nonzero"/></clipPath><clipPath id="id3"><path d="M 87.359375 121.042969 L 287.609375 121.042969 L 287.609375 255 L 87.359375 255 Z M 87.359375 121.042969 " clip-rule="nonzero"/></clipPath><clipPath id="id4"><path d="M 250 270 L 278 270 L 278 299.542969 L 250 299.542969 Z M 250 270 " clip-rule="nonzero"/></clipPath></defs><g clip-path="url(#id1)"><path fill="#05649c" d="M 370.546875 187.546875 C 370.546875 190.539062 370.472656 193.535156 370.324219 196.523438 C 370.179688 199.515625 369.957031 202.503906 369.664062 205.484375 C 369.371094 208.464844 369.003906 211.433594 368.566406 214.398438 C 368.125 217.359375 367.613281 220.308594 367.03125 223.246094 C 366.445312 226.183594 365.789062 229.105469 365.0625 232.011719 C 364.332031 234.917969 363.535156 237.800781 362.664062 240.667969 C 361.796875 243.535156 360.855469 246.375 359.847656 249.195312 C 358.839844 252.015625 357.761719 254.808594 356.617188 257.578125 C 355.46875 260.34375 354.257812 263.082031 352.976562 265.789062 C 351.695312 268.496094 350.347656 271.171875 348.9375 273.8125 C 347.527344 276.453125 346.050781 279.058594 344.511719 281.625 C 342.96875 284.195312 341.367188 286.726562 339.703125 289.214844 C 338.039062 291.707031 336.316406 294.152344 334.53125 296.558594 C 332.75 298.964844 330.90625 301.324219 329.007812 303.640625 C 327.105469 305.953125 325.152344 308.222656 323.140625 310.441406 C 321.128906 312.660156 319.0625 314.828125 316.945312 316.945312 C 314.828125 319.0625 312.660156 321.128906 310.441406 323.140625 C 308.222656 325.152344 305.953125 327.105469 303.640625 329.007812 C 301.324219 330.90625 298.964844 332.75 296.558594 334.53125 C 294.152344 336.316406 291.707031 338.039062 289.214844 339.703125 C 286.726562 341.367188 284.195312 342.96875 281.625 344.511719 C 279.058594 346.050781 276.453125 347.527344 273.8125 348.9375 C 271.171875 350.347656 268.496094 351.695312 265.789062 352.976562 C 263.082031 354.257812 260.34375 355.46875 257.578125 356.617188 C 254.808594 357.761719 252.015625 358.839844 249.195312 359.847656 C 246.375 360.855469 243.535156 361.796875 240.667969 362.664062 C 237.800781 363.535156 234.917969 364.332031 232.011719 365.0625 C 229.105469 365.789062 226.183594 366.445312 223.246094 367.03125 C 220.308594 367.613281 217.359375 368.125 214.398438 368.566406 C 211.433594 369.003906 208.464844 369.371094 205.484375 369.664062 C 202.503906 369.957031 199.515625 370.179688 196.523438 370.324219 C 193.535156 370.472656 190.539062 370.546875 187.546875 370.546875 C 184.550781 370.546875 181.558594 370.472656 178.566406 370.324219 C 175.574219 370.179688 172.589844 369.957031 169.609375 369.664062 C 166.628906 369.371094 163.65625 369.003906 160.695312 368.566406 C 157.730469 368.125 154.78125 367.613281 151.84375 367.03125 C 148.90625 366.445312 145.984375 365.789062 143.082031 365.0625 C 140.175781 364.332031 137.289062 363.535156 134.421875 362.664062 C 131.558594 361.796875 128.714844 360.855469 125.894531 359.847656 C 123.074219 358.839844 120.28125 357.761719 117.515625 356.617188 C 114.746094 355.46875 112.011719 354.257812 109.304688 352.976562 C 106.597656 351.695312 103.921875 350.347656 101.28125 348.9375 C 98.640625 347.527344 96.035156 346.050781 93.464844 344.511719 C 90.894531 342.96875 88.367188 341.367188 85.875 339.703125 C 83.386719 338.039062 80.9375 336.316406 78.53125 334.53125 C 76.128906 332.75 73.765625 330.90625 71.453125 329.007812 C 69.136719 327.105469 66.871094 325.152344 64.652344 323.140625 C 62.429688 321.128906 60.261719 319.0625 58.144531 316.945312 C 56.027344 314.828125 53.964844 312.660156 51.953125 310.441406 C 49.941406 308.222656 47.984375 305.953125 46.085938 303.640625 C 44.183594 301.324219 42.34375 298.964844 40.558594 296.558594 C 38.773438 294.152344 37.050781 291.707031 35.386719 289.214844 C 33.722656 286.726562 32.121094 284.195312 30.582031 281.625 C 29.042969 279.058594 27.566406 276.453125 26.152344 273.8125 C 24.742188 271.171875 23.394531 268.496094 22.117188 265.789062 C 20.835938 263.082031 19.621094 260.34375 18.476562 257.578125 C 17.328125 254.808594 16.253906 252.015625 15.242188 249.195312 C 14.234375 246.375 13.296875 243.535156 12.425781 240.667969 C 11.554688 237.800781 10.757812 234.917969 10.03125 232.011719 C 9.300781 229.105469 8.644531 226.183594 8.0625 223.246094 C 7.476562 220.308594 6.964844 217.359375 6.527344 214.398438 C 6.085938 211.433594 5.71875 208.464844 5.425781 205.484375 C 5.132812 202.503906 4.914062 199.515625 4.765625 196.523438 C 4.621094 193.535156 4.546875 190.539062 4.546875 187.546875 C 4.546875 184.550781 4.621094 181.558594 4.765625 178.566406 C 4.914062 175.574219 5.132812 172.589844 5.425781 169.609375 C 5.71875 166.628906 6.085938 163.65625 6.527344 160.695312 C 6.964844 157.730469 7.476562 154.78125 8.0625 151.84375 C 8.644531 148.90625 9.300781 145.984375 10.03125 143.082031 C 10.757812 140.175781 11.554688 137.289062 12.425781 134.421875 C 13.296875 131.558594 14.234375 128.714844 15.242188 125.894531 C 16.253906 123.074219 17.328125 120.28125 18.476562 117.515625 C 19.621094 114.746094 20.835938 112.011719 22.117188 109.304688 C 23.394531 106.597656 24.742188 103.921875 26.152344 101.28125 C 27.566406 98.640625 29.042969 96.035156 30.582031 93.464844 C 32.121094 90.894531 33.722656 88.367188 35.386719 85.875 C 37.050781 83.386719 38.773438 80.9375 40.558594 78.53125 C 42.34375 76.128906 44.183594 73.765625 46.085938 71.453125 C 47.984375 69.136719 49.941406 66.871094 51.953125 64.652344 C 53.964844 62.429688 56.027344 60.261719 58.144531 58.144531 C 60.261719 56.027344 62.429688 53.964844 64.652344 51.953125 C 66.871094 49.941406 69.136719 47.984375 71.453125 46.085938 C 73.765625 44.183594 76.128906 42.34375 78.53125 40.558594 C 80.9375 38.773438 83.386719 37.050781 85.875 35.386719 C 88.367188 33.722656 90.894531 32.121094 93.464844 30.582031 C 96.035156 29.042969 98.640625 27.566406 101.28125 26.152344 C 103.921875 24.742188 106.597656 23.394531 109.304688 22.117188 C 112.011719 20.835938 114.746094 19.621094 117.515625 18.476562 C 120.28125 17.328125 123.074219 16.253906 125.894531 15.242188 C 128.714844 14.234375 131.558594 13.296875 134.421875 12.425781 C 137.289062 11.554688 140.175781 10.757812 143.082031 10.03125 C 145.984375 9.300781 148.90625 8.644531 151.84375 8.0625 C 154.78125 7.476562 157.730469 6.964844 160.695312 6.527344 C 163.65625 6.085938 166.628906 5.71875 169.609375 5.425781 C 172.589844 5.132812 175.574219 4.914062 178.566406 4.765625 C 181.558594 4.621094 184.550781 4.546875 187.546875 4.546875 C 190.539062 4.546875 193.535156 4.621094 196.523438 4.765625 C 199.515625 4.914062 202.503906 5.132812 205.484375 5.425781 C 208.464844 5.71875 211.433594 6.085938 214.398438 6.527344 C 217.359375 6.964844 220.308594 7.476562 223.246094 8.0625 C 226.183594 8.644531 229.105469 9.300781 232.011719 10.03125 C 234.917969 10.757812 237.800781 11.554688 240.667969 12.425781 C 243.535156 13.296875 246.375 14.234375 249.195312 15.242188 C 252.015625 16.253906 254.808594 17.328125 257.578125 18.476562 C 260.34375 19.621094 263.082031 20.835938 265.789062 22.117188 C 268.496094 23.394531 271.171875 24.742188 273.8125 26.152344 C 276.453125 27.566406 279.058594 29.042969 281.625 30.582031 C 284.195312 32.121094 286.726562 33.722656 289.214844 35.386719 C 291.707031 37.050781 294.152344 38.773438 296.558594 40.558594 C 298.964844 42.34375 301.324219 44.183594 303.640625 46.085938 C 305.953125 47.984375 308.222656 49.941406 310.441406 51.953125 C 312.660156 53.964844 314.828125 56.027344 316.945312 58.144531 C 319.0625 60.261719 321.128906 62.429688 323.140625 64.652344 C 325.152344 66.871094 327.105469 69.136719 329.007812 71.453125 C 330.90625 73.765625 332.75 76.128906 334.53125 78.53125 C 336.316406 80.9375 338.039062 83.386719 339.703125 85.875 C 341.367188 88.367188 342.96875 90.894531 344.511719 93.464844 C 346.050781 96.035156 347.527344 98.640625 348.9375 101.28125 C 350.347656 103.921875 351.695312 106.597656 352.976562 109.304688 C 354.257812 112.011719 355.46875 114.746094 356.617188 117.515625 C 357.761719 120.28125 358.839844 123.074219 359.847656 125.894531 C 360.855469 128.714844 361.796875 131.558594 362.664062 134.421875 C 363.535156 137.289062 364.332031 140.175781 365.0625 143.082031 C 365.789062 145.984375 366.445312 148.90625 367.03125 151.84375 C 367.613281 154.78125 368.125 157.730469 368.566406 160.695312 C 369.003906 163.65625 369.371094 166.628906 369.664062 169.609375 C 369.957031 172.589844 370.179688 175.574219 370.324219 178.566406 C 370.472656 181.558594 370.546875 184.550781 370.546875 187.546875 Z M 370.546875 187.546875 " fill-opacity="1" fill-rule="nonzero"/></g><path fill="#ffffff" d="M 187.546875 353.089844 C 96.183594 353.089844 22 278.910156 22 187.546875 C 22 96.183594 96.183594 22 187.546875 22 C 278.910156 22 353.089844 96.183594 353.089844 187.546875 C 353.089844 278.910156 278.910156 353.089844 187.546875 353.089844 Z M 187.546875 26.089844 C 98.363281 26.089844 26.089844 98.363281 26.089844 187.546875 C 26.089844 276.726562 98.636719 349 187.546875 349 C 276.726562 349 349 276.453125 349 187.546875 C 349 98.363281 276.726562 26.089844 187.546875 26.089844 Z M 187.546875 26.089844 " fill-opacity="1" fill-rule="nonzero"/><path fill="#ffffff" d="M 270.949219 248.886719 C 270.949219 232.738281 257.789062 219.597656 241.617188 219.597656 C 225.445312 219.597656 212.289062 232.738281 212.289062 248.886719 C 212.289062 265.03125 225.445312 278.171875 241.617188 278.171875 C 257.789062 278.171875 270.949219 265.03125 270.949219 248.886719 Z M 241.617188 274.003906 C 227.746094 274.003906 216.460938 262.738281 216.460938 248.886719 C 216.460938 235.035156 227.746094 223.765625 241.617188 223.765625 C 255.488281 223.765625 266.773438 235.035156 266.773438 248.886719 C 266.773438 262.734375 255.488281 274.003906 241.617188 274.003906 Z M 241.617188 274.003906 " fill-opacity="1" fill-rule="nonzero"/><path fill="#ffffff" d="M 241.617188 227.046875 C 229.554688 227.046875 219.742188 236.84375 219.742188 248.886719 C 219.742188 260.925781 229.558594 270.726562 241.617188 270.726562 C 253.675781 270.726562 263.488281 260.925781 263.488281 248.886719 C 263.488281 236.84375 253.675781 227.046875 241.617188 227.046875 Z M 253.066406 260.738281 L 241.617188 254.78125 L 230.171875 260.738281 L 234.253906 250.691406 L 226.886719 242.671875 L 237.335938 242.671875 L 241.621094 234.289062 L 245.902344 242.671875 L 256.351562 242.671875 L 248.988281 250.691406 Z M 253.066406 260.738281 " fill-opacity="1" fill-rule="nonzero"/><g clip-path="url(#id2)"><path fill="#ffffff" d="M 217.445312 270.667969 C 212.46875 277.832031 208.386719 285.832031 205.300781 294.53125 C 208.820312 292.773438 214.019531 290.71875 217.683594 291.628906 C 221.035156 292.453125 223.910156 296.140625 225.84375 299.34375 C 226.90625 292.566406 229.171875 286.140625 232.578125 280.148438 C 226.671875 278.441406 221.464844 275.109375 217.445312 270.667969 Z M 217.445312 270.667969 " fill-opacity="1" fill-rule="nonzero"/></g><path fill="#ffffff" d="M 241.617188 216.320312 C 257.484375 216.320312 270.722656 227.699219 273.625 242.710938 L 276.085938 242.710938 L 276.085938 132.773438 L 98.882812 132.773438 L 98.882812 242.710938 L 209.609375 242.710938 C 212.511719 227.699219 225.75 216.320312 241.617188 216.320312 Z M 136.085938 141.726562 L 238.066406 141.726562 L 238.066406 156.558594 L 136.085938 156.558594 Z M 120.613281 175.625 L 258.027344 175.625 C 258.9375 175.625 259.671875 176.359375 259.671875 177.261719 C 259.671875 178.167969 258.9375 178.902344 258.027344 178.902344 L 120.613281 178.902344 C 119.703125 178.902344 118.96875 178.167969 118.96875 177.261719 C 118.96875 176.359375 119.703125 175.625 120.613281 175.625 Z M 170.070312 193.640625 C 170.070312 194.546875 169.335938 195.28125 168.429688 195.28125 L 132.683594 195.28125 C 131.773438 195.28125 131.039062 194.546875 131.039062 193.640625 C 131.039062 192.738281 131.773438 192.003906 132.683594 192.003906 L 168.429688 192.003906 C 169.335938 192.003906 170.070312 192.738281 170.070312 193.640625 Z M 181.371094 223.351562 C 181.046875 224.195312 180.101562 224.613281 179.25 224.289062 C 175.75 222.941406 170.738281 223.207031 165.136719 225.039062 C 164 225.410156 162.765625 225.125 161.917969 224.289062 C 161.089844 223.472656 160.789062 222.269531 161.136719 221.15625 C 161.542969 219.863281 161.75 218.355469 161.109375 218.007812 C 160.335938 217.828125 156.230469 219.050781 146.382812 224.886719 C 145.25 225.558594 143.855469 225.394531 142.90625 224.488281 C 141.960938 223.582031 141.738281 222.199219 142.355469 221.046875 C 145.058594 215.992188 144.429688 214.765625 144.421875 214.753906 C 140.445312 213.496094 128.5625 224.003906 121.386719 231.867188 C 121.0625 232.222656 120.617188 232.402344 120.171875 232.402344 C 119.777344 232.402344 119.382812 232.261719 119.066406 231.976562 C 118.398438 231.367188 118.347656 230.332031 118.960938 229.660156 C 122.082031 226.238281 138.035156 209.285156 145.386719 211.628906 C 146.371094 211.941406 147.09375 212.605469 147.472656 213.542969 C 147.921875 214.648438 148.210938 216.640625 145.875 221.382812 C 159.558594 213.398438 161.671875 214.570312 162.703125 215.136719 C 163.882812 215.789062 165.640625 217.53125 164.335938 221.921875 C 170.496094 219.855469 176.25 219.621094 180.433594 221.230469 C 181.277344 221.558594 181.699219 222.507812 181.371094 223.351562 Z M 193.410156 195.28125 C 192.5 195.28125 191.765625 194.546875 191.765625 193.640625 C 191.765625 192.738281 192.5 192.003906 193.410156 192.003906 L 249.980469 192.003906 C 250.890625 192.003906 251.621094 192.738281 251.621094 193.640625 C 251.621094 194.546875 250.890625 195.28125 249.980469 195.28125 Z M 193.410156 195.28125 " fill-opacity="1" fill-rule="nonzero"/><g clip-path="url(#id3)"><path fill="#ffffff" d="M 279.617188 121.300781 L 95.351562 121.300781 C 90.945312 121.300781 87.359375 124.882812 87.359375 129.285156 L 87.359375 246.203125 C 87.359375 250.601562 90.945312 254.183594 95.351562 254.183594 L 209.476562 254.183594 C 209.1875 252.453125 209.003906 250.691406 209.003906 248.886719 C 209.003906 247.90625 209.066406 246.941406 209.152344 245.988281 L 97.238281 245.988281 C 96.332031 245.988281 95.597656 245.253906 95.597656 244.347656 L 95.597656 131.136719 C 95.597656 130.230469 96.332031 129.496094 97.238281 129.496094 L 277.726562 129.496094 C 278.636719 129.496094 279.367188 130.230469 279.367188 131.136719 L 279.367188 244.347656 C 279.367188 245.253906 278.636719 245.988281 277.726562 245.988281 L 274.082031 245.988281 C 274.167969 246.945312 274.230469 247.90625 274.230469 248.886719 C 274.230469 250.691406 274.046875 252.453125 273.761719 254.183594 L 279.617188 254.183594 C 284.023438 254.183594 287.609375 250.601562 287.609375 246.203125 L 287.609375 129.285156 C 287.609375 124.882812 284.023438 121.300781 279.617188 121.300781 Z M 279.617188 121.300781 " fill-opacity="1" fill-rule="nonzero"/></g><g clip-path="url(#id4)"><path fill="#ffffff" d="M 250.65625 280.148438 C 254.066406 286.136719 256.328125 292.566406 257.390625 299.34375 C 259.324219 296.140625 262.199219 292.453125 265.550781 291.628906 C 269.222656 290.722656 274.417969 292.773438 277.9375 294.53125 C 274.84375 285.828125 270.765625 277.832031 265.789062 270.667969 C 261.769531 275.109375 256.566406 278.441406 250.65625 280.148438 Z M 250.65625 280.148438 " fill-opacity="1" fill-rule="nonzero"/></g></svg>