<svg xmlns="http://www.w3.org/2000/svg" xmlns:xlink="http://www.w3.org/1999/xlink" width="500" zoomAndPan="magnify" viewBox="0 0 375 374.999991" height="500" preserveAspectRatio="xMidYMid meet" version="1.0"><defs><clipPath id="id1"><path d="M 4.546875 4.546875 L 370.546875 4.546875 L 370.546875 370.546875 L 4.546875 370.546875 Z M 4.546875 4.546875 " clip-rule="nonzero"/></clipPath><clipPath id="id2"><path d="M 99.855469 99.632812 L 275.355469 99.632812 L 275.355469 275.132812 L 99.855469 275.132812 Z M 99.855469 99.632812 " clip-rule="nonzero"/></clipPath></defs><g clip-path="url(#id1)"><path fill="#05649c" d="M 370.546875 187.546875 C 370.546875 190.539062 370.472656 193.535156 370.324219 196.523438 C 370.179688 199.515625 369.957031 202.503906 369.664062 205.484375 C 369.371094 208.464844 369.003906 211.433594 368.566406 214.398438 C 368.125 217.359375 367.613281 220.308594 367.03125 223.246094 C 366.445312 226.183594 365.789062 229.105469 365.0625 232.011719 C 364.332031 234.917969 363.535156 237.800781 362.664062 240.667969 C 361.796875 243.535156 360.855469 246.375 359.847656 249.195312 C 358.839844 252.015625 357.761719 254.808594 356.617188 257.578125 C 355.46875 260.34375 354.257812 263.082031 352.976562 265.789062 C 351.695312 268.496094 350.347656 271.171875 348.9375 273.8125 C 347.527344 276.453125 346.050781 279.058594 344.511719 281.625 C 342.96875 284.195312 341.367188 286.726562 339.703125 289.214844 C 338.039062 291.707031 336.316406 294.152344 334.53125 296.558594 C 332.75 298.964844 330.90625 301.324219 329.007812 303.640625 C 327.105469 305.953125 325.152344 308.222656 323.140625 310.441406 C 321.128906 312.660156 319.0625 314.828125 316.945312 316.945312 C 314.828125 319.0625 312.660156 321.128906 310.441406 323.140625 C 308.222656 325.152344 305.953125 327.105469 303.640625 329.007812 C 301.324219 330.90625 298.964844 332.75 296.558594 334.53125 C 294.152344 336.316406 291.707031 338.039062 289.214844 339.703125 C 286.726562 341.367188 284.195312 342.96875 281.625 344.511719 C 279.058594 346.050781 276.453125 347.527344 273.8125 348.9375 C 271.171875 350.347656 268.496094 351.695312 265.789062 352.976562 C 263.082031 354.257812 260.34375 355.46875 257.578125 356.617188 C 254.808594 357.761719 252.015625 358.839844 249.195312 359.847656 C 246.375 360.855469 243.535156 361.796875 240.667969 362.664062 C 237.800781 363.535156 234.917969 364.332031 232.011719 365.0625 C 229.105469 365.789062 226.183594 366.445312 223.246094 367.03125 C 220.308594 367.613281 217.359375 368.125 214.398438 368.566406 C 211.433594 369.003906 208.464844 369.371094 205.484375 369.664062 C 202.503906 369.957031 199.515625 370.179688 196.523438 370.324219 C 193.535156 370.472656 190.539062 370.546875 187.546875 370.546875 C 184.550781 370.546875 181.558594 370.472656 178.566406 370.324219 C 175.574219 370.179688 172.589844 369.957031 169.609375 369.664062 C 166.628906 369.371094 163.65625 369.003906 160.695312 368.566406 C 157.730469 368.125 154.78125 367.613281 151.84375 367.03125 C 148.90625 366.445312 145.984375 365.789062 143.082031 365.0625 C 140.175781 364.332031 137.289062 363.535156 134.421875 362.664062 C 131.558594 361.796875 128.714844 360.855469 125.894531 359.847656 C 123.074219 358.839844 120.28125 357.761719 117.515625 356.617188 C 114.746094 355.46875 112.011719 354.257812 109.304688 352.976562 C 106.597656 351.695312 103.921875 350.347656 101.28125 348.9375 C 98.640625 347.527344 96.035156 346.050781 93.464844 344.511719 C 90.894531 342.96875 88.367188 341.367188 85.875 339.703125 C 83.386719 338.039062 80.9375 336.316406 78.53125 334.53125 C 76.128906 332.75 73.765625 330.90625 71.453125 329.007812 C 69.136719 327.105469 66.871094 325.152344 64.652344 323.140625 C 62.429688 321.128906 60.261719 319.0625 58.144531 316.945312 C 56.027344 314.828125 53.964844 312.660156 51.953125 310.441406 C 49.941406 308.222656 47.984375 305.953125 46.085938 303.640625 C 44.183594 301.324219 42.34375 298.964844 40.558594 296.558594 C 38.773438 294.152344 37.050781 291.707031 35.386719 289.214844 C 33.722656 286.726562 32.121094 284.195312 30.582031 281.625 C 29.042969 279.058594 27.566406 276.453125 26.152344 273.8125 C 24.742188 271.171875 23.394531 268.496094 22.117188 265.789062 C 20.835938 263.082031 19.621094 260.34375 18.476562 257.578125 C 17.328125 254.808594 16.253906 252.015625 15.242188 249.195312 C 14.234375 246.375 13.296875 243.535156 12.425781 240.667969 C 11.554688 237.800781 10.757812 234.917969 10.03125 232.011719 C 9.300781 229.105469 8.644531 226.183594 8.0625 223.246094 C 7.476562 220.308594 6.964844 217.359375 6.527344 214.398438 C 6.085938 211.433594 5.71875 208.464844 5.425781 205.484375 C 5.132812 202.503906 4.914062 199.515625 4.765625 196.523438 C 4.621094 193.535156 4.546875 190.539062 4.546875 187.546875 C 4.546875 184.550781 4.621094 181.558594 4.765625 178.566406 C 4.914062 175.574219 5.132812 172.589844 5.425781 169.609375 C 5.71875 166.628906 6.085938 163.65625 6.527344 160.695312 C 6.964844 157.730469 7.476562 154.78125 8.0625 151.84375 C 8.644531 148.90625 9.300781 145.984375 10.03125 143.082031 C 10.757812 140.175781 11.554688 137.289062 12.425781 134.421875 C 13.296875 131.558594 14.234375 128.714844 15.242188 125.894531 C 16.253906 123.074219 17.328125 120.28125 18.476562 117.515625 C 19.621094 114.746094 20.835938 112.011719 22.117188 109.304688 C 23.394531 106.597656 24.742188 103.921875 26.152344 101.28125 C 27.566406 98.640625 29.042969 96.035156 30.582031 93.464844 C 32.121094 90.894531 33.722656 88.367188 35.386719 85.875 C 37.050781 83.386719 38.773438 80.9375 40.558594 78.53125 C 42.34375 76.128906 44.183594 73.765625 46.085938 71.453125 C 47.984375 69.136719 49.941406 66.871094 51.953125 64.652344 C 53.964844 62.429688 56.027344 60.261719 58.144531 58.144531 C 60.261719 56.027344 62.429688 53.964844 64.652344 51.953125 C 66.871094 49.941406 69.136719 47.984375 71.453125 46.085938 C 73.765625 44.183594 76.128906 42.34375 78.53125 40.558594 C 80.9375 38.773438 83.386719 37.050781 85.875 35.386719 C 88.367188 33.722656 90.894531 32.121094 93.464844 30.582031 C 96.035156 29.042969 98.640625 27.566406 101.28125 26.152344 C 103.921875 24.742188 106.597656 23.394531 109.304688 22.117188 C 112.011719 20.835938 114.746094 19.621094 117.515625 18.476562 C 120.28125 17.328125 123.074219 16.253906 125.894531 15.242188 C 128.714844 14.234375 131.558594 13.296875 134.421875 12.425781 C 137.289062 11.554688 140.175781 10.757812 143.082031 10.03125 C 145.984375 9.300781 148.90625 8.644531 151.84375 8.0625 C 154.78125 7.476562 157.730469 6.964844 160.695312 6.527344 C 163.65625 6.085938 166.628906 5.71875 169.609375 5.425781 C 172.589844 5.132812 175.574219 4.914062 178.566406 4.765625 C 181.558594 4.621094 184.550781 4.546875 187.546875 4.546875 C 190.539062 4.546875 193.535156 4.621094 196.523438 4.765625 C 199.515625 4.914062 202.503906 5.132812 205.484375 5.425781 C 208.464844 5.71875 211.433594 6.085938 214.398438 6.527344 C 217.359375 6.964844 220.308594 7.476562 223.246094 8.0625 C 226.183594 8.644531 229.105469 9.300781 232.011719 10.03125 C 234.917969 10.757812 237.800781 11.554688 240.667969 12.425781 C 243.535156 13.296875 246.375 14.234375 249.195312 15.242188 C 252.015625 16.253906 254.808594 17.328125 257.578125 18.476562 C 260.34375 19.621094 263.082031 20.835938 265.789062 22.117188 C 268.496094 23.394531 271.171875 24.742188 273.8125 26.152344 C 276.453125 27.566406 279.058594 29.042969 281.625 30.582031 C 284.195312 32.121094 286.726562 33.722656 289.214844 35.386719 C 291.707031 37.050781 294.152344 38.773438 296.558594 40.558594 C 298.964844 42.34375 301.324219 44.183594 303.640625 46.085938 C 305.953125 47.984375 308.222656 49.941406 310.441406 51.953125 C 312.660156 53.964844 314.828125 56.027344 316.945312 58.144531 C 319.0625 60.261719 321.128906 62.429688 323.140625 64.652344 C 325.152344 66.871094 327.105469 69.136719 329.007812 71.453125 C 330.90625 73.765625 332.75 76.128906 334.53125 78.53125 C 336.316406 80.9375 338.039062 83.386719 339.703125 85.875 C 341.367188 88.367188 342.96875 90.894531 344.511719 93.464844 C 346.050781 96.035156 347.527344 98.640625 348.9375 101.28125 C 350.347656 103.921875 351.695312 106.597656 352.976562 109.304688 C 354.257812 112.011719 355.46875 114.746094 356.617188 117.515625 C 357.761719 120.28125 358.839844 123.074219 359.847656 125.894531 C 360.855469 128.714844 361.796875 131.558594 362.664062 134.421875 C 363.535156 137.289062 364.332031 140.175781 365.0625 143.082031 C 365.789062 145.984375 366.445312 148.90625 367.03125 151.84375 C 367.613281 154.78125 368.125 157.730469 368.566406 160.695312 C 369.003906 163.65625 369.371094 166.628906 369.664062 169.609375 C 369.957031 172.589844 370.179688 175.574219 370.324219 178.566406 C 370.472656 181.558594 370.546875 184.550781 370.546875 187.546875 Z M 370.546875 187.546875 " fill-opacity="1" fill-rule="nonzero"/></g><path fill="#ffffff" d="M 187.546875 353.089844 C 96.183594 353.089844 22 278.910156 22 187.546875 C 22 96.183594 96.183594 22 187.546875 22 C 278.910156 22 353.089844 96.183594 353.089844 187.546875 C 353.089844 278.910156 278.910156 353.089844 187.546875 353.089844 Z M 187.546875 26.089844 C 98.363281 26.089844 26.089844 98.363281 26.089844 187.546875 C 26.089844 276.726562 98.636719 349 187.546875 349 C 276.726562 349 349 276.453125 349 187.546875 C 349 98.363281 276.726562 26.089844 187.546875 26.089844 Z M 187.546875 26.089844 " fill-opacity="1" fill-rule="nonzero"/><g clip-path="url(#id2)"><path fill="#ffffff" d="M 269.171875 99.640625 L 106.035156 99.640625 C 105.632812 99.640625 105.230469 99.679688 104.832031 99.757812 C 104.4375 99.835938 104.050781 99.953125 103.675781 100.109375 C 103.300781 100.265625 102.945312 100.453125 102.609375 100.679688 C 102.273438 100.902344 101.960938 101.15625 101.675781 101.445312 C 101.390625 101.730469 101.132812 102.039062 100.910156 102.375 C 100.683594 102.710938 100.492188 103.066406 100.339844 103.4375 C 100.183594 103.8125 100.066406 104.195312 99.984375 104.59375 C 99.90625 104.988281 99.867188 105.390625 99.867188 105.792969 L 99.867188 239.910156 C 99.867188 240.3125 99.90625 240.714844 99.984375 241.109375 C 100.066406 241.507812 100.183594 241.890625 100.339844 242.265625 C 100.492188 242.636719 100.683594 242.992188 100.910156 243.328125 C 101.132812 243.664062 101.390625 243.972656 101.675781 244.261719 C 101.960938 244.546875 102.273438 244.800781 102.609375 245.027344 C 102.945312 245.25 103.300781 245.441406 103.675781 245.59375 C 104.050781 245.75 104.4375 245.867188 104.832031 245.945312 C 105.230469 246.023438 105.632812 246.0625 106.035156 246.066406 L 136.054688 246.066406 C 136.289062 246.066406 136.511719 246.019531 136.726562 245.929688 C 136.941406 245.84375 137.132812 245.714844 137.296875 245.550781 C 137.460938 245.386719 137.585938 245.199219 137.675781 244.984375 C 137.765625 244.769531 137.808594 244.546875 137.808594 244.316406 L 137.808594 235.507812 C 137.808594 235.273438 137.765625 235.050781 137.675781 234.835938 C 137.585938 234.621094 137.460938 234.433594 137.296875 234.269531 C 137.132812 234.105469 136.941406 233.976562 136.726562 233.890625 C 136.511719 233.800781 136.289062 233.753906 136.054688 233.753906 L 112.207031 233.753906 L 112.207031 229.109375 L 118.65625 229.109375 C 119.351562 229.109375 120.039062 229.042969 120.722656 228.90625 C 121.402344 228.769531 122.066406 228.570312 122.707031 228.304688 C 123.347656 228.039062 123.957031 227.714844 124.535156 227.328125 C 125.113281 226.941406 125.648438 226.503906 126.140625 226.015625 C 126.628906 225.523438 127.070312 224.992188 127.453125 224.414062 C 127.839844 223.839844 128.167969 223.230469 128.433594 222.589844 C 128.699219 221.949219 128.902344 221.292969 129.035156 220.613281 C 129.171875 219.933594 129.242188 219.246094 129.242188 218.550781 L 129.242188 201.820312 C 129.242188 201.125 129.171875 200.4375 129.035156 199.757812 C 128.902344 199.078125 128.699219 198.421875 128.433594 197.78125 C 128.167969 197.140625 127.839844 196.53125 127.453125 195.957031 C 127.070312 195.378906 126.628906 194.847656 126.140625 194.355469 C 125.648438 193.867188 125.113281 193.429688 124.535156 193.042969 C 123.957031 192.65625 123.347656 192.332031 122.707031 192.066406 C 122.066406 191.800781 121.402344 191.601562 120.722656 191.464844 C 120.039062 191.328125 119.351562 191.261719 118.65625 191.261719 L 112.207031 191.261719 L 112.207031 187.222656 L 174.449219 187.222656 C 174.683594 187.222656 174.90625 187.179688 175.121094 187.089844 C 175.335938 187 175.527344 186.875 175.691406 186.710938 C 175.855469 186.546875 175.984375 186.355469 176.074219 186.140625 C 176.160156 185.925781 176.207031 185.703125 176.207031 185.472656 L 176.207031 176.664062 C 176.207031 176.429688 176.160156 176.207031 176.074219 175.992188 C 175.984375 175.777344 175.855469 175.589844 175.691406 175.425781 C 175.527344 175.261719 175.335938 175.136719 175.121094 175.046875 C 174.90625 174.957031 174.683594 174.914062 174.449219 174.914062 L 112.207031 174.914062 L 112.207031 111.949219 L 125.492188 111.949219 L 125.492188 154.238281 C 125.492188 154.640625 125.53125 155.042969 125.613281 155.4375 C 125.691406 155.835938 125.808594 156.21875 125.964844 156.59375 C 126.117188 156.964844 126.308594 157.320312 126.535156 157.65625 C 126.757812 157.992188 127.015625 158.300781 127.300781 158.589844 C 127.585938 158.875 127.898438 159.128906 128.234375 159.351562 C 128.574219 159.578125 128.925781 159.765625 129.300781 159.921875 C 129.675781 160.078125 130.0625 160.195312 130.457031 160.273438 C 130.855469 160.351562 131.257812 160.390625 131.660156 160.394531 L 159.253906 160.394531 C 159.660156 160.390625 160.0625 160.351562 160.457031 160.273438 C 160.855469 160.195312 161.242188 160.078125 161.617188 159.921875 C 161.988281 159.765625 162.34375 159.578125 162.679688 159.351562 C 163.019531 159.128906 163.328125 158.875 163.617188 158.589844 C 163.902344 158.300781 164.160156 157.992188 164.382812 157.65625 C 164.609375 157.320312 164.796875 156.964844 164.953125 156.59375 C 165.109375 156.21875 165.226562 155.835938 165.304688 155.4375 C 165.386719 155.042969 165.425781 154.640625 165.425781 154.238281 L 165.425781 111.949219 L 198.757812 111.949219 L 198.757812 121.660156 L 189.203125 121.660156 C 188.972656 121.660156 188.746094 121.703125 188.53125 121.792969 C 188.316406 121.882812 188.128906 122.007812 187.960938 122.171875 C 187.796875 122.335938 187.671875 122.523438 187.582031 122.738281 C 187.492188 122.953125 187.449219 123.175781 187.449219 123.410156 L 187.449219 160.402344 C 187.449219 160.636719 187.492188 160.859375 187.582031 161.074219 C 187.671875 161.289062 187.796875 161.476562 187.960938 161.640625 C 188.128906 161.804688 188.316406 161.933594 188.53125 162.019531 C 188.746094 162.109375 188.972656 162.152344 189.203125 162.152344 L 198.757812 162.152344 L 198.757812 174.457031 C 198.757812 174.691406 198.804688 174.914062 198.890625 175.128906 C 198.980469 175.34375 199.109375 175.53125 199.273438 175.695312 C 199.4375 175.859375 199.628906 175.988281 199.84375 176.074219 C 200.058594 176.164062 200.28125 176.210938 200.515625 176.210938 L 209.34375 176.210938 C 209.578125 176.210938 209.800781 176.164062 210.015625 176.074219 C 210.230469 175.988281 210.421875 175.859375 210.585938 175.695312 C 210.75 175.53125 210.875 175.34375 210.964844 175.128906 C 211.054688 174.914062 211.097656 174.691406 211.097656 174.457031 L 211.097656 130.5 L 263.003906 130.5 L 263.003906 230.441406 L 254.398438 230.441406 C 253.617188 230.441406 252.839844 230.480469 252.0625 230.558594 C 251.285156 230.632812 250.515625 230.75 249.75 230.902344 C 248.984375 231.054688 248.230469 231.242188 247.484375 231.46875 C 246.738281 231.695312 246.003906 231.957031 245.28125 232.257812 C 244.5625 232.554688 243.859375 232.886719 243.167969 233.253906 C 242.480469 233.621094 241.8125 234.023438 241.164062 234.453125 C 240.515625 234.886719 239.890625 235.351562 239.289062 235.84375 C 238.683594 236.335938 238.105469 236.859375 237.554688 237.410156 C 237.003906 237.960938 236.480469 238.535156 235.984375 239.136719 C 235.492188 239.738281 235.027344 240.363281 234.59375 241.011719 C 234.160156 241.65625 233.757812 242.324219 233.390625 243.011719 C 233.023438 243.695312 232.6875 244.398438 232.390625 245.117188 C 232.089844 245.835938 231.828125 246.570312 231.601562 247.3125 C 231.375 248.058594 231.183594 248.8125 231.03125 249.574219 C 230.878906 250.339844 230.761719 251.105469 230.683594 251.882812 C 230.609375 252.65625 230.570312 253.433594 230.566406 254.210938 L 230.566406 262.824219 L 211.097656 262.824219 L 211.097656 261.929688 C 211.097656 261.710938 211.09375 261.488281 211.085938 261.269531 C 211.09375 261.199219 211.097656 261.125 211.097656 261.050781 L 211.097656 236.804688 L 220.203125 236.804688 C 220.433594 236.804688 220.65625 236.761719 220.871094 236.671875 C 221.085938 236.582031 221.277344 236.457031 221.441406 236.292969 C 221.605469 236.128906 221.734375 235.941406 221.824219 235.726562 C 221.910156 235.511719 221.957031 235.289062 221.957031 235.054688 L 221.957031 234.207031 L 228.027344 234.207031 C 228.671875 234.207031 229.3125 234.144531 229.945312 234.019531 C 230.578125 233.894531 231.191406 233.707031 231.789062 233.460938 C 232.382812 233.214844 232.949219 232.914062 233.484375 232.554688 C 234.019531 232.199219 234.515625 231.792969 234.972656 231.335938 C 235.429688 230.882812 235.835938 230.386719 236.195312 229.851562 C 236.554688 229.316406 236.855469 228.753906 237.101562 228.160156 C 237.347656 227.566406 237.535156 226.953125 237.660156 226.320312 C 237.785156 225.691406 237.851562 225.054688 237.851562 224.410156 C 237.851562 223.765625 237.785156 223.128906 237.660156 222.5 C 237.535156 221.867188 237.347656 221.253906 237.101562 220.660156 C 236.855469 220.066406 236.554688 219.5 236.195312 218.96875 C 235.835938 218.433594 235.429688 217.9375 234.972656 217.480469 C 234.515625 217.027344 234.019531 216.621094 233.484375 216.265625 C 232.949219 215.90625 232.382812 215.605469 231.789062 215.359375 C 231.191406 215.113281 230.578125 214.925781 229.945312 214.800781 C 229.3125 214.675781 228.671875 214.613281 228.027344 214.613281 L 221.957031 214.613281 L 221.957031 213.765625 C 221.957031 213.53125 221.910156 213.308594 221.824219 213.09375 C 221.734375 212.878906 221.605469 212.691406 221.441406 212.527344 C 221.277344 212.363281 221.085938 212.234375 220.871094 212.148438 C 220.65625 212.058594 220.433594 212.015625 220.203125 212.015625 L 211.097656 212.015625 L 211.097656 209.074219 L 238.035156 209.074219 C 238.265625 209.074219 238.488281 209.027344 238.703125 208.941406 C 238.917969 208.851562 239.109375 208.726562 239.273438 208.558594 C 239.4375 208.394531 239.566406 208.207031 239.65625 207.992188 C 239.742188 207.777344 239.789062 207.554688 239.789062 207.324219 L 239.789062 198.515625 C 239.789062 198.28125 239.742188 198.058594 239.65625 197.84375 C 239.566406 197.628906 239.4375 197.441406 239.273438 197.277344 C 239.109375 197.113281 238.917969 196.984375 238.703125 196.898438 C 238.488281 196.808594 238.265625 196.765625 238.035156 196.765625 L 204.929688 196.765625 C 204.523438 196.765625 204.121094 196.804688 203.726562 196.882812 C 203.328125 196.960938 202.941406 197.078125 202.570312 197.234375 C 202.195312 197.390625 201.839844 197.578125 201.503906 197.804688 C 201.164062 198.027344 200.855469 198.28125 200.566406 198.570312 C 200.28125 198.855469 200.027344 199.164062 199.800781 199.5 C 199.574219 199.835938 199.386719 200.191406 199.230469 200.5625 C 199.074219 200.9375 198.957031 201.320312 198.878906 201.71875 C 198.800781 202.113281 198.757812 202.515625 198.757812 202.917969 L 198.757812 205.335938 L 188.613281 205.335938 C 188.382812 205.335938 188.160156 205.382812 187.941406 205.46875 C 187.726562 205.558594 187.539062 205.683594 187.375 205.847656 C 187.210938 206.011719 187.082031 206.203125 186.992188 206.417969 C 186.90625 206.632812 186.859375 206.855469 186.859375 207.085938 L 186.859375 229.546875 C 186.859375 229.78125 186.90625 230.003906 186.992188 230.21875 C 187.082031 230.433594 187.210938 230.621094 187.375 230.785156 C 187.539062 230.949219 187.726562 231.078125 187.941406 231.164062 C 188.160156 231.253906 188.382812 231.296875 188.613281 231.296875 L 198.757812 231.296875 L 198.757812 238.664062 C 196.417969 237.0625 193.894531 235.847656 191.179688 235.011719 C 188.46875 234.175781 185.695312 233.757812 182.855469 233.753906 L 172.261719 233.753906 C 172.027344 233.753906 171.804688 233.800781 171.589844 233.890625 C 171.375 233.976562 171.183594 234.105469 171.019531 234.269531 C 170.855469 234.433594 170.730469 234.621094 170.640625 234.835938 C 170.550781 235.050781 170.507812 235.273438 170.507812 235.507812 L 170.507812 244.316406 C 170.507812 244.546875 170.550781 244.769531 170.640625 244.984375 C 170.730469 245.199219 170.855469 245.386719 171.019531 245.550781 C 171.183594 245.714844 171.375 245.84375 171.589844 245.933594 C 171.804688 246.019531 172.027344 246.066406 172.261719 246.066406 L 182.855469 246.066406 C 183.898438 246.066406 184.933594 246.167969 185.957031 246.371094 C 186.980469 246.578125 187.972656 246.878906 188.9375 247.277344 C 189.902344 247.675781 190.816406 248.164062 191.6875 248.746094 C 192.554688 249.324219 193.355469 249.980469 194.09375 250.71875 C 194.832031 251.453125 195.492188 252.253906 196.074219 253.121094 C 196.652344 253.984375 197.144531 254.898438 197.542969 255.863281 C 197.945312 256.824219 198.246094 257.816406 198.449219 258.835938 C 198.65625 259.859375 198.757812 260.890625 198.757812 261.929688 L 198.757812 268.980469 C 198.757812 269.382812 198.800781 269.785156 198.878906 270.179688 C 198.957031 270.578125 199.074219 270.960938 199.230469 271.335938 C 199.386719 271.707031 199.574219 272.0625 199.800781 272.398438 C 200.027344 272.734375 200.28125 273.042969 200.566406 273.328125 C 200.855469 273.617188 201.164062 273.871094 201.503906 274.09375 C 201.839844 274.320312 202.195312 274.507812 202.570312 274.664062 C 202.941406 274.820312 203.328125 274.9375 203.726562 275.015625 C 204.121094 275.09375 204.523438 275.132812 204.929688 275.132812 L 269.171875 275.132812 C 269.578125 275.132812 269.980469 275.09375 270.375 275.015625 C 270.773438 274.9375 271.160156 274.820312 271.53125 274.664062 C 271.90625 274.507812 272.261719 274.320312 272.597656 274.09375 C 272.9375 273.871094 273.246094 273.617188 273.535156 273.328125 C 273.820312 273.042969 274.074219 272.734375 274.300781 272.398438 C 274.527344 272.0625 274.714844 271.707031 274.871094 271.335938 C 275.027344 270.960938 275.144531 270.578125 275.222656 270.179688 C 275.300781 269.785156 275.34375 269.382812 275.34375 268.980469 L 275.34375 105.792969 C 275.34375 105.390625 275.300781 104.988281 275.222656 104.59375 C 275.144531 104.195312 275.027344 103.8125 274.871094 103.4375 C 274.714844 103.066406 274.527344 102.710938 274.300781 102.375 C 274.074219 102.039062 273.820312 101.730469 273.535156 101.441406 C 273.246094 101.15625 272.9375 100.902344 272.597656 100.679688 C 272.261719 100.453125 271.90625 100.265625 271.53125 100.109375 C 271.160156 99.953125 270.773438 99.835938 270.375 99.757812 C 269.980469 99.679688 269.578125 99.640625 269.171875 99.640625 Z M 198.632812 158.652344 L 190.957031 158.652344 L 190.957031 125.160156 L 198.632812 125.160156 Z M 221.957031 218.113281 L 228.027344 218.113281 C 228.441406 218.113281 228.855469 218.152344 229.261719 218.234375 C 229.667969 218.316406 230.0625 218.433594 230.445312 218.59375 C 230.828125 218.75 231.191406 218.945312 231.535156 219.175781 C 231.878906 219.40625 232.199219 219.664062 232.492188 219.957031 C 232.785156 220.25 233.046875 220.566406 233.277344 220.910156 C 233.507812 221.253906 233.703125 221.617188 233.859375 222 C 234.019531 222.382812 234.136719 222.777344 234.21875 223.179688 C 234.300781 223.585938 234.339844 223.996094 234.339844 224.410156 C 234.339844 224.824219 234.300781 225.234375 234.21875 225.636719 C 234.136719 226.042969 234.019531 226.4375 233.859375 226.820312 C 233.703125 227.199219 233.507812 227.5625 233.277344 227.90625 C 233.046875 228.25 232.785156 228.570312 232.492188 228.863281 C 232.199219 229.152344 231.878906 229.414062 231.535156 229.644531 C 231.191406 229.875 230.828125 230.066406 230.445312 230.226562 C 230.0625 230.382812 229.667969 230.503906 229.261719 230.585938 C 228.855469 230.664062 228.441406 230.707031 228.027344 230.707031 L 221.957031 230.707031 Z M 198.578125 227.796875 L 190.371094 227.796875 L 190.371094 208.835938 L 198.578125 208.835938 Z M 118.65625 194.761719 C 119.121094 194.761719 119.582031 194.808594 120.039062 194.898438 C 120.492188 194.988281 120.933594 195.121094 121.363281 195.300781 C 121.792969 195.476562 122.199219 195.695312 122.585938 195.953125 C 122.972656 196.210938 123.328125 196.503906 123.660156 196.832031 C 123.988281 197.15625 124.28125 197.515625 124.539062 197.898438 C 124.796875 198.285156 125.015625 198.691406 125.191406 199.121094 C 125.371094 199.546875 125.503906 199.988281 125.59375 200.441406 C 125.6875 200.898438 125.730469 201.355469 125.734375 201.820312 L 125.734375 218.550781 C 125.730469 219.015625 125.6875 219.476562 125.59375 219.929688 C 125.503906 220.382812 125.371094 220.824219 125.191406 221.253906 C 125.015625 221.679688 124.796875 222.085938 124.539062 222.472656 C 124.28125 222.855469 123.988281 223.214844 123.660156 223.539062 C 123.328125 223.867188 122.972656 224.160156 122.585938 224.417969 C 122.199219 224.675781 121.792969 224.894531 121.363281 225.070312 C 120.933594 225.25 120.492188 225.382812 120.039062 225.472656 C 119.582031 225.5625 119.121094 225.609375 118.65625 225.609375 L 112.023438 225.609375 L 112.023438 194.761719 Z M 161.914062 154.238281 C 161.914062 154.589844 161.847656 154.929688 161.710938 155.253906 C 161.578125 155.578125 161.386719 155.863281 161.136719 156.113281 C 160.886719 156.363281 160.597656 156.554688 160.273438 156.6875 C 159.945312 156.824219 159.609375 156.890625 159.253906 156.890625 L 131.660156 156.890625 C 131.308594 156.890625 130.96875 156.824219 130.644531 156.6875 C 130.316406 156.554688 130.03125 156.363281 129.78125 156.113281 C 129.53125 155.863281 129.339844 155.578125 129.203125 155.253906 C 129.070312 154.929688 129 154.589844 129 154.238281 L 129 130.355469 L 161.914062 130.355469 Z M 161.914062 126.855469 L 129 126.855469 L 129 111.949219 L 135.085938 111.949219 C 135.066406 112.097656 135.058594 112.25 135.058594 112.398438 L 135.058594 117.390625 C 135.058594 117.914062 135.160156 118.417969 135.359375 118.902344 C 135.5625 119.386719 135.847656 119.8125 136.21875 120.183594 C 136.589844 120.554688 137.019531 120.839844 137.503906 121.042969 C 137.988281 121.242188 138.496094 121.34375 139.019531 121.34375 L 150.792969 121.34375 C 151.320312 121.34375 151.824219 121.242188 152.308594 121.042969 C 152.792969 120.839844 153.222656 120.554688 153.59375 120.183594 C 153.964844 119.8125 154.25 119.386719 154.453125 118.902344 C 154.652344 118.417969 154.753906 117.914062 154.753906 117.390625 L 154.753906 112.398438 C 154.753906 112.25 154.746094 112.097656 154.726562 111.949219 L 161.914062 111.949219 Z M 138.566406 117.390625 L 138.566406 112.398438 C 138.566406 112.273438 138.613281 112.167969 138.699219 112.082031 C 138.789062 111.992188 138.894531 111.949219 139.019531 111.949219 L 150.792969 111.949219 C 150.917969 111.949219 151.023438 111.992188 151.113281 112.082031 C 151.203125 112.167969 151.246094 112.273438 151.246094 112.398438 L 151.246094 117.390625 C 151.246094 117.515625 151.203125 117.621094 151.113281 117.710938 C 151.023438 117.796875 150.917969 117.84375 150.792969 117.84375 L 139.019531 117.84375 C 138.894531 117.84375 138.789062 117.796875 138.699219 117.710938 C 138.613281 117.621094 138.566406 117.515625 138.566406 117.390625 Z M 211.097656 126.996094 L 211.097656 112.003906 L 263.214844 112.003906 L 263.214844 126.996094 Z M 234.078125 254.210938 C 234.078125 253.546875 234.113281 252.886719 234.179688 252.222656 C 234.242188 251.5625 234.339844 250.910156 234.472656 250.257812 C 234.601562 249.605469 234.765625 248.964844 234.957031 248.328125 C 235.152344 247.695312 235.375 247.070312 235.628906 246.457031 C 235.886719 245.84375 236.171875 245.246094 236.484375 244.660156 C 236.796875 244.074219 237.140625 243.507812 237.507812 242.953125 C 237.878906 242.402344 238.273438 241.871094 238.699219 241.359375 C 239.121094 240.84375 239.566406 240.355469 240.035156 239.882812 C 240.507812 239.414062 241 238.96875 241.511719 238.546875 C 242.027344 238.128906 242.5625 237.734375 243.113281 237.363281 C 243.667969 236.996094 244.238281 236.652344 244.824219 236.339844 C 245.410156 236.027344 246.011719 235.742188 246.625 235.488281 C 247.238281 235.234375 247.867188 235.011719 248.5 234.820312 C 249.136719 234.625 249.78125 234.464844 250.433594 234.332031 C 251.085938 234.203125 251.746094 234.105469 252.40625 234.039062 C 253.070312 233.976562 253.734375 233.941406 254.398438 233.941406 L 262.796875 233.941406 L 262.796875 262.589844 L 234.078125 262.589844 Z M 218.445312 215.515625 L 218.445312 233.304688 L 211.027344 233.304688 L 211.027344 215.515625 Z M 271.832031 268.980469 C 271.832031 269.332031 271.765625 269.667969 271.628906 269.996094 C 271.496094 270.320312 271.300781 270.605469 271.054688 270.855469 C 270.804688 271.105469 270.515625 271.296875 270.191406 271.429688 C 269.863281 271.566406 269.527344 271.632812 269.171875 271.632812 L 204.929688 271.632812 C 204.574219 271.632812 204.238281 271.566406 203.910156 271.429688 C 203.585938 271.296875 203.296875 271.105469 203.046875 270.855469 C 202.800781 270.605469 202.605469 270.320312 202.472656 269.996094 C 202.335938 269.667969 202.269531 269.332031 202.269531 268.980469 L 202.269531 261.929688 C 202.269531 261.296875 202.234375 260.664062 202.171875 260.03125 C 202.109375 259.402344 202.015625 258.777344 201.890625 258.152344 C 201.765625 257.53125 201.613281 256.917969 201.425781 256.3125 C 201.242188 255.703125 201.027344 255.109375 200.785156 254.523438 C 200.542969 253.9375 200.269531 253.363281 199.96875 252.804688 C 199.667969 252.246094 199.34375 251.703125 198.988281 251.175781 C 198.636719 250.648438 198.257812 250.140625 197.855469 249.648438 C 197.453125 249.160156 197.023438 248.691406 196.574219 248.242188 C 196.125 247.792969 195.65625 247.367188 195.164062 246.964844 C 194.671875 246.5625 194.164062 246.1875 193.632812 245.835938 C 193.105469 245.480469 192.5625 245.15625 192 244.855469 C 191.441406 244.558594 190.867188 244.285156 190.28125 244.042969 C 189.691406 243.800781 189.09375 243.585938 188.488281 243.402344 C 187.878906 243.21875 187.261719 243.0625 186.640625 242.941406 C 186.015625 242.816406 185.386719 242.722656 184.757812 242.660156 C 184.125 242.597656 183.488281 242.566406 182.855469 242.5625 L 174.015625 242.5625 L 174.015625 237.257812 L 182.855469 237.257812 C 185.898438 237.257812 188.839844 237.800781 191.683594 238.886719 C 194.523438 239.972656 197.078125 241.53125 199.34375 243.558594 C 199.601562 243.789062 199.898438 243.933594 200.242188 243.984375 C 200.585938 244.039062 200.914062 243.996094 201.230469 243.855469 C 201.546875 243.714844 201.796875 243.5 201.984375 243.207031 C 202.175781 242.917969 202.269531 242.601562 202.269531 242.257812 L 202.269531 202.917969 C 202.269531 202.566406 202.335938 202.226562 202.472656 201.902344 C 202.605469 201.578125 202.800781 201.292969 203.046875 201.042969 C 203.296875 200.792969 203.585938 200.601562 203.910156 200.46875 C 204.238281 200.332031 204.574219 200.265625 204.929688 200.265625 L 236.277344 200.265625 L 236.277344 205.574219 L 209.34375 205.574219 C 209.109375 205.574219 208.886719 205.617188 208.671875 205.707031 C 208.457031 205.792969 208.265625 205.921875 208.101562 206.085938 C 207.9375 206.25 207.8125 206.4375 207.722656 206.652344 C 207.632812 206.867188 207.589844 207.089844 207.589844 207.324219 L 207.589844 213.296875 C 207.542969 213.449219 207.519531 213.605469 207.515625 213.765625 L 207.515625 235.054688 C 207.519531 235.214844 207.542969 235.371094 207.589844 235.523438 L 207.589844 260.769531 C 207.570312 260.882812 207.5625 260.996094 207.566406 261.109375 L 207.574219 261.277344 C 207.582031 261.492188 207.589844 261.710938 207.589844 261.929688 L 207.589844 264.574219 C 207.589844 264.808594 207.632812 265.03125 207.722656 265.246094 C 207.8125 265.460938 207.9375 265.648438 208.101562 265.8125 C 208.265625 265.976562 208.457031 266.105469 208.671875 266.191406 C 208.886719 266.28125 209.109375 266.328125 209.34375 266.328125 L 264.757812 266.328125 C 264.992188 266.328125 265.214844 266.28125 265.429688 266.191406 C 265.644531 266.105469 265.835938 265.976562 266 265.8125 C 266.164062 265.648438 266.289062 265.460938 266.378906 265.246094 C 266.46875 265.03125 266.511719 264.808594 266.511719 264.574219 L 266.511719 129.566406 C 266.652344 129.308594 266.722656 129.039062 266.722656 128.75 L 266.722656 110.253906 C 266.695312 110.007812 266.625 109.78125 266.511719 109.5625 C 266.402344 109.34375 266.253906 109.152344 266.074219 108.988281 C 265.894531 108.824219 265.691406 108.695312 265.464844 108.601562 C 265.238281 108.507812 265.003906 108.457031 264.757812 108.445312 L 209.34375 108.445312 C 209.109375 108.445312 208.886719 108.492188 208.671875 108.582031 C 208.457031 108.667969 208.265625 108.796875 208.101562 108.960938 C 207.9375 109.125 207.8125 109.3125 207.722656 109.527344 C 207.632812 109.742188 207.589844 109.964844 207.589844 110.199219 L 207.589844 172.707031 L 202.269531 172.707031 L 202.269531 110.199219 C 202.269531 109.964844 202.222656 109.742188 202.136719 109.527344 C 202.046875 109.3125 201.917969 109.125 201.753906 108.960938 C 201.589844 108.796875 201.398438 108.667969 201.183594 108.582031 C 200.96875 108.492188 200.746094 108.445312 200.511719 108.445312 L 110.453125 108.445312 C 110.21875 108.445312 109.996094 108.492188 109.78125 108.582031 C 109.566406 108.667969 109.375 108.796875 109.210938 108.960938 C 109.046875 109.125 108.917969 109.3125 108.828125 109.527344 C 108.742188 109.742188 108.695312 109.964844 108.695312 110.199219 L 108.695312 176.664062 C 108.695312 176.894531 108.742188 177.117188 108.828125 177.332031 C 108.917969 177.546875 109.046875 177.738281 109.210938 177.902344 C 109.375 178.066406 109.566406 178.191406 109.78125 178.28125 C 109.996094 178.371094 110.21875 178.414062 110.453125 178.414062 L 172.695312 178.414062 L 172.695312 183.722656 L 110.453125 183.722656 C 110.21875 183.722656 109.996094 183.765625 109.78125 183.855469 C 109.566406 183.945312 109.375 184.070312 109.210938 184.234375 C 109.046875 184.398438 108.917969 184.585938 108.828125 184.800781 C 108.742188 185.015625 108.695312 185.238281 108.695312 185.472656 L 108.695312 192.25 C 108.578125 192.488281 108.515625 192.742188 108.515625 193.011719 L 108.515625 227.359375 C 108.515625 227.628906 108.578125 227.882812 108.695312 228.121094 L 108.695312 235.507812 C 108.695312 235.738281 108.742188 235.960938 108.828125 236.175781 C 108.917969 236.390625 109.046875 236.578125 109.210938 236.742188 C 109.375 236.90625 109.566406 237.035156 109.78125 237.125 C 109.996094 237.210938 110.21875 237.257812 110.453125 237.257812 L 134.300781 237.257812 L 134.300781 242.5625 L 106.035156 242.5625 C 105.683594 242.5625 105.34375 242.496094 105.019531 242.359375 C 104.691406 242.226562 104.40625 242.035156 104.15625 241.785156 C 103.90625 241.539062 103.714844 241.25 103.578125 240.925781 C 103.445312 240.601562 103.375 240.261719 103.375 239.910156 L 103.375 105.792969 C 103.375 105.441406 103.445312 105.101562 103.578125 104.777344 C 103.714844 104.453125 103.90625 104.167969 104.15625 103.917969 C 104.40625 103.667969 104.691406 103.476562 105.019531 103.34375 C 105.34375 103.207031 105.683594 103.140625 106.035156 103.140625 L 269.171875 103.140625 C 269.527344 103.140625 269.863281 103.207031 270.191406 103.34375 C 270.515625 103.476562 270.804688 103.667969 271.054688 103.917969 C 271.300781 104.167969 271.496094 104.453125 271.628906 104.777344 C 271.765625 105.101562 271.832031 105.441406 271.832031 105.792969 Z M 271.832031 268.980469 " fill-opacity="1" fill-rule="nonzero"/></g><path fill="#ffffff" d="M 219.9375 113.785156 C 219.5625 113.785156 219.191406 113.824219 218.820312 113.894531 C 218.453125 113.96875 218.09375 114.078125 217.746094 114.222656 C 217.398438 114.363281 217.070312 114.539062 216.757812 114.75 C 216.445312 114.957031 216.15625 115.195312 215.886719 115.460938 C 215.621094 115.726562 215.386719 116.011719 215.175781 116.324219 C 214.96875 116.636719 214.789062 116.964844 214.648438 117.3125 C 214.503906 117.660156 214.394531 118.015625 214.320312 118.386719 C 214.246094 118.753906 214.210938 119.125 214.210938 119.5 C 214.210938 119.875 214.246094 120.246094 214.320312 120.613281 C 214.394531 120.984375 214.503906 121.339844 214.648438 121.6875 C 214.789062 122.035156 214.96875 122.363281 215.175781 122.675781 C 215.386719 122.988281 215.621094 123.273438 215.886719 123.539062 C 216.15625 123.804688 216.445312 124.042969 216.757812 124.25 C 217.070312 124.460938 217.398438 124.636719 217.746094 124.777344 C 218.09375 124.921875 218.453125 125.03125 218.820312 125.105469 C 219.191406 125.175781 219.5625 125.214844 219.9375 125.214844 C 220.316406 125.214844 220.6875 125.175781 221.054688 125.105469 C 221.425781 125.03125 221.785156 124.921875 222.132812 124.777344 C 222.476562 124.636719 222.808594 124.460938 223.121094 124.25 C 223.433594 124.042969 223.722656 123.804688 223.988281 123.539062 C 224.253906 123.273438 224.492188 122.988281 224.703125 122.675781 C 224.910156 122.363281 225.085938 122.035156 225.230469 121.6875 C 225.375 121.339844 225.484375 120.984375 225.558594 120.613281 C 225.628906 120.246094 225.667969 119.875 225.667969 119.5 C 225.667969 119.125 225.628906 118.753906 225.554688 118.386719 C 225.480469 118.019531 225.375 117.660156 225.230469 117.3125 C 225.085938 116.96875 224.910156 116.640625 224.699219 116.328125 C 224.492188 116.015625 224.253906 115.726562 223.988281 115.460938 C 223.722656 115.195312 223.433594 114.960938 223.121094 114.75 C 222.808594 114.542969 222.476562 114.367188 222.128906 114.222656 C 221.78125 114.078125 221.425781 113.96875 221.054688 113.898438 C 220.6875 113.824219 220.316406 113.785156 219.9375 113.785156 Z M 219.9375 121.714844 C 219.644531 121.714844 219.363281 121.65625 219.089844 121.542969 C 218.816406 121.433594 218.578125 121.273438 218.371094 121.066406 C 218.164062 120.855469 218 120.617188 217.890625 120.347656 C 217.777344 120.074219 217.71875 119.792969 217.71875 119.5 C 217.71875 119.207031 217.777344 118.925781 217.890625 118.652344 C 218 118.382812 218.164062 118.144531 218.371094 117.933594 C 218.578125 117.726562 218.816406 117.566406 219.089844 117.457031 C 219.363281 117.34375 219.644531 117.285156 219.9375 117.285156 C 220.234375 117.285156 220.515625 117.34375 220.789062 117.457031 C 221.058594 117.566406 221.300781 117.726562 221.507812 117.933594 C 221.714844 118.144531 221.875 118.382812 221.988281 118.652344 C 222.101562 118.925781 222.15625 119.207031 222.15625 119.5 C 222.15625 119.792969 222.101562 120.074219 221.988281 120.347656 C 221.875 120.617188 221.714844 120.855469 221.507812 121.0625 C 221.300781 121.273438 221.058594 121.429688 220.789062 121.542969 C 220.515625 121.65625 220.234375 121.710938 219.9375 121.714844 Z M 219.9375 121.714844 " fill-opacity="1" fill-rule="nonzero"/><path fill="#ffffff" d="M 235.832031 113.785156 C 235.457031 113.785156 235.082031 113.824219 234.714844 113.894531 C 234.347656 113.96875 233.988281 114.078125 233.640625 114.222656 C 233.292969 114.363281 232.960938 114.539062 232.648438 114.75 C 232.335938 114.957031 232.046875 115.195312 231.78125 115.460938 C 231.515625 115.726562 231.277344 116.011719 231.070312 116.324219 C 230.859375 116.636719 230.683594 116.964844 230.539062 117.3125 C 230.394531 117.660156 230.289062 118.015625 230.214844 118.386719 C 230.140625 118.753906 230.105469 119.125 230.105469 119.5 C 230.105469 119.875 230.140625 120.246094 230.214844 120.613281 C 230.289062 120.984375 230.394531 121.339844 230.539062 121.6875 C 230.683594 122.035156 230.859375 122.363281 231.070312 122.675781 C 231.277344 122.988281 231.515625 123.273438 231.78125 123.539062 C 232.046875 123.804688 232.335938 124.042969 232.648438 124.25 C 232.960938 124.460938 233.292969 124.636719 233.640625 124.777344 C 233.988281 124.921875 234.347656 125.03125 234.714844 125.105469 C 235.082031 125.175781 235.457031 125.214844 235.832031 125.214844 C 236.207031 125.214844 236.582031 125.175781 236.949219 125.105469 C 237.320312 125.03125 237.675781 124.921875 238.023438 124.777344 C 238.371094 124.636719 238.703125 124.460938 239.015625 124.25 C 239.328125 124.042969 239.617188 123.804688 239.882812 123.539062 C 240.148438 123.273438 240.386719 122.988281 240.59375 122.675781 C 240.804688 122.363281 240.980469 122.035156 241.125 121.6875 C 241.269531 121.339844 241.375 120.984375 241.449219 120.613281 C 241.523438 120.246094 241.558594 119.875 241.558594 119.5 C 241.558594 119.125 241.523438 118.753906 241.449219 118.386719 C 241.375 118.019531 241.265625 117.660156 241.121094 117.3125 C 240.976562 116.96875 240.800781 116.640625 240.59375 116.328125 C 240.382812 116.015625 240.144531 115.726562 239.878906 115.460938 C 239.613281 115.195312 239.324219 114.960938 239.011719 114.75 C 238.699219 114.542969 238.371094 114.367188 238.023438 114.222656 C 237.675781 114.078125 237.316406 113.96875 236.949219 113.898438 C 236.582031 113.824219 236.207031 113.785156 235.832031 113.785156 Z M 235.832031 121.714844 C 235.539062 121.714844 235.253906 121.65625 234.984375 121.542969 C 234.710938 121.433594 234.472656 121.273438 234.261719 121.066406 C 234.054688 120.855469 233.894531 120.617188 233.78125 120.347656 C 233.667969 120.074219 233.613281 119.792969 233.613281 119.5 C 233.613281 119.207031 233.667969 118.925781 233.78125 118.652344 C 233.894531 118.382812 234.054688 118.144531 234.261719 117.933594 C 234.472656 117.726562 234.710938 117.566406 234.984375 117.457031 C 235.253906 117.34375 235.539062 117.285156 235.832031 117.285156 C 236.125 117.285156 236.410156 117.34375 236.679688 117.457031 C 236.953125 117.566406 237.191406 117.726562 237.402344 117.933594 C 237.609375 118.144531 237.769531 118.382812 237.882812 118.652344 C 237.996094 118.925781 238.050781 119.207031 238.050781 119.5 C 238.050781 119.792969 237.992188 120.074219 237.882812 120.347656 C 237.769531 120.617188 237.609375 120.855469 237.398438 121.0625 C 237.191406 121.273438 236.953125 121.429688 236.679688 121.542969 C 236.410156 121.65625 236.125 121.710938 235.832031 121.714844 Z M 235.832031 121.714844 " fill-opacity="1" fill-rule="nonzero"/><path fill="#ffffff" d="M 240.945312 178.246094 C 241.351562 178.246094 241.753906 178.207031 242.148438 178.128906 C 242.546875 178.046875 242.933594 177.929688 243.304688 177.777344 C 243.679688 177.621094 244.035156 177.433594 244.371094 177.207031 C 244.710938 176.984375 245.019531 176.726562 245.308594 176.441406 C 245.59375 176.15625 245.847656 175.84375 246.074219 175.507812 C 246.300781 175.171875 246.488281 174.820312 246.644531 174.445312 C 246.800781 174.074219 246.917969 173.6875 246.996094 173.292969 C 247.074219 172.894531 247.117188 172.496094 247.117188 172.09375 L 247.117188 147.871094 C 247.117188 147.46875 247.074219 147.066406 246.996094 146.671875 C 246.917969 146.273438 246.800781 145.890625 246.644531 145.515625 C 246.488281 145.144531 246.300781 144.789062 246.074219 144.453125 C 245.847656 144.117188 245.59375 143.808594 245.308594 143.519531 C 245.019531 143.234375 244.710938 142.980469 244.371094 142.757812 C 244.035156 142.53125 243.679688 142.34375 243.304688 142.1875 C 242.933594 142.03125 242.546875 141.914062 242.148438 141.835938 C 241.753906 141.757812 241.351562 141.71875 240.945312 141.714844 L 231.234375 141.714844 C 230.828125 141.71875 230.429688 141.757812 230.03125 141.835938 C 229.632812 141.914062 229.25 142.03125 228.875 142.1875 C 228.5 142.34375 228.144531 142.53125 227.808594 142.757812 C 227.472656 142.980469 227.160156 143.234375 226.875 143.519531 C 226.585938 143.808594 226.332031 144.117188 226.105469 144.453125 C 225.882812 144.789062 225.691406 145.144531 225.535156 145.515625 C 225.382812 145.890625 225.261719 146.273438 225.183594 146.671875 C 225.105469 147.066406 225.066406 147.46875 225.066406 147.871094 L 225.066406 172.09375 C 225.066406 172.496094 225.105469 172.894531 225.183594 173.292969 C 225.261719 173.6875 225.382812 174.074219 225.535156 174.445312 C 225.691406 174.820312 225.882812 175.175781 226.105469 175.511719 C 226.332031 175.84375 226.585938 176.15625 226.875 176.441406 C 227.160156 176.726562 227.472656 176.984375 227.808594 177.207031 C 228.144531 177.433594 228.5 177.621094 228.875 177.777344 C 229.25 177.929688 229.632812 178.046875 230.03125 178.128906 C 230.429688 178.207031 230.828125 178.246094 231.234375 178.246094 Z M 228.574219 172.09375 L 228.574219 147.871094 C 228.574219 147.519531 228.640625 147.179688 228.777344 146.855469 C 228.914062 146.53125 229.105469 146.246094 229.355469 145.996094 C 229.605469 145.746094 229.890625 145.554688 230.21875 145.421875 C 230.542969 145.285156 230.882812 145.21875 231.234375 145.21875 L 240.945312 145.21875 C 241.300781 145.21875 241.636719 145.285156 241.964844 145.421875 C 242.289062 145.554688 242.578125 145.746094 242.828125 145.996094 C 243.078125 146.246094 243.269531 146.53125 243.402344 146.855469 C 243.539062 147.179688 243.605469 147.519531 243.605469 147.871094 L 243.605469 172.09375 C 243.605469 172.445312 243.539062 172.78125 243.402344 173.105469 C 243.269531 173.433594 243.078125 173.71875 242.828125 173.96875 C 242.578125 174.214844 242.289062 174.410156 241.964844 174.542969 C 241.636719 174.679688 241.300781 174.746094 240.945312 174.746094 L 231.234375 174.746094 C 230.882812 174.746094 230.542969 174.679688 230.21875 174.542969 C 229.890625 174.40625 229.605469 174.214844 229.355469 173.96875 C 229.105469 173.71875 228.914062 173.433594 228.777344 173.105469 C 228.640625 172.78125 228.574219 172.445312 228.574219 172.09375 Z M 228.574219 172.09375 " fill-opacity="1" fill-rule="nonzero"/></svg>