<svg xmlns="http://www.w3.org/2000/svg" xmlns:xlink="http://www.w3.org/1999/xlink" width="500" zoomAndPan="magnify" viewBox="0 0 375 374.999991" height="500" preserveAspectRatio="xMidYMid meet" version="1.0"><defs><clipPath id="id1"><path d="M 4.546875 4.546875 L 370.546875 4.546875 L 370.546875 370.546875 L 4.546875 370.546875 Z M 4.546875 4.546875 " clip-rule="nonzero"/></clipPath><clipPath id="id2"><path d="M 76.914062 216 L 298.164062 216 L 298.164062 282.894531 L 76.914062 282.894531 Z M 76.914062 216 " clip-rule="nonzero"/></clipPath></defs><g clip-path="url(#id1)"><path fill="#05649c" d="M 370.546875 187.546875 C 370.546875 190.539062 370.472656 193.535156 370.324219 196.523438 C 370.179688 199.515625 369.957031 202.503906 369.664062 205.484375 C 369.371094 208.464844 369.003906 211.433594 368.566406 214.398438 C 368.125 217.359375 367.613281 220.308594 367.03125 223.246094 C 366.445312 226.183594 365.789062 229.105469 365.0625 232.011719 C 364.332031 234.917969 363.535156 237.800781 362.664062 240.667969 C 361.796875 243.535156 360.855469 246.375 359.847656 249.195312 C 358.839844 252.015625 357.761719 254.808594 356.617188 257.578125 C 355.46875 260.34375 354.257812 263.082031 352.976562 265.789062 C 351.695312 268.496094 350.347656 271.171875 348.9375 273.8125 C 347.527344 276.453125 346.050781 279.058594 344.511719 281.625 C 342.96875 284.195312 341.367188 286.726562 339.703125 289.214844 C 338.039062 291.707031 336.316406 294.152344 334.53125 296.558594 C 332.75 298.964844 330.90625 301.324219 329.007812 303.640625 C 327.105469 305.953125 325.152344 308.222656 323.140625 310.441406 C 321.128906 312.660156 319.0625 314.828125 316.945312 316.945312 C 314.828125 319.0625 312.660156 321.128906 310.441406 323.140625 C 308.222656 325.152344 305.953125 327.105469 303.640625 329.007812 C 301.324219 330.90625 298.964844 332.75 296.558594 334.53125 C 294.152344 336.316406 291.707031 338.039062 289.214844 339.703125 C 286.726562 341.367188 284.195312 342.96875 281.625 344.511719 C 279.058594 346.050781 276.453125 347.527344 273.8125 348.9375 C 271.171875 350.347656 268.496094 351.695312 265.789062 352.976562 C 263.082031 354.257812 260.34375 355.46875 257.578125 356.617188 C 254.808594 357.761719 252.015625 358.839844 249.195312 359.847656 C 246.375 360.855469 243.535156 361.796875 240.667969 362.664062 C 237.800781 363.535156 234.917969 364.332031 232.011719 365.0625 C 229.105469 365.789062 226.183594 366.445312 223.246094 367.03125 C 220.308594 367.613281 217.359375 368.125 214.398438 368.566406 C 211.433594 369.003906 208.464844 369.371094 205.484375 369.664062 C 202.503906 369.957031 199.515625 370.179688 196.523438 370.324219 C 193.535156 370.472656 190.539062 370.546875 187.546875 370.546875 C 184.550781 370.546875 181.558594 370.472656 178.566406 370.324219 C 175.574219 370.179688 172.589844 369.957031 169.609375 369.664062 C 166.628906 369.371094 163.65625 369.003906 160.695312 368.566406 C 157.730469 368.125 154.78125 367.613281 151.84375 367.03125 C 148.90625 366.445312 145.984375 365.789062 143.082031 365.0625 C 140.175781 364.332031 137.289062 363.535156 134.421875 362.664062 C 131.558594 361.796875 128.714844 360.855469 125.894531 359.847656 C 123.074219 358.839844 120.28125 357.761719 117.515625 356.617188 C 114.746094 355.46875 112.011719 354.257812 109.304688 352.976562 C 106.597656 351.695312 103.921875 350.347656 101.28125 348.9375 C 98.640625 347.527344 96.035156 346.050781 93.464844 344.511719 C 90.894531 342.96875 88.367188 341.367188 85.875 339.703125 C 83.386719 338.039062 80.9375 336.316406 78.53125 334.53125 C 76.128906 332.75 73.765625 330.90625 71.453125 329.007812 C 69.136719 327.105469 66.871094 325.152344 64.652344 323.140625 C 62.429688 321.128906 60.261719 319.0625 58.144531 316.945312 C 56.027344 314.828125 53.964844 312.660156 51.953125 310.441406 C 49.941406 308.222656 47.984375 305.953125 46.085938 303.640625 C 44.183594 301.324219 42.34375 298.964844 40.558594 296.558594 C 38.773438 294.152344 37.050781 291.707031 35.386719 289.214844 C 33.722656 286.726562 32.121094 284.195312 30.582031 281.625 C 29.042969 279.058594 27.566406 276.453125 26.152344 273.8125 C 24.742188 271.171875 23.394531 268.496094 22.117188 265.789062 C 20.835938 263.082031 19.621094 260.34375 18.476562 257.578125 C 17.328125 254.808594 16.253906 252.015625 15.242188 249.195312 C 14.234375 246.375 13.296875 243.535156 12.425781 240.667969 C 11.554688 237.800781 10.757812 234.917969 10.03125 232.011719 C 9.300781 229.105469 8.644531 226.183594 8.0625 223.246094 C 7.476562 220.308594 6.964844 217.359375 6.527344 214.398438 C 6.085938 211.433594 5.71875 208.464844 5.425781 205.484375 C 5.132812 202.503906 4.914062 199.515625 4.765625 196.523438 C 4.621094 193.535156 4.546875 190.539062 4.546875 187.546875 C 4.546875 184.550781 4.621094 181.558594 4.765625 178.566406 C 4.914062 175.574219 5.132812 172.589844 5.425781 169.609375 C 5.71875 166.628906 6.085938 163.65625 6.527344 160.695312 C 6.964844 157.730469 7.476562 154.78125 8.0625 151.84375 C 8.644531 148.90625 9.300781 145.984375 10.03125 143.082031 C 10.757812 140.175781 11.554688 137.289062 12.425781 134.421875 C 13.296875 131.558594 14.234375 128.714844 15.242188 125.894531 C 16.253906 123.074219 17.328125 120.28125 18.476562 117.515625 C 19.621094 114.746094 20.835938 112.011719 22.117188 109.304688 C 23.394531 106.597656 24.742188 103.921875 26.152344 101.28125 C 27.566406 98.640625 29.042969 96.035156 30.582031 93.464844 C 32.121094 90.894531 33.722656 88.367188 35.386719 85.875 C 37.050781 83.386719 38.773438 80.9375 40.558594 78.53125 C 42.34375 76.128906 44.183594 73.765625 46.085938 71.453125 C 47.984375 69.136719 49.941406 66.871094 51.953125 64.652344 C 53.964844 62.429688 56.027344 60.261719 58.144531 58.144531 C 60.261719 56.027344 62.429688 53.964844 64.652344 51.953125 C 66.871094 49.941406 69.136719 47.984375 71.453125 46.085938 C 73.765625 44.183594 76.128906 42.34375 78.53125 40.558594 C 80.9375 38.773438 83.386719 37.050781 85.875 35.386719 C 88.367188 33.722656 90.894531 32.121094 93.464844 30.582031 C 96.035156 29.042969 98.640625 27.566406 101.28125 26.152344 C 103.921875 24.742188 106.597656 23.394531 109.304688 22.117188 C 112.011719 20.835938 114.746094 19.621094 117.515625 18.476562 C 120.28125 17.328125 123.074219 16.253906 125.894531 15.242188 C 128.714844 14.234375 131.558594 13.296875 134.421875 12.425781 C 137.289062 11.554688 140.175781 10.757812 143.082031 10.03125 C 145.984375 9.300781 148.90625 8.644531 151.84375 8.0625 C 154.78125 7.476562 157.730469 6.964844 160.695312 6.527344 C 163.65625 6.085938 166.628906 5.71875 169.609375 5.425781 C 172.589844 5.132812 175.574219 4.914062 178.566406 4.765625 C 181.558594 4.621094 184.550781 4.546875 187.546875 4.546875 C 190.539062 4.546875 193.535156 4.621094 196.523438 4.765625 C 199.515625 4.914062 202.503906 5.132812 205.484375 5.425781 C 208.464844 5.71875 211.433594 6.085938 214.398438 6.527344 C 217.359375 6.964844 220.308594 7.476562 223.246094 8.0625 C 226.183594 8.644531 229.105469 9.300781 232.011719 10.03125 C 234.917969 10.757812 237.800781 11.554688 240.667969 12.425781 C 243.535156 13.296875 246.375 14.234375 249.195312 15.242188 C 252.015625 16.253906 254.808594 17.328125 257.578125 18.476562 C 260.34375 19.621094 263.082031 20.835938 265.789062 22.117188 C 268.496094 23.394531 271.171875 24.742188 273.8125 26.152344 C 276.453125 27.566406 279.058594 29.042969 281.625 30.582031 C 284.195312 32.121094 286.726562 33.722656 289.214844 35.386719 C 291.707031 37.050781 294.152344 38.773438 296.558594 40.558594 C 298.964844 42.34375 301.324219 44.183594 303.640625 46.085938 C 305.953125 47.984375 308.222656 49.941406 310.441406 51.953125 C 312.660156 53.964844 314.828125 56.027344 316.945312 58.144531 C 319.0625 60.261719 321.128906 62.429688 323.140625 64.652344 C 325.152344 66.871094 327.105469 69.136719 329.007812 71.453125 C 330.90625 73.765625 332.75 76.128906 334.53125 78.53125 C 336.316406 80.9375 338.039062 83.386719 339.703125 85.875 C 341.367188 88.367188 342.96875 90.894531 344.511719 93.464844 C 346.050781 96.035156 347.527344 98.640625 348.9375 101.28125 C 350.347656 103.921875 351.695312 106.597656 352.976562 109.304688 C 354.257812 112.011719 355.46875 114.746094 356.617188 117.515625 C 357.761719 120.28125 358.839844 123.074219 359.847656 125.894531 C 360.855469 128.714844 361.796875 131.558594 362.664062 134.421875 C 363.535156 137.289062 364.332031 140.175781 365.0625 143.082031 C 365.789062 145.984375 366.445312 148.90625 367.03125 151.84375 C 367.613281 154.78125 368.125 157.730469 368.566406 160.695312 C 369.003906 163.65625 369.371094 166.628906 369.664062 169.609375 C 369.957031 172.589844 370.179688 175.574219 370.324219 178.566406 C 370.472656 181.558594 370.546875 184.550781 370.546875 187.546875 Z M 370.546875 187.546875 " fill-opacity="1" fill-rule="nonzero"/></g><path fill="#ffffff" d="M 187.546875 353.089844 C 96.183594 353.089844 22 278.910156 22 187.546875 C 22 96.183594 96.183594 22 187.546875 22 C 278.910156 22 353.089844 96.183594 353.089844 187.546875 C 353.089844 278.910156 278.910156 353.089844 187.546875 353.089844 Z M 187.546875 26.089844 C 98.363281 26.089844 26.089844 98.363281 26.089844 187.546875 C 26.089844 276.726562 98.636719 349 187.546875 349 C 276.726562 349 349 276.453125 349 187.546875 C 349 98.363281 276.726562 26.089844 187.546875 26.089844 Z M 187.546875 26.089844 " fill-opacity="1" fill-rule="nonzero"/><path fill="#ffffff" d="M 125.3125 213.257812 C 125.992188 213.257812 126.667969 213.222656 127.34375 213.15625 C 128.019531 213.089844 128.691406 212.992188 129.359375 212.859375 C 130.023438 212.726562 130.683594 212.558594 131.332031 212.363281 C 131.984375 212.164062 132.621094 211.9375 133.25 211.675781 C 133.878906 211.417969 134.492188 211.125 135.089844 210.804688 C 135.6875 210.484375 136.269531 210.136719 136.835938 209.757812 C 137.398438 209.378906 137.945312 208.976562 138.46875 208.542969 C 138.996094 208.113281 139.5 207.65625 139.980469 207.175781 C 140.460938 206.695312 140.914062 206.191406 141.34375 205.664062 C 141.777344 205.140625 142.179688 204.59375 142.558594 204.027344 C 142.9375 203.460938 143.285156 202.878906 143.605469 202.28125 C 143.925781 201.679688 144.214844 201.066406 144.476562 200.4375 C 144.734375 199.808594 144.964844 199.167969 145.160156 198.519531 C 145.359375 197.867188 145.523438 197.210938 145.65625 196.542969 C 145.789062 195.875 145.886719 195.203125 145.953125 194.527344 C 146.019531 193.847656 146.054688 193.171875 146.054688 192.492188 C 146.054688 191.8125 146.019531 191.132812 145.953125 190.457031 C 145.886719 189.777344 145.789062 189.105469 145.65625 188.441406 C 145.523438 187.773438 145.359375 187.113281 145.160156 186.460938 C 144.964844 185.8125 144.734375 185.171875 144.476562 184.542969 C 144.214844 183.914062 143.925781 183.300781 143.605469 182.703125 C 143.285156 182.101562 142.9375 181.519531 142.558594 180.953125 C 142.179688 180.386719 141.777344 179.84375 141.34375 179.316406 C 140.914062 178.792969 140.460938 178.289062 139.980469 177.808594 C 139.5 177.324219 138.996094 176.871094 138.46875 176.4375 C 137.945312 176.007812 137.398438 175.601562 136.835938 175.222656 C 136.269531 174.847656 135.6875 174.496094 135.089844 174.175781 C 134.492188 173.855469 133.878906 173.566406 133.25 173.304688 C 132.621094 173.042969 131.984375 172.816406 131.332031 172.617188 C 130.683594 172.421875 130.023438 172.257812 129.359375 172.125 C 128.691406 171.992188 128.019531 171.890625 127.34375 171.824219 C 126.667969 171.757812 125.992188 171.722656 125.3125 171.722656 C 124.632812 171.722656 123.953125 171.757812 123.277344 171.824219 C 122.601562 171.890625 121.929688 171.992188 121.265625 172.125 C 120.597656 172.257812 119.941406 172.421875 119.289062 172.617188 C 118.640625 172.816406 118 173.042969 117.375 173.304688 C 116.746094 173.566406 116.132812 173.855469 115.535156 174.175781 C 114.933594 174.496094 114.351562 174.847656 113.789062 175.222656 C 113.222656 175.601562 112.679688 176.007812 112.152344 176.4375 C 111.628906 176.871094 111.125 177.324219 110.644531 177.808594 C 110.164062 178.289062 109.707031 178.792969 109.277344 179.316406 C 108.847656 179.84375 108.441406 180.386719 108.066406 180.953125 C 107.6875 181.519531 107.339844 182.101562 107.019531 182.703125 C 106.699219 183.300781 106.410156 183.914062 106.148438 184.542969 C 105.886719 185.171875 105.660156 185.8125 105.460938 186.460938 C 105.265625 187.113281 105.101562 187.773438 104.96875 188.441406 C 104.835938 189.105469 104.734375 189.777344 104.667969 190.457031 C 104.601562 191.132812 104.570312 191.8125 104.570312 192.492188 C 104.570312 193.171875 104.601562 193.847656 104.667969 194.527344 C 104.734375 195.203125 104.835938 195.875 104.96875 196.542969 C 105.101562 197.210938 105.265625 197.867188 105.460938 198.519531 C 105.660156 199.167969 105.886719 199.808594 106.148438 200.4375 C 106.410156 201.066406 106.699219 201.679688 107.019531 202.28125 C 107.339844 202.878906 107.6875 203.460938 108.066406 204.027344 C 108.441406 204.59375 108.847656 205.140625 109.277344 205.664062 C 109.707031 206.191406 110.164062 206.695312 110.644531 207.175781 C 111.125 207.65625 111.628906 208.113281 112.152344 208.542969 C 112.679688 208.976562 113.222656 209.378906 113.789062 209.757812 C 114.351562 210.136719 114.933594 210.484375 115.535156 210.804688 C 116.132812 211.125 116.746094 211.417969 117.375 211.675781 C 118 211.9375 118.640625 212.164062 119.289062 212.363281 C 119.941406 212.558594 120.597656 212.726562 121.265625 212.859375 C 121.929688 212.992188 122.601562 213.089844 123.277344 213.15625 C 123.953125 213.222656 124.632812 213.257812 125.3125 213.257812 Z M 125.3125 178.648438 C 126.21875 178.648438 127.117188 178.734375 128.007812 178.914062 C 128.898438 179.089844 129.765625 179.351562 130.601562 179.699219 C 131.441406 180.046875 132.238281 180.476562 132.996094 180.980469 C 133.75 181.484375 134.449219 182.058594 135.089844 182.703125 C 135.730469 183.34375 136.304688 184.042969 136.808594 184.800781 C 137.3125 185.554688 137.738281 186.351562 138.085938 187.191406 C 138.433594 188.03125 138.695312 188.898438 138.875 189.789062 C 139.050781 190.679688 139.140625 191.582031 139.140625 192.492188 C 139.140625 193.398438 139.050781 194.300781 138.875 195.191406 C 138.695312 196.082031 138.433594 196.949219 138.085938 197.789062 C 137.738281 198.628906 137.3125 199.425781 136.808594 200.183594 C 136.304688 200.9375 135.730469 201.636719 135.089844 202.28125 C 134.449219 202.921875 133.75 203.496094 132.996094 204 C 132.238281 204.507812 131.441406 204.933594 130.601562 205.28125 C 129.765625 205.628906 128.898438 205.890625 128.007812 206.070312 C 127.117188 206.246094 126.21875 206.335938 125.3125 206.335938 C 124.402344 206.335938 123.503906 206.246094 122.613281 206.070312 C 121.722656 205.890625 120.859375 205.628906 120.019531 205.28125 C 119.179688 204.933594 118.382812 204.507812 117.628906 204 C 116.875 203.496094 116.175781 202.921875 115.535156 202.28125 C 114.890625 201.636719 114.320312 200.9375 113.8125 200.183594 C 113.308594 199.425781 112.882812 198.628906 112.535156 197.789062 C 112.1875 196.949219 111.925781 196.082031 111.75 195.191406 C 111.570312 194.300781 111.484375 193.398438 111.484375 192.492188 C 111.484375 191.582031 111.570312 190.679688 111.75 189.789062 C 111.925781 188.898438 112.1875 188.03125 112.535156 187.191406 C 112.882812 186.351562 113.308594 185.554688 113.8125 184.800781 C 114.320312 184.042969 114.890625 183.34375 115.535156 182.703125 C 116.175781 182.058594 116.875 181.484375 117.628906 180.980469 C 118.382812 180.476562 119.179688 180.046875 120.019531 179.699219 C 120.859375 179.351562 121.722656 179.089844 122.613281 178.914062 C 123.503906 178.734375 124.402344 178.648438 125.3125 178.648438 Z M 125.3125 178.648438 " fill-opacity="1" fill-rule="nonzero"/><path fill="#ffffff" d="M 249.765625 213.257812 C 250.445312 213.257812 251.121094 213.222656 251.796875 213.15625 C 252.472656 213.089844 253.144531 212.992188 253.8125 212.859375 C 254.476562 212.726562 255.136719 212.558594 255.785156 212.363281 C 256.4375 212.164062 257.074219 211.9375 257.703125 211.675781 C 258.332031 211.417969 258.945312 211.125 259.542969 210.804688 C 260.140625 210.484375 260.722656 210.136719 261.289062 209.757812 C 261.851562 209.378906 262.398438 208.976562 262.921875 208.542969 C 263.449219 208.113281 263.953125 207.65625 264.433594 207.175781 C 264.914062 206.695312 265.367188 206.191406 265.796875 205.664062 C 266.230469 205.140625 266.632812 204.59375 267.011719 204.027344 C 267.390625 203.460938 267.738281 202.878906 268.058594 202.28125 C 268.378906 201.679688 268.667969 201.066406 268.929688 200.4375 C 269.1875 199.808594 269.417969 199.167969 269.613281 198.519531 C 269.8125 197.867188 269.976562 197.210938 270.109375 196.542969 C 270.242188 195.875 270.339844 195.203125 270.40625 194.527344 C 270.472656 193.847656 270.507812 193.171875 270.507812 192.492188 C 270.507812 191.8125 270.472656 191.132812 270.40625 190.457031 C 270.339844 189.777344 270.242188 189.105469 270.109375 188.441406 C 269.976562 187.773438 269.8125 187.113281 269.613281 186.460938 C 269.417969 185.8125 269.1875 185.171875 268.929688 184.542969 C 268.667969 183.914062 268.378906 183.300781 268.058594 182.703125 C 267.738281 182.101562 267.390625 181.519531 267.011719 180.953125 C 266.632812 180.386719 266.230469 179.84375 265.796875 179.316406 C 265.367188 178.792969 264.914062 178.289062 264.433594 177.808594 C 263.953125 177.324219 263.449219 176.871094 262.921875 176.4375 C 262.398438 176.007812 261.851562 175.601562 261.289062 175.222656 C 260.722656 174.847656 260.140625 174.496094 259.542969 174.175781 C 258.945312 173.855469 258.332031 173.566406 257.703125 173.304688 C 257.074219 173.042969 256.4375 172.816406 255.785156 172.617188 C 255.136719 172.421875 254.476562 172.257812 253.8125 172.125 C 253.144531 171.992188 252.472656 171.890625 251.796875 171.824219 C 251.121094 171.757812 250.445312 171.722656 249.765625 171.722656 C 249.085938 171.722656 248.40625 171.757812 247.730469 171.824219 C 247.054688 171.890625 246.382812 171.992188 245.71875 172.125 C 245.050781 172.257812 244.394531 172.421875 243.742188 172.617188 C 243.09375 172.816406 242.453125 173.042969 241.828125 173.304688 C 241.199219 173.566406 240.585938 173.855469 239.988281 174.175781 C 239.386719 174.496094 238.804688 174.847656 238.242188 175.222656 C 237.675781 175.601562 237.132812 176.007812 236.605469 176.4375 C 236.082031 176.871094 235.578125 177.324219 235.097656 177.808594 C 234.617188 178.289062 234.160156 178.792969 233.730469 179.316406 C 233.300781 179.84375 232.894531 180.386719 232.519531 180.953125 C 232.140625 181.519531 231.792969 182.101562 231.472656 182.703125 C 231.152344 183.300781 230.863281 183.914062 230.601562 184.542969 C 230.339844 185.171875 230.113281 185.8125 229.914062 186.460938 C 229.71875 187.113281 229.554688 187.773438 229.421875 188.441406 C 229.289062 189.105469 229.1875 189.777344 229.121094 190.457031 C 229.054688 191.132812 229.023438 191.8125 229.023438 192.492188 C 229.023438 193.171875 229.054688 193.847656 229.121094 194.527344 C 229.1875 195.203125 229.289062 195.875 229.421875 196.542969 C 229.554688 197.210938 229.71875 197.867188 229.914062 198.519531 C 230.113281 199.167969 230.339844 199.808594 230.601562 200.4375 C 230.863281 201.066406 231.152344 201.679688 231.472656 202.28125 C 231.792969 202.878906 232.140625 203.460938 232.519531 204.027344 C 232.894531 204.59375 233.300781 205.140625 233.730469 205.664062 C 234.160156 206.191406 234.617188 206.695312 235.097656 207.175781 C 235.578125 207.65625 236.082031 208.113281 236.605469 208.542969 C 237.132812 208.976562 237.675781 209.378906 238.242188 209.757812 C 238.804688 210.136719 239.386719 210.484375 239.988281 210.804688 C 240.585938 211.125 241.199219 211.417969 241.828125 211.675781 C 242.453125 211.9375 243.09375 212.164062 243.742188 212.363281 C 244.394531 212.558594 245.050781 212.726562 245.71875 212.859375 C 246.382812 212.992188 247.054688 213.089844 247.730469 213.15625 C 248.40625 213.222656 249.085938 213.257812 249.765625 213.257812 Z M 249.765625 178.648438 C 250.671875 178.648438 251.570312 178.734375 252.460938 178.914062 C 253.351562 179.089844 254.21875 179.351562 255.054688 179.699219 C 255.894531 180.046875 256.691406 180.476562 257.449219 180.980469 C 258.203125 181.484375 258.902344 182.058594 259.542969 182.703125 C 260.183594 183.34375 260.757812 184.042969 261.261719 184.800781 C 261.765625 185.554688 262.191406 186.351562 262.539062 187.191406 C 262.886719 188.03125 263.148438 188.898438 263.328125 189.789062 C 263.503906 190.679688 263.59375 191.582031 263.59375 192.492188 C 263.59375 193.398438 263.503906 194.300781 263.328125 195.191406 C 263.148438 196.082031 262.886719 196.949219 262.539062 197.789062 C 262.191406 198.628906 261.765625 199.425781 261.261719 200.183594 C 260.757812 200.9375 260.183594 201.636719 259.542969 202.28125 C 258.902344 202.921875 258.203125 203.496094 257.449219 204 C 256.691406 204.507812 255.894531 204.933594 255.054688 205.28125 C 254.21875 205.628906 253.351562 205.890625 252.460938 206.070312 C 251.570312 206.246094 250.671875 206.335938 249.765625 206.335938 C 248.855469 206.335938 247.957031 206.246094 247.066406 206.070312 C 246.175781 205.890625 245.3125 205.628906 244.472656 205.28125 C 243.632812 204.933594 242.835938 204.507812 242.082031 204 C 241.328125 203.496094 240.628906 202.921875 239.988281 202.28125 C 239.34375 201.636719 238.773438 200.9375 238.265625 200.183594 C 237.761719 199.425781 237.335938 198.628906 236.988281 197.789062 C 236.640625 196.949219 236.378906 196.082031 236.203125 195.191406 C 236.023438 194.300781 235.9375 193.398438 235.9375 192.492188 C 235.9375 191.582031 236.023438 190.679688 236.203125 189.789062 C 236.378906 188.898438 236.640625 188.03125 236.988281 187.191406 C 237.335938 186.351562 237.761719 185.554688 238.265625 184.800781 C 238.773438 184.042969 239.34375 183.34375 239.988281 182.703125 C 240.628906 182.058594 241.328125 181.484375 242.082031 180.980469 C 242.835938 180.476562 243.632812 180.046875 244.472656 179.699219 C 245.3125 179.351562 246.175781 179.089844 247.066406 178.914062 C 247.957031 178.734375 248.855469 178.648438 249.765625 178.648438 Z M 249.765625 178.648438 " fill-opacity="1" fill-rule="nonzero"/><g clip-path="url(#id2)"><path fill="#ffffff" d="M 294.707031 275.554688 L 285.371094 275.554688 C 286.140625 274.566406 286.734375 273.476562 287.148438 272.292969 C 287.5625 271.109375 287.777344 269.890625 287.792969 268.632812 L 287.792969 237.484375 C 287.792969 226.027344 276.9375 216.71875 263.59375 216.71875 L 235.9375 216.71875 C 223.976562 216.71875 214.019531 224.230469 212.117188 234.023438 L 197.910156 234.023438 C 197.378906 234.019531 196.871094 234.136719 196.390625 234.367188 C 195.914062 234.597656 195.507812 234.921875 195.179688 235.339844 C 194.851562 235.761719 194.632812 236.234375 194.523438 236.753906 C 194.414062 237.277344 194.425781 237.796875 194.554688 238.316406 L 203.855469 275.554688 L 171.222656 275.554688 L 180.625 238.316406 C 180.753906 237.796875 180.765625 237.277344 180.65625 236.753906 C 180.546875 236.234375 180.328125 235.761719 180 235.339844 C 179.660156 234.90625 179.242188 234.574219 178.742188 234.34375 C 178.242188 234.109375 177.71875 234.003906 177.167969 234.023438 L 162.957031 234.023438 C 161.058594 224.230469 151.101562 216.71875 139.140625 216.71875 L 111.484375 216.71875 C 98.140625 216.71875 87.285156 226.027344 87.285156 237.484375 L 87.285156 268.632812 C 87.300781 269.890625 87.515625 271.109375 87.929688 272.292969 C 88.34375 273.476562 88.933594 274.566406 89.703125 275.554688 L 80.371094 275.554688 C 79.910156 275.554688 79.472656 275.644531 79.046875 275.820312 C 78.625 275.996094 78.25 276.246094 77.925781 276.570312 C 77.601562 276.894531 77.351562 277.269531 77.175781 277.691406 C 77 278.117188 76.914062 278.558594 76.914062 279.019531 C 76.914062 279.476562 77 279.917969 77.175781 280.34375 C 77.351562 280.765625 77.601562 281.140625 77.925781 281.464844 C 78.25 281.789062 78.625 282.039062 79.046875 282.214844 C 79.472656 282.390625 79.910156 282.480469 80.371094 282.480469 L 294.707031 282.480469 C 295.164062 282.480469 295.605469 282.390625 296.027344 282.214844 C 296.453125 282.039062 296.828125 281.789062 297.152344 281.464844 C 297.476562 281.140625 297.726562 280.765625 297.898438 280.34375 C 298.074219 279.917969 298.164062 279.476562 298.164062 279.019531 C 298.164062 278.558594 298.074219 278.117188 297.898438 277.691406 C 297.726562 277.269531 297.476562 276.894531 297.152344 276.570312 C 296.828125 276.246094 296.453125 275.996094 296.027344 275.820312 C 295.605469 275.644531 295.164062 275.554688 294.707031 275.554688 Z M 135.683594 275.554688 L 104.570312 275.554688 C 98.933594 275.554688 94.199219 272.371094 94.199219 268.632812 L 94.199219 237.484375 C 94.199219 229.835938 101.941406 223.640625 111.484375 223.640625 L 139.140625 223.640625 C 140.011719 223.589844 140.882812 223.605469 141.75 223.6875 C 142.621094 223.773438 143.480469 223.921875 144.324219 224.136719 C 145.171875 224.351562 145.996094 224.632812 146.800781 224.976562 C 147.605469 225.320312 148.375 225.722656 149.117188 226.183594 C 149.859375 226.644531 150.5625 227.160156 151.222656 227.730469 C 151.886719 228.300781 152.5 228.917969 153.066406 229.585938 C 153.632812 230.25 154.148438 230.953125 154.605469 231.699219 C 155.0625 232.441406 155.464844 233.21875 155.800781 234.023438 L 128.769531 234.023438 C 128.375 234.011719 127.988281 234.066406 127.613281 234.1875 C 127.234375 234.308594 126.890625 234.488281 126.578125 234.726562 C 126.261719 234.96875 125.996094 235.25 125.777344 235.582031 C 125.5625 235.914062 125.40625 236.269531 125.3125 236.652344 L 119.160156 261.710938 L 111.484375 261.710938 L 111.484375 251.328125 C 111.484375 250.871094 111.394531 250.429688 111.21875 250.003906 C 111.046875 249.582031 110.796875 249.207031 110.472656 248.882812 C 110.148438 248.558594 109.773438 248.308594 109.347656 248.132812 C 108.925781 247.957031 108.484375 247.867188 108.027344 247.867188 C 107.566406 247.867188 107.128906 247.957031 106.703125 248.132812 C 106.28125 248.308594 105.90625 248.558594 105.582031 248.882812 C 105.257812 249.207031 105.007812 249.582031 104.832031 250.003906 C 104.65625 250.429688 104.570312 250.871094 104.570312 251.328125 L 104.570312 265.171875 C 104.570312 265.632812 104.65625 266.074219 104.832031 266.496094 C 105.007812 266.921875 105.257812 267.296875 105.582031 267.621094 C 105.90625 267.945312 106.28125 268.195312 106.703125 268.371094 C 107.128906 268.546875 107.566406 268.632812 108.027344 268.632812 L 145.464844 268.632812 C 145.109375 269.648438 144.605469 270.582031 143.957031 271.4375 C 143.3125 272.292969 142.550781 273.03125 141.671875 273.652344 C 140.796875 274.273438 139.847656 274.746094 138.824219 275.070312 C 137.804688 275.394531 136.753906 275.558594 135.683594 275.554688 Z M 164.101562 275.554688 L 149.511719 275.554688 C 150.640625 274.0625 151.503906 272.429688 152.09375 270.652344 C 152.6875 268.871094 152.976562 267.046875 152.96875 265.171875 C 152.96875 264.714844 152.878906 264.273438 152.703125 263.847656 C 152.53125 263.425781 152.28125 263.050781 151.957031 262.726562 C 151.632812 262.402344 151.257812 262.152344 150.832031 261.976562 C 150.410156 261.800781 149.96875 261.710938 149.511719 261.710938 L 126.28125 261.710938 L 131.464844 240.945312 L 172.742188 240.945312 Z M 210.976562 275.554688 L 202.335938 240.945312 L 243.609375 240.945312 L 248.796875 261.710938 L 225.566406 261.710938 C 225.105469 261.710938 224.667969 261.800781 224.242188 261.976562 C 223.820312 262.152344 223.445312 262.402344 223.121094 262.726562 C 222.796875 263.050781 222.546875 263.425781 222.371094 263.847656 C 222.195312 264.273438 222.109375 264.714844 222.109375 265.171875 C 222.097656 267.046875 222.390625 268.871094 222.980469 270.652344 C 223.574219 272.429688 224.433594 274.0625 225.566406 275.554688 Z M 280.878906 268.632812 C 280.878906 272.371094 276.140625 275.554688 270.507812 275.554688 L 239.394531 275.554688 C 238.320312 275.558594 237.273438 275.394531 236.25 275.070312 C 235.226562 274.746094 234.277344 274.273438 233.402344 273.652344 C 232.527344 273.03125 231.765625 272.292969 231.117188 271.4375 C 230.46875 270.582031 229.96875 269.648438 229.609375 268.632812 L 267.050781 268.632812 C 267.507812 268.632812 267.949219 268.546875 268.371094 268.371094 C 268.796875 268.195312 269.171875 267.945312 269.496094 267.621094 C 269.820312 267.296875 270.070312 266.921875 270.242188 266.496094 C 270.417969 266.074219 270.507812 265.632812 270.507812 265.171875 L 270.507812 251.328125 C 270.507812 250.871094 270.417969 250.429688 270.242188 250.003906 C 270.070312 249.582031 269.820312 249.207031 269.496094 248.882812 C 269.171875 248.558594 268.796875 248.308594 268.371094 248.132812 C 267.949219 247.957031 267.507812 247.867188 267.050781 247.867188 C 266.589844 247.867188 266.152344 247.957031 265.726562 248.132812 C 265.304688 248.308594 264.929688 248.558594 264.605469 248.882812 C 264.28125 249.207031 264.03125 249.582031 263.855469 250.003906 C 263.679688 250.429688 263.59375 250.871094 263.59375 251.328125 L 263.59375 261.710938 L 255.917969 261.710938 L 249.765625 236.652344 C 249.671875 236.269531 249.515625 235.914062 249.296875 235.582031 C 249.082031 235.253906 248.816406 234.96875 248.5 234.726562 C 248.1875 234.488281 247.839844 234.308594 247.464844 234.1875 C 247.089844 234.066406 246.703125 234.011719 246.308594 234.023438 L 219.273438 234.023438 C 219.613281 233.21875 220.011719 232.441406 220.472656 231.699219 C 220.929688 230.953125 221.441406 230.25 222.007812 229.585938 C 222.578125 228.917969 223.191406 228.300781 223.851562 227.730469 C 224.515625 227.160156 225.21875 226.644531 225.957031 226.183594 C 226.699219 225.722656 227.472656 225.320312 228.277344 224.976562 C 229.078125 224.632812 229.90625 224.351562 230.75 224.136719 C 231.597656 223.921875 232.457031 223.773438 233.324219 223.6875 C 234.195312 223.605469 235.066406 223.589844 235.9375 223.640625 L 263.59375 223.640625 C 273.132812 223.640625 280.878906 229.835938 280.878906 237.484375 Z M 280.878906 268.632812 " fill-opacity="1" fill-rule="nonzero"/></g><path fill="#ffffff" d="M 234.242188 133.652344 C 234.242188 132.632812 234.191406 131.613281 234.09375 130.597656 C 233.992188 129.585938 233.84375 128.578125 233.644531 127.574219 C 233.445312 126.574219 233.199219 125.585938 232.902344 124.609375 C 232.605469 123.632812 232.265625 122.675781 231.875 121.730469 C 231.484375 120.789062 231.050781 119.867188 230.570312 118.96875 C 230.089844 118.070312 229.566406 117.195312 229 116.347656 C 228.433594 115.5 227.828125 114.679688 227.179688 113.890625 C 226.535156 113.101562 225.851562 112.347656 225.128906 111.625 C 224.410156 110.90625 223.65625 110.222656 222.867188 109.574219 C 222.078125 108.925781 221.261719 108.320312 220.414062 107.753906 C 219.566406 107.1875 218.695312 106.660156 217.796875 106.179688 C 216.898438 105.699219 215.976562 105.265625 215.035156 104.875 C 214.09375 104.484375 213.136719 104.140625 212.160156 103.84375 C 211.1875 103.546875 210.199219 103.300781 209.199219 103.101562 C 208.199219 102.902344 207.191406 102.753906 206.179688 102.652344 C 205.164062 102.554688 204.148438 102.503906 203.128906 102.503906 C 199.777344 102.503906 196.515625 103.042969 193.347656 104.128906 C 192.554688 103.355469 191.726562 102.625 190.859375 101.9375 C 189.992188 101.25 189.089844 100.613281 188.15625 100.023438 C 187.21875 99.433594 186.253906 98.894531 185.261719 98.40625 C 184.269531 97.921875 183.253906 97.488281 182.214844 97.109375 C 181.175781 96.730469 180.121094 96.40625 179.046875 96.140625 C 177.972656 95.875 176.890625 95.667969 175.792969 95.515625 C 174.699219 95.367188 173.597656 95.273438 172.492188 95.242188 C 171.386719 95.210938 170.285156 95.234375 169.179688 95.320312 C 168.078125 95.40625 166.984375 95.550781 165.898438 95.75 C 164.808594 95.953125 163.734375 96.210938 162.675781 96.527344 C 161.617188 96.84375 160.578125 97.21875 159.558594 97.644531 C 158.539062 98.070312 157.542969 98.550781 156.574219 99.085938 C 155.605469 99.621094 154.667969 100.203125 153.761719 100.835938 C 152.855469 101.46875 151.984375 102.148438 151.148438 102.875 C 150.316406 103.601562 149.523438 104.371094 148.769531 105.183594 C 148.015625 105.996094 147.308594 106.84375 146.648438 107.730469 C 145.988281 108.617188 145.375 109.535156 144.808594 110.488281 C 144.246094 111.441406 143.734375 112.421875 143.273438 113.425781 C 142.8125 114.433594 142.410156 115.460938 142.058594 116.511719 C 141.707031 117.5625 141.414062 118.628906 141.179688 119.710938 C 140.941406 120.789062 140.761719 121.882812 140.640625 122.980469 C 140.523438 124.082031 140.460938 125.1875 140.457031 126.292969 C 140.453125 127.398438 140.511719 128.503906 140.625 129.605469 C 140.738281 130.707031 140.910156 131.796875 141.140625 132.878906 C 141.375 133.964844 141.660156 135.03125 142.003906 136.082031 C 142.351562 137.132812 142.75 138.164062 143.203125 139.175781 C 143.65625 140.183594 144.164062 141.164062 144.722656 142.121094 C 145.28125 143.078125 145.890625 144 146.546875 144.890625 C 147.203125 145.78125 147.90625 146.632812 148.652344 147.449219 C 149.402344 148.261719 150.191406 149.035156 151.019531 149.769531 C 151.851562 150.5 152.71875 151.183594 153.621094 151.820312 C 154.523438 152.460938 155.460938 153.050781 156.425781 153.589844 L 154.902344 164.316406 C 154.789062 164.992188 154.867188 165.640625 155.136719 166.269531 C 155.40625 166.894531 155.824219 167.398438 156.390625 167.777344 C 156.976562 168.171875 157.621094 168.367188 158.328125 168.367188 C 158.941406 168.371094 159.519531 168.222656 160.054688 167.917969 L 178.515625 157.328125 C 179.6875 157.074219 180.839844 156.75 181.972656 156.355469 C 184.035156 158.328125 186.328125 159.984375 188.847656 161.324219 C 191.363281 162.664062 194.015625 163.640625 196.804688 164.25 L 215.195312 174.734375 C 215.730469 175.039062 216.308594 175.191406 216.921875 175.183594 C 217.628906 175.1875 218.273438 174.992188 218.859375 174.597656 C 219.425781 174.21875 219.84375 173.714844 220.113281 173.085938 C 220.382812 172.460938 220.460938 171.808594 220.34375 171.136719 L 218.824219 160.40625 C 219.988281 159.726562 221.101562 158.972656 222.167969 158.148438 C 223.230469 157.324219 224.238281 156.433594 225.191406 155.476562 C 226.140625 154.519531 227.023438 153.507812 227.84375 152.4375 C 228.660156 151.367188 229.40625 150.246094 230.078125 149.078125 C 230.753906 147.910156 231.347656 146.703125 231.863281 145.457031 C 232.378906 144.210938 232.8125 142.9375 233.164062 141.636719 C 233.515625 140.335938 233.78125 139.015625 233.964844 137.679688 C 234.144531 136.34375 234.238281 135 234.242188 133.652344 Z M 176.511719 150.542969 C 176.136719 150.625 175.78125 150.75 175.4375 150.921875 L 162.613281 158.296875 L 163.339844 152.167969 C 163.375 151.816406 163.355469 151.464844 163.285156 151.117188 C 163.210938 150.773438 163.089844 150.441406 162.914062 150.132812 C 162.742188 149.824219 162.527344 149.546875 162.269531 149.304688 C 162.011719 149.0625 161.722656 148.863281 161.402344 148.707031 C 160.546875 148.296875 159.71875 147.835938 158.914062 147.324219 C 158.113281 146.816406 157.34375 146.257812 156.605469 145.660156 C 155.871094 145.058594 155.171875 144.414062 154.507812 143.730469 C 153.847656 143.046875 153.230469 142.328125 152.652344 141.574219 C 152.074219 140.816406 151.546875 140.027344 151.0625 139.210938 C 150.578125 138.390625 150.144531 137.546875 149.757812 136.675781 C 149.375 135.804688 149.042969 134.917969 148.761719 134.007812 C 148.480469 133.097656 148.257812 132.175781 148.085938 131.238281 C 147.914062 130.304688 147.796875 129.359375 147.738281 128.410156 C 147.675781 127.460938 147.671875 126.511719 147.722656 125.5625 C 147.777344 124.613281 147.882812 123.667969 148.046875 122.730469 C 148.207031 121.792969 148.425781 120.867188 148.695312 119.957031 C 148.96875 119.042969 149.292969 118.152344 149.667969 117.277344 C 150.042969 116.40625 150.46875 115.554688 150.945312 114.734375 C 151.421875 113.910156 151.945312 113.117188 152.515625 112.355469 C 153.085938 111.59375 153.695312 110.867188 154.351562 110.179688 C 155.007812 109.488281 155.699219 108.839844 156.429688 108.230469 C 157.164062 107.625 157.925781 107.0625 158.722656 106.542969 C 159.519531 106.027344 160.347656 105.558594 161.199219 105.136719 C 162.050781 104.71875 162.925781 104.347656 163.820312 104.03125 C 164.71875 103.714844 165.628906 103.449219 166.554688 103.242188 C 167.484375 103.03125 168.417969 102.875 169.363281 102.777344 C 170.308594 102.679688 171.257812 102.636719 172.207031 102.648438 C 173.15625 102.660156 174.105469 102.730469 175.046875 102.851562 C 175.988281 102.976562 176.921875 103.15625 177.839844 103.390625 C 178.761719 103.625 179.667969 103.910156 180.554688 104.253906 C 181.441406 104.59375 182.304688 104.984375 183.148438 105.425781 C 183.988281 105.871094 184.800781 106.359375 185.585938 106.898438 C 186.367188 107.4375 187.117188 108.019531 187.832031 108.648438 C 188.546875 109.273438 189.222656 109.941406 189.859375 110.648438 C 190.496094 111.355469 191.089844 112.097656 191.636719 112.871094 C 192.1875 113.648438 192.6875 114.453125 193.144531 115.289062 C 193.597656 116.125 194 116.984375 194.355469 117.867188 C 194.707031 118.753906 195.007812 119.652344 195.253906 120.570312 C 195.503906 121.492188 195.695312 122.421875 195.832031 123.363281 C 195.96875 124.304688 196.050781 125.25 196.078125 126.203125 C 196.105469 127.152344 196.074219 128.101562 195.988281 129.050781 C 195.90625 129.996094 195.765625 130.9375 195.566406 131.867188 C 195.371094 132.796875 195.121094 133.714844 194.816406 134.617188 C 194.515625 135.519531 194.160156 136.398438 193.75 137.257812 C 193.34375 138.117188 192.886719 138.949219 192.382812 139.757812 C 191.878906 140.5625 191.328125 141.335938 190.730469 142.074219 C 190.132812 142.816406 189.496094 143.519531 188.816406 144.1875 C 188.136719 144.851562 187.421875 145.476562 186.667969 146.054688 C 185.917969 146.636719 185.132812 147.171875 184.316406 147.660156 C 183.503906 148.148438 182.660156 148.589844 181.792969 148.976562 C 180.925781 149.367188 180.039062 149.703125 179.132812 149.988281 C 178.226562 150.273438 177.304688 150.503906 176.371094 150.679688 Z M 213.605469 155.492188 C 213.285156 155.644531 212.996094 155.84375 212.738281 156.089844 C 212.480469 156.332031 212.265625 156.609375 212.09375 156.917969 C 211.917969 157.226562 211.796875 157.554688 211.722656 157.902344 C 211.652344 158.25 211.632812 158.601562 211.667969 158.953125 L 212.53125 165.078125 L 199.707031 157.878906 C 199.367188 157.707031 199.007812 157.578125 198.636719 157.5 C 194.980469 156.785156 191.675781 155.296875 188.714844 153.035156 C 189.574219 152.484375 190.40625 151.894531 191.210938 151.265625 C 192.011719 150.632812 192.785156 149.964844 193.519531 149.257812 C 194.257812 148.550781 194.957031 147.808594 195.625 147.03125 C 196.289062 146.253906 196.914062 145.449219 197.496094 144.609375 C 198.082031 143.773438 198.625 142.90625 199.125 142.015625 C 199.625 141.125 200.078125 140.210938 200.488281 139.277344 C 200.898438 138.339844 201.261719 137.386719 201.578125 136.414062 C 201.894531 135.441406 202.164062 134.457031 202.382812 133.457031 C 202.601562 132.460938 202.773438 131.453125 202.894531 130.4375 C 203.015625 129.421875 203.085938 128.402344 203.105469 127.382812 C 203.125 126.359375 203.09375 125.339844 203.015625 124.320312 C 202.933594 123.300781 202.804688 122.289062 202.625 121.28125 C 202.445312 120.277344 202.21875 119.28125 201.941406 118.296875 C 201.664062 117.3125 201.335938 116.34375 200.964844 115.394531 C 200.59375 114.441406 200.171875 113.511719 199.710938 112.601562 C 199.246094 111.691406 198.738281 110.804688 198.1875 109.945312 C 199.816406 109.597656 201.464844 109.421875 203.128906 109.425781 C 204.488281 109.429688 205.835938 109.550781 207.175781 109.785156 C 208.515625 110.019531 209.824219 110.363281 211.105469 110.816406 C 212.386719 111.269531 213.621094 111.828125 214.808594 112.492188 C 215.996094 113.15625 217.121094 113.910156 218.179688 114.765625 C 219.238281 115.617188 220.21875 116.550781 221.121094 117.570312 C 222.023438 118.585938 222.835938 119.671875 223.554688 120.828125 C 224.273438 121.980469 224.890625 123.1875 225.410156 124.445312 C 225.925781 125.703125 226.332031 126.996094 226.632812 128.324219 C 226.929688 129.652344 227.117188 130.996094 227.1875 132.355469 C 227.261719 133.714844 227.21875 135.070312 227.066406 136.421875 C 226.910156 137.773438 226.644531 139.101562 226.265625 140.410156 C 225.886719 141.714844 225.398438 142.980469 224.808594 144.207031 C 224.214844 145.429688 223.523438 146.597656 222.738281 147.707031 C 221.949219 148.8125 221.074219 149.847656 220.109375 150.808594 C 219.148438 151.769531 218.113281 152.644531 217.003906 153.429688 C 215.894531 154.214844 214.726562 154.902344 213.5 155.492188 Z M 213.605469 155.492188 " fill-opacity="1" fill-rule="nonzero"/><path fill="#ffffff" d="M 166.832031 126.730469 C 166.832031 127.070312 166.796875 127.410156 166.730469 127.742188 C 166.664062 128.078125 166.566406 128.402344 166.4375 128.71875 C 166.304688 129.03125 166.144531 129.332031 165.957031 129.613281 C 165.765625 129.898438 165.550781 130.160156 165.3125 130.402344 C 165.070312 130.640625 164.808594 130.859375 164.527344 131.046875 C 164.242188 131.238281 163.945312 131.394531 163.628906 131.527344 C 163.316406 131.65625 162.992188 131.753906 162.65625 131.824219 C 162.324219 131.890625 161.984375 131.921875 161.644531 131.921875 C 161.304688 131.921875 160.96875 131.890625 160.632812 131.824219 C 160.300781 131.753906 159.976562 131.65625 159.660156 131.527344 C 159.347656 131.394531 159.046875 131.238281 158.765625 131.046875 C 158.480469 130.859375 158.21875 130.640625 157.976562 130.402344 C 157.738281 130.160156 157.523438 129.898438 157.332031 129.613281 C 157.144531 129.332031 156.984375 129.03125 156.855469 128.71875 C 156.722656 128.402344 156.625 128.078125 156.558594 127.742188 C 156.492188 127.410156 156.460938 127.070312 156.460938 126.730469 C 156.460938 126.390625 156.492188 126.050781 156.558594 125.71875 C 156.625 125.382812 156.722656 125.058594 156.855469 124.742188 C 156.984375 124.429688 157.144531 124.128906 157.332031 123.847656 C 157.523438 123.5625 157.738281 123.300781 157.976562 123.058594 C 158.21875 122.820312 158.480469 122.601562 158.765625 122.414062 C 159.046875 122.222656 159.347656 122.066406 159.660156 121.933594 C 159.976562 121.804688 160.300781 121.707031 160.632812 121.636719 C 160.96875 121.570312 161.304688 121.539062 161.644531 121.539062 C 161.984375 121.539062 162.324219 121.570312 162.65625 121.636719 C 162.992188 121.707031 163.316406 121.804688 163.628906 121.933594 C 163.945312 122.066406 164.242188 122.222656 164.527344 122.414062 C 164.808594 122.601562 165.070312 122.820312 165.3125 123.058594 C 165.550781 123.300781 165.765625 123.5625 165.957031 123.847656 C 166.144531 124.128906 166.304688 124.429688 166.4375 124.742188 C 166.566406 125.058594 166.664062 125.382812 166.730469 125.71875 C 166.796875 126.050781 166.832031 126.390625 166.832031 126.730469 Z M 166.832031 126.730469 " fill-opacity="1" fill-rule="nonzero"/><path fill="#ffffff" d="M 177.203125 126.730469 C 177.203125 127.070312 177.167969 127.410156 177.101562 127.742188 C 177.035156 128.078125 176.9375 128.402344 176.808594 128.71875 C 176.675781 129.03125 176.515625 129.332031 176.328125 129.613281 C 176.136719 129.898438 175.921875 130.160156 175.683594 130.402344 C 175.441406 130.640625 175.179688 130.859375 174.898438 131.046875 C 174.613281 131.238281 174.316406 131.394531 174 131.527344 C 173.6875 131.65625 173.363281 131.753906 173.027344 131.824219 C 172.695312 131.890625 172.355469 131.921875 172.015625 131.921875 C 171.675781 131.921875 171.339844 131.890625 171.003906 131.824219 C 170.671875 131.753906 170.347656 131.65625 170.03125 131.527344 C 169.71875 131.394531 169.417969 131.238281 169.136719 131.046875 C 168.851562 130.859375 168.589844 130.640625 168.347656 130.402344 C 168.109375 130.160156 167.894531 129.898438 167.703125 129.613281 C 167.515625 129.332031 167.355469 129.03125 167.226562 128.71875 C 167.09375 128.402344 166.996094 128.078125 166.929688 127.742188 C 166.863281 127.410156 166.832031 127.070312 166.832031 126.730469 C 166.832031 126.390625 166.863281 126.050781 166.929688 125.71875 C 166.996094 125.382812 167.09375 125.058594 167.226562 124.742188 C 167.355469 124.429688 167.515625 124.128906 167.703125 123.847656 C 167.894531 123.5625 168.109375 123.300781 168.347656 123.058594 C 168.589844 122.820312 168.851562 122.601562 169.136719 122.414062 C 169.417969 122.222656 169.71875 122.066406 170.03125 121.933594 C 170.347656 121.804688 170.671875 121.707031 171.003906 121.636719 C 171.339844 121.570312 171.675781 121.539062 172.015625 121.539062 C 172.355469 121.539062 172.695312 121.570312 173.027344 121.636719 C 173.363281 121.707031 173.6875 121.804688 174 121.933594 C 174.316406 122.066406 174.613281 122.222656 174.898438 122.414062 C 175.179688 122.601562 175.441406 122.820312 175.683594 123.058594 C 175.921875 123.300781 176.136719 123.5625 176.328125 123.847656 C 176.515625 124.128906 176.675781 124.429688 176.808594 124.742188 C 176.9375 125.058594 177.035156 125.382812 177.101562 125.71875 C 177.167969 126.050781 177.203125 126.390625 177.203125 126.730469 Z M 177.203125 126.730469 " fill-opacity="1" fill-rule="nonzero"/><path fill="#ffffff" d="M 187.574219 126.730469 C 187.574219 127.070312 187.539062 127.410156 187.472656 127.742188 C 187.40625 128.078125 187.308594 128.402344 187.179688 128.71875 C 187.046875 129.03125 186.886719 129.332031 186.699219 129.613281 C 186.507812 129.898438 186.292969 130.160156 186.054688 130.402344 C 185.8125 130.640625 185.550781 130.859375 185.269531 131.046875 C 184.984375 131.238281 184.6875 131.394531 184.371094 131.527344 C 184.058594 131.65625 183.734375 131.753906 183.398438 131.824219 C 183.066406 131.890625 182.726562 131.921875 182.386719 131.921875 C 182.046875 131.921875 181.710938 131.890625 181.375 131.824219 C 181.042969 131.753906 180.71875 131.65625 180.402344 131.527344 C 180.089844 131.394531 179.789062 131.238281 179.507812 131.046875 C 179.222656 130.859375 178.960938 130.640625 178.71875 130.402344 C 178.480469 130.160156 178.265625 129.898438 178.074219 129.613281 C 177.886719 129.332031 177.726562 129.03125 177.597656 128.71875 C 177.464844 128.402344 177.367188 128.078125 177.300781 127.742188 C 177.234375 127.410156 177.203125 127.070312 177.203125 126.730469 C 177.203125 126.390625 177.234375 126.050781 177.300781 125.71875 C 177.367188 125.382812 177.464844 125.058594 177.597656 124.742188 C 177.726562 124.429688 177.886719 124.128906 178.074219 123.847656 C 178.265625 123.5625 178.480469 123.300781 178.71875 123.058594 C 178.960938 122.820312 179.222656 122.601562 179.507812 122.414062 C 179.789062 122.222656 180.089844 122.066406 180.402344 121.933594 C 180.71875 121.804688 181.042969 121.707031 181.375 121.636719 C 181.710938 121.570312 182.046875 121.539062 182.386719 121.539062 C 182.726562 121.539062 183.066406 121.570312 183.398438 121.636719 C 183.734375 121.707031 184.058594 121.804688 184.371094 121.933594 C 184.6875 122.066406 184.984375 122.222656 185.269531 122.414062 C 185.550781 122.601562 185.8125 122.820312 186.054688 123.058594 C 186.292969 123.300781 186.507812 123.5625 186.699219 123.847656 C 186.886719 124.128906 187.046875 124.429688 187.179688 124.742188 C 187.308594 125.058594 187.40625 125.382812 187.472656 125.71875 C 187.539062 126.050781 187.574219 126.390625 187.574219 126.730469 Z M 187.574219 126.730469 " fill-opacity="1" fill-rule="nonzero"/></svg>