<svg xmlns="http://www.w3.org/2000/svg" xmlns:xlink="http://www.w3.org/1999/xlink" width="500" zoomAndPan="magnify" viewBox="0 0 375 374.999991" height="500" preserveAspectRatio="xMidYMid meet" version="1.0"><defs><clipPath id="id1"><path d="M 4.546875 4.546875 L 370.546875 4.546875 L 370.546875 370.546875 L 4.546875 370.546875 Z M 4.546875 4.546875 " clip-rule="nonzero"/></clipPath><clipPath id="id2"><path d="M 92 74.921875 L 211 74.921875 L 211 153 L 92 153 Z M 92 74.921875 " clip-rule="nonzero"/></clipPath><clipPath id="id3"><path d="M 164 222 L 283 222 L 283 299.921875 L 164 299.921875 Z M 164 222 " clip-rule="nonzero"/></clipPath><clipPath id="id4"><path d="M 222 92 L 299.921875 92 L 299.921875 211 L 222 211 Z M 222 92 " clip-rule="nonzero"/></clipPath><clipPath id="id5"><path d="M 74.921875 164 L 149 164 L 149 281 L 74.921875 281 Z M 74.921875 164 " clip-rule="nonzero"/></clipPath></defs><g clip-path="url(#id1)"><path fill="#05649c" d="M 370.546875 187.546875 C 370.546875 190.539062 370.472656 193.535156 370.324219 196.523438 C 370.179688 199.515625 369.957031 202.503906 369.664062 205.484375 C 369.371094 208.464844 369.003906 211.433594 368.566406 214.398438 C 368.125 217.359375 367.613281 220.308594 367.03125 223.246094 C 366.445312 226.183594 365.789062 229.105469 365.0625 232.011719 C 364.332031 234.917969 363.535156 237.800781 362.664062 240.667969 C 361.796875 243.535156 360.855469 246.375 359.847656 249.195312 C 358.839844 252.015625 357.761719 254.808594 356.617188 257.578125 C 355.46875 260.34375 354.257812 263.082031 352.976562 265.789062 C 351.695312 268.496094 350.347656 271.171875 348.9375 273.8125 C 347.527344 276.453125 346.050781 279.058594 344.511719 281.625 C 342.96875 284.195312 341.367188 286.726562 339.703125 289.214844 C 338.039062 291.707031 336.316406 294.152344 334.53125 296.558594 C 332.75 298.964844 330.90625 301.324219 329.007812 303.640625 C 327.105469 305.953125 325.152344 308.222656 323.140625 310.441406 C 321.128906 312.660156 319.0625 314.828125 316.945312 316.945312 C 314.828125 319.0625 312.660156 321.128906 310.441406 323.140625 C 308.222656 325.152344 305.953125 327.105469 303.640625 329.007812 C 301.324219 330.90625 298.964844 332.75 296.558594 334.53125 C 294.152344 336.316406 291.707031 338.039062 289.214844 339.703125 C 286.726562 341.367188 284.195312 342.96875 281.625 344.511719 C 279.058594 346.050781 276.453125 347.527344 273.8125 348.9375 C 271.171875 350.347656 268.496094 351.695312 265.789062 352.976562 C 263.082031 354.257812 260.34375 355.46875 257.578125 356.617188 C 254.808594 357.761719 252.015625 358.839844 249.195312 359.847656 C 246.375 360.855469 243.535156 361.796875 240.667969 362.664062 C 237.800781 363.535156 234.917969 364.332031 232.011719 365.0625 C 229.105469 365.789062 226.183594 366.445312 223.246094 367.03125 C 220.308594 367.613281 217.359375 368.125 214.398438 368.566406 C 211.433594 369.003906 208.464844 369.371094 205.484375 369.664062 C 202.503906 369.957031 199.515625 370.179688 196.523438 370.324219 C 193.535156 370.472656 190.539062 370.546875 187.546875 370.546875 C 184.550781 370.546875 181.558594 370.472656 178.566406 370.324219 C 175.574219 370.179688 172.589844 369.957031 169.609375 369.664062 C 166.628906 369.371094 163.65625 369.003906 160.695312 368.566406 C 157.730469 368.125 154.78125 367.613281 151.84375 367.03125 C 148.90625 366.445312 145.984375 365.789062 143.082031 365.0625 C 140.175781 364.332031 137.289062 363.535156 134.421875 362.664062 C 131.558594 361.796875 128.714844 360.855469 125.894531 359.847656 C 123.074219 358.839844 120.28125 357.761719 117.515625 356.617188 C 114.746094 355.46875 112.011719 354.257812 109.304688 352.976562 C 106.597656 351.695312 103.921875 350.347656 101.28125 348.9375 C 98.640625 347.527344 96.035156 346.050781 93.464844 344.511719 C 90.894531 342.96875 88.367188 341.367188 85.875 339.703125 C 83.386719 338.039062 80.9375 336.316406 78.53125 334.53125 C 76.128906 332.75 73.765625 330.90625 71.453125 329.007812 C 69.136719 327.105469 66.871094 325.152344 64.652344 323.140625 C 62.429688 321.128906 60.261719 319.0625 58.144531 316.945312 C 56.027344 314.828125 53.964844 312.660156 51.953125 310.441406 C 49.941406 308.222656 47.984375 305.953125 46.085938 303.640625 C 44.183594 301.324219 42.34375 298.964844 40.558594 296.558594 C 38.773438 294.152344 37.050781 291.707031 35.386719 289.214844 C 33.722656 286.726562 32.121094 284.195312 30.582031 281.625 C 29.042969 279.058594 27.566406 276.453125 26.152344 273.8125 C 24.742188 271.171875 23.394531 268.496094 22.117188 265.789062 C 20.835938 263.082031 19.621094 260.34375 18.476562 257.578125 C 17.328125 254.808594 16.253906 252.015625 15.242188 249.195312 C 14.234375 246.375 13.296875 243.535156 12.425781 240.667969 C 11.554688 237.800781 10.757812 234.917969 10.03125 232.011719 C 9.300781 229.105469 8.644531 226.183594 8.0625 223.246094 C 7.476562 220.308594 6.964844 217.359375 6.527344 214.398438 C 6.085938 211.433594 5.71875 208.464844 5.425781 205.484375 C 5.132812 202.503906 4.914062 199.515625 4.765625 196.523438 C 4.621094 193.535156 4.546875 190.539062 4.546875 187.546875 C 4.546875 184.550781 4.621094 181.558594 4.765625 178.566406 C 4.914062 175.574219 5.132812 172.589844 5.425781 169.609375 C 5.71875 166.628906 6.085938 163.65625 6.527344 160.695312 C 6.964844 157.730469 7.476562 154.78125 8.0625 151.84375 C 8.644531 148.90625 9.300781 145.984375 10.03125 143.082031 C 10.757812 140.175781 11.554688 137.289062 12.425781 134.421875 C 13.296875 131.558594 14.234375 128.714844 15.242188 125.894531 C 16.253906 123.074219 17.328125 120.28125 18.476562 117.515625 C 19.621094 114.746094 20.835938 112.011719 22.117188 109.304688 C 23.394531 106.597656 24.742188 103.921875 26.152344 101.28125 C 27.566406 98.640625 29.042969 96.035156 30.582031 93.464844 C 32.121094 90.894531 33.722656 88.367188 35.386719 85.875 C 37.050781 83.386719 38.773438 80.9375 40.558594 78.53125 C 42.34375 76.128906 44.183594 73.765625 46.085938 71.453125 C 47.984375 69.136719 49.941406 66.871094 51.953125 64.652344 C 53.964844 62.429688 56.027344 60.261719 58.144531 58.144531 C 60.261719 56.027344 62.429688 53.964844 64.652344 51.953125 C 66.871094 49.941406 69.136719 47.984375 71.453125 46.085938 C 73.765625 44.183594 76.128906 42.34375 78.53125 40.558594 C 80.9375 38.773438 83.386719 37.050781 85.875 35.386719 C 88.367188 33.722656 90.894531 32.121094 93.464844 30.582031 C 96.035156 29.042969 98.640625 27.566406 101.28125 26.152344 C 103.921875 24.742188 106.597656 23.394531 109.304688 22.117188 C 112.011719 20.835938 114.746094 19.621094 117.515625 18.476562 C 120.28125 17.328125 123.074219 16.253906 125.894531 15.242188 C 128.714844 14.234375 131.558594 13.296875 134.421875 12.425781 C 137.289062 11.554688 140.175781 10.757812 143.082031 10.03125 C 145.984375 9.300781 148.90625 8.644531 151.84375 8.0625 C 154.78125 7.476562 157.730469 6.964844 160.695312 6.527344 C 163.65625 6.085938 166.628906 5.71875 169.609375 5.425781 C 172.589844 5.132812 175.574219 4.914062 178.566406 4.765625 C 181.558594 4.621094 184.550781 4.546875 187.546875 4.546875 C 190.539062 4.546875 193.535156 4.621094 196.523438 4.765625 C 199.515625 4.914062 202.503906 5.132812 205.484375 5.425781 C 208.464844 5.71875 211.433594 6.085938 214.398438 6.527344 C 217.359375 6.964844 220.308594 7.476562 223.246094 8.0625 C 226.183594 8.644531 229.105469 9.300781 232.011719 10.03125 C 234.917969 10.757812 237.800781 11.554688 240.667969 12.425781 C 243.535156 13.296875 246.375 14.234375 249.195312 15.242188 C 252.015625 16.253906 254.808594 17.328125 257.578125 18.476562 C 260.34375 19.621094 263.082031 20.835938 265.789062 22.117188 C 268.496094 23.394531 271.171875 24.742188 273.8125 26.152344 C 276.453125 27.566406 279.058594 29.042969 281.625 30.582031 C 284.195312 32.121094 286.726562 33.722656 289.214844 35.386719 C 291.707031 37.050781 294.152344 38.773438 296.558594 40.558594 C 298.964844 42.34375 301.324219 44.183594 303.640625 46.085938 C 305.953125 47.984375 308.222656 49.941406 310.441406 51.953125 C 312.660156 53.964844 314.828125 56.027344 316.945312 58.144531 C 319.0625 60.261719 321.128906 62.429688 323.140625 64.652344 C 325.152344 66.871094 327.105469 69.136719 329.007812 71.453125 C 330.90625 73.765625 332.75 76.128906 334.53125 78.53125 C 336.316406 80.9375 338.039062 83.386719 339.703125 85.875 C 341.367188 88.367188 342.96875 90.894531 344.511719 93.464844 C 346.050781 96.035156 347.527344 98.640625 348.9375 101.28125 C 350.347656 103.921875 351.695312 106.597656 352.976562 109.304688 C 354.257812 112.011719 355.46875 114.746094 356.617188 117.515625 C 357.761719 120.28125 358.839844 123.074219 359.847656 125.894531 C 360.855469 128.714844 361.796875 131.558594 362.664062 134.421875 C 363.535156 137.289062 364.332031 140.175781 365.0625 143.082031 C 365.789062 145.984375 366.445312 148.90625 367.03125 151.84375 C 367.613281 154.78125 368.125 157.730469 368.566406 160.695312 C 369.003906 163.65625 369.371094 166.628906 369.664062 169.609375 C 369.957031 172.589844 370.179688 175.574219 370.324219 178.566406 C 370.472656 181.558594 370.546875 184.550781 370.546875 187.546875 Z M 370.546875 187.546875 " fill-opacity="1" fill-rule="nonzero"/></g><path fill="#ffffff" d="M 187.546875 353.089844 C 96.183594 353.089844 22 278.910156 22 187.546875 C 22 96.183594 96.183594 22 187.546875 22 C 278.910156 22 353.089844 96.183594 353.089844 187.546875 C 353.089844 278.910156 278.910156 353.089844 187.546875 353.089844 Z M 187.546875 26.089844 C 98.363281 26.089844 26.089844 98.363281 26.089844 187.546875 C 26.089844 276.726562 98.636719 349 187.546875 349 C 276.726562 349 349 276.453125 349 187.546875 C 349 98.363281 276.726562 26.089844 187.546875 26.089844 Z M 187.546875 26.089844 " fill-opacity="1" fill-rule="nonzero"/><g clip-path="url(#id2)"><path fill="#ffffff" d="M 92.773438 152.507812 C 106.757812 114.59375 143.292969 88.121094 183.679688 86.632812 L 187.421875 86.5 L 187.421875 74.921875 L 210.695312 94.316406 L 187.421875 113.714844 L 187.421875 101.953125 L 183.359375 102.152344 C 151.066406 103.710938 122.777344 123.019531 109.515625 152.507812 L 92.773438 152.507812 " fill-opacity="1" fill-rule="nonzero"/></g><g clip-path="url(#id3)"><path fill="#ffffff" d="M 164.144531 280.523438 L 187.421875 261.128906 L 187.421875 272.886719 L 191.480469 272.691406 C 223.773438 271.128906 252.066406 251.824219 265.324219 222.335938 L 282.085938 222.335938 C 268.082031 260.25 231.546875 286.722656 191.164062 288.207031 L 187.421875 288.34375 L 187.421875 299.921875 C 187.421875 299.921875 164.144531 280.523438 164.144531 280.523438 " fill-opacity="1" fill-rule="nonzero"/></g><g clip-path="url(#id4)"><path fill="#ffffff" d="M 261.128906 187.421875 L 272.886719 187.421875 L 272.691406 183.359375 C 271.128906 151.066406 251.824219 122.777344 222.335938 109.515625 L 222.335938 92.757812 C 260.25 106.789062 286.722656 143.324219 288.207031 183.679688 L 288.34375 187.421875 L 299.921875 187.421875 L 280.523438 210.695312 C 280.507812 210.695312 261.128906 187.421875 261.128906 187.421875 " fill-opacity="1" fill-rule="nonzero"/></g><g clip-path="url(#id5)"><path fill="#ffffff" d="M 148.628906 280.539062 C 112.367188 265.402344 88.042969 230.320312 86.632812 191.164062 L 86.5 187.421875 L 74.921875 187.421875 L 94.316406 164.144531 L 113.714844 187.421875 L 101.953125 187.421875 L 102.152344 191.480469 C 103.621094 221.972656 121.425781 249.550781 148.644531 263.460938 L 148.628906 280.539062 " fill-opacity="1" fill-rule="nonzero"/></g><path fill="#ffffff" d="M 202.9375 187.421875 C 202.9375 195.996094 195.996094 202.9375 187.421875 202.9375 C 178.84375 202.9375 171.902344 195.996094 171.902344 187.421875 C 171.902344 178.84375 178.84375 171.902344 187.421875 171.902344 C 195.996094 171.902344 202.9375 178.84375 202.9375 187.421875 " fill-opacity="1" fill-rule="nonzero"/><path fill="#ffffff" d="M 187.421875 210.695312 C 174.585938 210.695312 164.144531 200.257812 164.144531 187.421875 C 164.144531 174.585938 174.585938 164.144531 187.421875 164.144531 C 200.257812 164.144531 210.695312 174.585938 210.695312 187.421875 C 210.695312 200.257812 200.257812 210.695312 187.421875 210.695312 Z M 237.851562 195.179688 L 237.851562 179.664062 L 224.972656 177.84375 C 224.046875 174.191406 222.609375 170.78125 220.742188 167.675781 L 228.578125 157.234375 L 217.605469 146.265625 L 207.164062 154.097656 C 204.058594 152.234375 200.648438 150.792969 196.996094 149.871094 L 195.179688 136.988281 L 179.664062 136.988281 L 177.84375 149.871094 C 174.191406 150.792969 170.78125 152.234375 167.675781 154.097656 L 157.234375 146.265625 L 146.265625 157.234375 L 154.097656 167.675781 C 152.234375 170.78125 150.792969 174.191406 149.871094 177.84375 L 136.988281 179.664062 L 136.988281 195.179688 L 149.871094 196.996094 C 150.792969 200.648438 152.234375 204.058594 154.097656 207.164062 L 146.265625 217.605469 L 157.234375 228.578125 L 167.675781 220.742188 C 170.78125 222.609375 174.191406 224.046875 177.84375 224.972656 L 179.664062 237.851562 L 195.179688 237.851562 L 196.996094 224.972656 C 200.648438 224.046875 204.058594 222.609375 207.164062 220.742188 L 217.605469 228.578125 L 228.578125 217.605469 L 220.742188 207.164062 C 222.609375 204.058594 224.046875 200.648438 224.972656 196.996094 L 237.851562 195.179688 " fill-opacity="1" fill-rule="nonzero"/></svg>