<svg xmlns="http://www.w3.org/2000/svg" xmlns:xlink="http://www.w3.org/1999/xlink" width="500" zoomAndPan="magnify" viewBox="0 0 375 374.999991" height="500" preserveAspectRatio="xMidYMid meet" version="1.0"><defs><clipPath id="id1"><path d="M 4.546875 4.546875 L 370.546875 4.546875 L 370.546875 370.546875 L 4.546875 370.546875 Z M 4.546875 4.546875 " clip-rule="nonzero"/></clipPath><clipPath id="id2"><path d="M 91.140625 114 L 143 114 L 143 149 L 91.140625 149 Z M 91.140625 114 " clip-rule="nonzero"/></clipPath><clipPath id="id3"><path d="M 103 91.140625 L 131 91.140625 L 131 119 L 103 119 Z M 103 91.140625 " clip-rule="nonzero"/></clipPath><clipPath id="id4"><path d="M 232 114 L 283.890625 114 L 283.890625 149 L 232 149 Z M 232 114 " clip-rule="nonzero"/></clipPath><clipPath id="id5"><path d="M 244 91.140625 L 272 91.140625 L 272 119 L 244 119 Z M 244 91.140625 " clip-rule="nonzero"/></clipPath><clipPath id="id6"><path d="M 91.140625 249 L 143 249 L 143 283.890625 L 91.140625 283.890625 Z M 91.140625 249 " clip-rule="nonzero"/></clipPath><clipPath id="id7"><path d="M 91.140625 174 L 98 174 L 98 184 L 91.140625 184 Z M 91.140625 174 " clip-rule="nonzero"/></clipPath><clipPath id="id8"><path d="M 91.140625 189 L 98 189 L 98 199 L 91.140625 199 Z M 91.140625 189 " clip-rule="nonzero"/></clipPath><clipPath id="id9"><path d="M 277 184 L 283.890625 184 L 283.890625 194 L 277 194 Z M 277 184 " clip-rule="nonzero"/></clipPath><clipPath id="id10"><path d="M 276 169 L 283.890625 169 L 283.890625 179 L 276 179 Z M 276 169 " clip-rule="nonzero"/></clipPath><clipPath id="id11"><path d="M 180 91.140625 L 190 91.140625 L 190 98 L 180 98 Z M 180 91.140625 " clip-rule="nonzero"/></clipPath><clipPath id="id12"><path d="M 195 91.140625 L 205 91.140625 L 205 99 L 195 99 Z M 195 91.140625 " clip-rule="nonzero"/></clipPath><clipPath id="id13"><path d="M 192 277 L 203 277 L 203 283.890625 L 192 283.890625 Z M 192 277 " clip-rule="nonzero"/></clipPath><clipPath id="id14"><path d="M 177 277 L 187 277 L 187 283.890625 L 177 283.890625 Z M 177 277 " clip-rule="nonzero"/></clipPath><clipPath id="id15"><path d="M 232 249 L 283.890625 249 L 283.890625 283.890625 L 232 283.890625 Z M 232 249 " clip-rule="nonzero"/></clipPath></defs><g clip-path="url(#id1)"><path fill="#05649c" d="M 370.546875 187.546875 C 370.546875 190.539062 370.472656 193.535156 370.324219 196.527344 C 370.179688 199.515625 369.957031 202.503906 369.664062 205.484375 C 369.371094 208.464844 369.003906 211.433594 368.566406 214.398438 C 368.125 217.359375 367.613281 220.308594 367.03125 223.246094 C 366.445312 226.183594 365.789062 229.105469 365.0625 232.011719 C 364.332031 234.917969 363.535156 237.800781 362.664062 240.667969 C 361.796875 243.535156 360.855469 246.378906 359.847656 249.195312 C 358.839844 252.015625 357.761719 254.808594 356.617188 257.578125 C 355.46875 260.34375 354.257812 263.082031 352.976562 265.789062 C 351.695312 268.496094 350.347656 271.171875 348.9375 273.8125 C 347.527344 276.453125 346.050781 279.058594 344.511719 281.625 C 342.96875 284.195312 341.367188 286.726562 339.703125 289.214844 C 338.039062 291.707031 336.316406 294.152344 334.53125 296.558594 C 332.75 298.964844 330.90625 301.324219 329.007812 303.640625 C 327.105469 305.953125 325.152344 308.222656 323.140625 310.441406 C 321.128906 312.660156 319.0625 314.828125 316.945312 316.945312 C 314.828125 319.0625 312.660156 321.128906 310.441406 323.140625 C 308.222656 325.152344 305.953125 327.105469 303.640625 329.007812 C 301.324219 330.90625 298.964844 332.75 296.558594 334.53125 C 294.152344 336.316406 291.707031 338.042969 289.214844 339.703125 C 286.726562 341.367188 284.195312 342.96875 281.625 344.511719 C 279.058594 346.050781 276.453125 347.527344 273.8125 348.9375 C 271.171875 350.347656 268.496094 351.695312 265.789062 352.976562 C 263.082031 354.257812 260.34375 355.46875 257.578125 356.617188 C 254.808594 357.761719 252.015625 358.839844 249.195312 359.847656 C 246.375 360.859375 243.535156 361.796875 240.667969 362.667969 C 237.800781 363.535156 234.917969 364.335938 232.011719 365.0625 C 229.105469 365.789062 226.183594 366.445312 223.246094 367.03125 C 220.308594 367.613281 217.359375 368.125 214.398438 368.566406 C 211.433594 369.003906 208.464844 369.371094 205.484375 369.664062 C 202.503906 369.957031 199.515625 370.179688 196.523438 370.324219 C 193.535156 370.472656 190.539062 370.546875 187.546875 370.546875 C 184.550781 370.546875 181.558594 370.472656 178.566406 370.324219 C 175.574219 370.179688 172.589844 369.957031 169.609375 369.664062 C 166.628906 369.371094 163.65625 369.003906 160.695312 368.566406 C 157.730469 368.125 154.78125 367.613281 151.84375 367.03125 C 148.90625 366.445312 145.984375 365.789062 143.082031 365.0625 C 140.175781 364.335938 137.289062 363.535156 134.421875 362.667969 C 131.558594 361.796875 128.714844 360.859375 125.894531 359.847656 C 123.074219 358.839844 120.28125 357.761719 117.515625 356.617188 C 114.746094 355.46875 112.011719 354.257812 109.304688 352.976562 C 106.597656 351.695312 103.921875 350.347656 101.28125 348.9375 C 98.640625 347.527344 96.035156 346.050781 93.464844 344.511719 C 90.894531 342.96875 88.367188 341.367188 85.875 339.703125 C 83.386719 338.039062 80.9375 336.316406 78.53125 334.53125 C 76.128906 332.75 73.765625 330.90625 71.453125 329.007812 C 69.136719 327.105469 66.871094 325.152344 64.652344 323.140625 C 62.429688 321.128906 60.261719 319.0625 58.144531 316.945312 C 56.027344 314.828125 53.964844 312.660156 51.953125 310.441406 C 49.941406 308.222656 47.984375 305.953125 46.085938 303.640625 C 44.183594 301.324219 42.34375 298.964844 40.558594 296.558594 C 38.773438 294.152344 37.050781 291.707031 35.386719 289.214844 C 33.722656 286.726562 32.121094 284.195312 30.582031 281.625 C 29.042969 279.058594 27.566406 276.453125 26.152344 273.8125 C 24.742188 271.171875 23.394531 268.496094 22.117188 265.789062 C 20.835938 263.082031 19.621094 260.34375 18.476562 257.578125 C 17.328125 254.808594 16.253906 252.015625 15.242188 249.195312 C 14.234375 246.378906 13.296875 243.535156 12.425781 240.667969 C 11.554688 237.800781 10.757812 234.917969 10.03125 232.011719 C 9.300781 229.105469 8.644531 226.183594 8.0625 223.246094 C 7.476562 220.308594 6.964844 217.359375 6.527344 214.398438 C 6.085938 211.433594 5.71875 208.464844 5.425781 205.484375 C 5.132812 202.503906 4.914062 199.515625 4.765625 196.527344 C 4.621094 193.535156 4.546875 190.539062 4.546875 187.546875 C 4.546875 184.550781 4.621094 181.558594 4.765625 178.566406 C 4.914062 175.574219 5.132812 172.589844 5.425781 169.609375 C 5.71875 166.628906 6.085938 163.65625 6.527344 160.695312 C 6.964844 157.730469 7.476562 154.78125 8.0625 151.84375 C 8.644531 148.90625 9.300781 145.984375 10.03125 143.082031 C 10.757812 140.175781 11.554688 137.289062 12.425781 134.425781 C 13.296875 131.558594 14.234375 128.714844 15.242188 125.894531 C 16.253906 123.074219 17.328125 120.28125 18.476562 117.515625 C 19.621094 114.746094 20.835938 112.011719 22.117188 109.304688 C 23.394531 106.597656 24.742188 103.921875 26.152344 101.28125 C 27.566406 98.640625 29.042969 96.035156 30.582031 93.464844 C 32.121094 90.894531 33.722656 88.367188 35.386719 85.875 C 37.050781 83.386719 38.773438 80.9375 40.558594 78.53125 C 42.34375 76.128906 44.183594 73.765625 46.085938 71.453125 C 47.984375 69.136719 49.941406 66.871094 51.953125 64.652344 C 53.964844 62.433594 56.027344 60.261719 58.144531 58.144531 C 60.261719 56.027344 62.429688 53.964844 64.652344 51.953125 C 66.871094 49.941406 69.136719 47.984375 71.453125 46.085938 C 73.765625 44.183594 76.128906 42.34375 78.53125 40.558594 C 80.9375 38.773438 83.386719 37.050781 85.875 35.386719 C 88.367188 33.722656 90.894531 32.121094 93.464844 30.582031 C 96.035156 29.042969 98.640625 27.566406 101.28125 26.15625 C 103.921875 24.742188 106.597656 23.398438 109.304688 22.117188 C 112.011719 20.835938 114.746094 19.621094 117.515625 18.476562 C 120.28125 17.328125 123.074219 16.253906 125.894531 15.242188 C 128.714844 14.234375 131.558594 13.296875 134.421875 12.425781 C 137.289062 11.554688 140.175781 10.757812 143.082031 10.03125 C 145.984375 9.300781 148.90625 8.648438 151.84375 8.0625 C 154.78125 7.476562 157.730469 6.964844 160.695312 6.527344 C 163.65625 6.085938 166.628906 5.722656 169.609375 5.425781 C 172.589844 5.132812 175.574219 4.914062 178.566406 4.765625 C 181.558594 4.621094 184.550781 4.546875 187.546875 4.546875 C 190.539062 4.546875 193.535156 4.621094 196.523438 4.765625 C 199.515625 4.914062 202.503906 5.132812 205.484375 5.425781 C 208.464844 5.722656 211.433594 6.085938 214.398438 6.527344 C 217.359375 6.964844 220.308594 7.476562 223.246094 8.0625 C 226.183594 8.648438 229.105469 9.300781 232.011719 10.03125 C 234.917969 10.757812 237.800781 11.554688 240.667969 12.425781 C 243.535156 13.296875 246.375 14.234375 249.195312 15.242188 C 252.015625 16.253906 254.808594 17.328125 257.578125 18.476562 C 260.34375 19.621094 263.082031 20.835938 265.789062 22.117188 C 268.496094 23.398438 271.171875 24.742188 273.8125 26.15625 C 276.453125 27.566406 279.058594 29.042969 281.625 30.582031 C 284.195312 32.121094 286.726562 33.722656 289.214844 35.386719 C 291.707031 37.050781 294.152344 38.773438 296.558594 40.558594 C 298.964844 42.34375 301.324219 44.183594 303.640625 46.085938 C 305.953125 47.984375 308.222656 49.941406 310.441406 51.953125 C 312.660156 53.964844 314.828125 56.027344 316.945312 58.144531 C 319.0625 60.261719 321.128906 62.433594 323.140625 64.652344 C 325.152344 66.871094 327.105469 69.136719 329.007812 71.453125 C 330.90625 73.765625 332.75 76.128906 334.53125 78.53125 C 336.316406 80.9375 338.039062 83.386719 339.703125 85.875 C 341.367188 88.367188 342.96875 90.894531 344.511719 93.464844 C 346.050781 96.035156 347.527344 98.640625 348.9375 101.28125 C 350.347656 103.921875 351.695312 106.597656 352.976562 109.304688 C 354.257812 112.011719 355.46875 114.746094 356.617188 117.515625 C 357.761719 120.28125 358.839844 123.074219 359.847656 125.894531 C 360.855469 128.714844 361.796875 131.558594 362.664062 134.425781 C 363.535156 137.289062 364.332031 140.175781 365.0625 143.082031 C 365.789062 145.984375 366.445312 148.90625 367.03125 151.84375 C 367.613281 154.78125 368.125 157.730469 368.566406 160.695312 C 369.003906 163.65625 369.371094 166.628906 369.664062 169.609375 C 369.957031 172.589844 370.179688 175.574219 370.324219 178.566406 C 370.472656 181.558594 370.546875 184.550781 370.546875 187.546875 Z M 370.546875 187.546875 " fill-opacity="1" fill-rule="nonzero"/></g><path fill="#ffffff" d="M 187.546875 353.089844 C 96.183594 353.089844 22 278.910156 22 187.546875 C 22 96.183594 96.183594 22 187.546875 22 C 278.910156 22 353.089844 96.183594 353.089844 187.546875 C 353.089844 278.910156 278.910156 353.089844 187.546875 353.089844 Z M 187.546875 26.089844 C 98.363281 26.089844 26.089844 98.363281 26.089844 187.546875 C 26.089844 276.726562 98.636719 349 187.546875 349 C 276.726562 349 349 276.457031 349 187.546875 C 349 98.363281 276.726562 26.089844 187.546875 26.089844 Z M 187.546875 26.089844 " fill-opacity="1" fill-rule="nonzero"/><g clip-path="url(#id2)"><path fill="#ffffff" d="M 133.753906 114.179688 C 132.699219 115.984375 131.496094 117.640625 129.992188 118.996094 C 133.605469 120.652344 136.316406 124.71875 136.316406 129.386719 L 136.316406 141.886719 C 136.316406 142.039062 136.164062 142.1875 136.164062 142.1875 L 97.3125 142.1875 C 97.3125 142.339844 97.164062 142.1875 97.164062 142.039062 L 97.164062 129.539062 C 97.164062 124.71875 99.722656 120.652344 103.488281 119.148438 C 101.980469 117.792969 100.625 116.136719 99.722656 114.328125 C 94.601562 117.039062 91.140625 122.914062 91.140625 129.539062 L 91.140625 142.039062 C 91.140625 145.5 94 148.363281 97.3125 148.363281 L 136.015625 148.363281 C 139.476562 148.363281 142.1875 145.5 142.1875 142.039062 L 142.1875 129.539062 C 142.339844 122.914062 138.875 117.039062 133.753906 114.179688 Z M 133.753906 114.179688 " fill-opacity="1" fill-rule="nonzero"/></g><g clip-path="url(#id3)"><path fill="#ffffff" d="M 130.292969 104.691406 C 130.292969 105.582031 130.203125 106.464844 130.03125 107.335938 C 129.859375 108.207031 129.601562 109.054688 129.261719 109.878906 C 128.917969 110.699219 128.5 111.480469 128.007812 112.222656 C 127.511719 112.960938 126.953125 113.644531 126.320312 114.273438 C 125.691406 114.90625 125.007812 115.464844 124.269531 115.960938 C 123.527344 116.457031 122.746094 116.871094 121.925781 117.214844 C 121.101562 117.554688 120.253906 117.8125 119.382812 117.984375 C 118.511719 118.15625 117.628906 118.246094 116.738281 118.246094 C 115.847656 118.246094 114.96875 118.15625 114.09375 117.984375 C 113.222656 117.8125 112.375 117.554688 111.550781 117.214844 C 110.730469 116.871094 109.949219 116.457031 109.210938 115.960938 C 108.46875 115.464844 107.785156 114.90625 107.15625 114.273438 C 106.527344 113.644531 105.964844 112.960938 105.46875 112.222656 C 104.976562 111.480469 104.558594 110.699219 104.21875 109.878906 C 103.878906 109.054688 103.621094 108.207031 103.445312 107.335938 C 103.273438 106.464844 103.1875 105.582031 103.1875 104.691406 C 103.1875 103.800781 103.273438 102.921875 103.445312 102.046875 C 103.621094 101.175781 103.878906 100.328125 104.21875 99.503906 C 104.558594 98.683594 104.976562 97.902344 105.46875 97.164062 C 105.964844 96.421875 106.527344 95.738281 107.15625 95.109375 C 107.785156 94.480469 108.46875 93.917969 109.210938 93.421875 C 109.949219 92.929688 110.730469 92.511719 111.550781 92.171875 C 112.375 91.832031 113.222656 91.574219 114.09375 91.398438 C 114.96875 91.226562 115.847656 91.140625 116.738281 91.140625 C 117.628906 91.140625 118.511719 91.226562 119.382812 91.398438 C 120.253906 91.574219 121.101562 91.832031 121.925781 92.171875 C 122.746094 92.511719 123.527344 92.929688 124.269531 93.421875 C 125.007812 93.917969 125.691406 94.480469 126.320312 95.109375 C 126.953125 95.738281 127.511719 96.421875 128.007812 97.164062 C 128.5 97.902344 128.917969 98.683594 129.261719 99.503906 C 129.601562 100.328125 129.859375 101.175781 130.03125 102.046875 C 130.203125 102.921875 130.292969 103.800781 130.292969 104.691406 Z M 130.292969 104.691406 " fill-opacity="1" fill-rule="nonzero"/></g><g clip-path="url(#id4)"><path fill="#ffffff" d="M 275.304688 114.179688 C 274.25 115.984375 273.046875 117.640625 271.542969 118.996094 C 275.15625 120.652344 277.867188 124.71875 277.867188 129.386719 L 277.867188 141.886719 C 277.867188 142.039062 277.714844 142.1875 277.714844 142.1875 L 238.863281 142.1875 C 238.714844 142.1875 238.714844 142.039062 238.714844 141.886719 L 238.714844 129.386719 C 238.714844 124.570312 241.273438 120.503906 245.039062 118.996094 C 243.53125 117.640625 242.175781 115.984375 241.273438 114.179688 C 236.152344 117.039062 232.691406 122.761719 232.691406 129.386719 L 232.691406 141.886719 C 232.691406 145.351562 235.550781 148.210938 238.863281 148.210938 L 277.566406 148.210938 C 281.027344 148.210938 283.738281 145.351562 283.738281 141.886719 L 283.738281 129.386719 C 283.890625 122.914062 280.425781 117.039062 275.304688 114.179688 Z M 275.304688 114.179688 " fill-opacity="1" fill-rule="nonzero"/></g><g clip-path="url(#id5)"><path fill="#ffffff" d="M 271.84375 104.691406 C 271.84375 105.582031 271.753906 106.464844 271.582031 107.335938 C 271.410156 108.207031 271.152344 109.054688 270.8125 109.878906 C 270.46875 110.699219 270.050781 111.480469 269.558594 112.222656 C 269.0625 112.960938 268.503906 113.644531 267.871094 114.273438 C 267.242188 114.90625 266.558594 115.464844 265.820312 115.960938 C 265.078125 116.457031 264.296875 116.871094 263.476562 117.214844 C 262.652344 117.554688 261.804688 117.8125 260.933594 117.984375 C 260.0625 118.15625 259.179688 118.246094 258.289062 118.246094 C 257.398438 118.246094 256.519531 118.15625 255.644531 117.984375 C 254.773438 117.8125 253.925781 117.554688 253.101562 117.214844 C 252.28125 116.871094 251.5 116.457031 250.761719 115.960938 C 250.019531 115.464844 249.335938 114.90625 248.707031 114.273438 C 248.078125 113.644531 247.515625 112.960938 247.019531 112.222656 C 246.527344 111.480469 246.109375 110.699219 245.769531 109.878906 C 245.429688 109.054688 245.171875 108.207031 244.996094 107.335938 C 244.824219 106.464844 244.738281 105.582031 244.738281 104.691406 C 244.738281 103.800781 244.824219 102.921875 244.996094 102.046875 C 245.171875 101.175781 245.429688 100.328125 245.769531 99.503906 C 246.109375 98.683594 246.527344 97.902344 247.019531 97.164062 C 247.515625 96.421875 248.078125 95.738281 248.707031 95.109375 C 249.335938 94.480469 250.019531 93.917969 250.761719 93.421875 C 251.5 92.929688 252.28125 92.511719 253.101562 92.171875 C 253.925781 91.832031 254.773438 91.574219 255.644531 91.398438 C 256.519531 91.226562 257.398438 91.140625 258.289062 91.140625 C 259.179688 91.140625 260.0625 91.226562 260.933594 91.398438 C 261.804688 91.574219 262.652344 91.832031 263.476562 92.171875 C 264.296875 92.511719 265.078125 92.929688 265.820312 93.421875 C 266.558594 93.917969 267.242188 94.480469 267.871094 95.109375 C 268.503906 95.738281 269.0625 96.421875 269.558594 97.164062 C 270.050781 97.902344 270.46875 98.683594 270.8125 99.503906 C 271.152344 100.328125 271.410156 101.175781 271.582031 102.046875 C 271.753906 102.921875 271.84375 103.800781 271.84375 104.691406 Z M 271.84375 104.691406 " fill-opacity="1" fill-rule="nonzero"/></g><g clip-path="url(#id6)"><path fill="#ffffff" d="M 133.753906 249.707031 C 132.699219 251.511719 131.496094 253.167969 129.992188 254.523438 C 133.605469 256.179688 136.316406 260.246094 136.316406 264.914062 L 136.316406 277.414062 C 136.316406 277.566406 136.164062 277.714844 136.164062 277.714844 L 97.3125 277.714844 C 97.164062 277.714844 97.164062 277.566406 97.164062 277.414062 L 97.164062 264.914062 C 97.164062 260.097656 99.722656 256.03125 103.488281 254.523438 C 101.980469 253.167969 100.625 251.511719 99.722656 249.707031 C 94.601562 252.566406 91.140625 258.289062 91.140625 264.914062 L 91.140625 277.414062 C 91.140625 280.878906 94 283.738281 97.3125 283.738281 L 136.015625 283.738281 C 139.476562 283.738281 142.1875 280.878906 142.1875 277.414062 L 142.1875 264.914062 C 142.339844 258.441406 138.875 252.566406 133.753906 249.707031 Z M 133.753906 249.707031 " fill-opacity="1" fill-rule="nonzero"/></g><path fill="#ffffff" d="M 130.292969 240.21875 C 130.292969 241.109375 130.203125 241.992188 130.03125 242.863281 C 129.859375 243.734375 129.601562 244.582031 129.261719 245.40625 C 128.917969 246.226562 128.5 247.007812 128.007812 247.75 C 127.511719 248.488281 126.953125 249.171875 126.320312 249.800781 C 125.691406 250.433594 125.007812 250.992188 124.269531 251.488281 C 123.527344 251.984375 122.746094 252.398438 121.925781 252.742188 C 121.101562 253.082031 120.253906 253.339844 119.382812 253.511719 C 118.511719 253.683594 117.628906 253.773438 116.738281 253.773438 C 115.847656 253.773438 114.96875 253.683594 114.09375 253.511719 C 113.222656 253.339844 112.375 253.082031 111.550781 252.742188 C 110.730469 252.398438 109.949219 251.984375 109.210938 251.488281 C 108.46875 250.992188 107.785156 250.433594 107.15625 249.800781 C 106.527344 249.171875 105.964844 248.488281 105.46875 247.75 C 104.976562 247.007812 104.558594 246.226562 104.21875 245.40625 C 103.878906 244.582031 103.621094 243.734375 103.445312 242.863281 C 103.273438 241.992188 103.1875 241.109375 103.1875 240.21875 C 103.1875 239.328125 103.273438 238.449219 103.445312 237.574219 C 103.621094 236.703125 103.878906 235.855469 104.21875 235.03125 C 104.558594 234.210938 104.976562 233.429688 105.46875 232.691406 C 105.964844 231.949219 106.527344 231.265625 107.15625 230.636719 C 107.785156 230.007812 108.46875 229.445312 109.210938 228.949219 C 109.949219 228.457031 110.730469 228.039062 111.550781 227.699219 C 112.375 227.359375 113.222656 227.101562 114.09375 226.925781 C 114.96875 226.753906 115.847656 226.667969 116.738281 226.667969 C 117.628906 226.667969 118.511719 226.753906 119.382812 226.925781 C 120.253906 227.101562 121.101562 227.359375 121.925781 227.699219 C 122.746094 228.039062 123.527344 228.457031 124.269531 228.949219 C 125.007812 229.445312 125.691406 230.007812 126.320312 230.636719 C 126.953125 231.265625 127.511719 231.949219 128.007812 232.691406 C 128.5 233.429688 128.917969 234.210938 129.261719 235.03125 C 129.601562 235.855469 129.859375 236.703125 130.03125 237.574219 C 130.203125 238.449219 130.292969 239.328125 130.292969 240.21875 Z M 130.292969 240.21875 " fill-opacity="1" fill-rule="nonzero"/><g clip-path="url(#id7)"><path fill="#ffffff" d="M 91.742188 176.824219 C 91.589844 177.875 91.589844 178.929688 91.441406 179.984375 C 91.289062 181.640625 92.796875 183.296875 94.453125 183.296875 C 95.957031 183.296875 97.3125 182.09375 97.464844 180.585938 C 97.464844 179.683594 97.613281 178.628906 97.765625 177.726562 C 97.914062 176.070312 96.710938 174.5625 95.054688 174.414062 C 93.398438 173.960938 91.890625 175.167969 91.742188 176.824219 Z M 91.742188 176.824219 " fill-opacity="1" fill-rule="nonzero"/></g><path fill="#ffffff" d="M 99.875 209.199219 C 99.570312 208.296875 99.421875 207.242188 99.269531 206.335938 C 98.820312 204.832031 97.164062 203.777344 95.507812 204.078125 C 93.851562 204.378906 92.796875 206.035156 93.246094 207.691406 C 93.398438 208.746094 93.699219 209.652344 94 210.703125 C 94.453125 212.359375 96.109375 213.265625 97.613281 212.964844 C 99.269531 212.511719 100.175781 210.855469 99.875 209.199219 Z M 99.875 209.199219 " fill-opacity="1" fill-rule="nonzero"/><path fill="#ffffff" d="M 103.335938 220.34375 C 102.734375 218.835938 100.925781 218.082031 99.421875 218.6875 C 97.914062 219.289062 97.164062 221.09375 97.765625 222.601562 C 98.214844 223.503906 98.519531 224.558594 98.96875 225.460938 C 99.421875 226.667969 100.625 227.269531 101.679688 227.269531 C 102.132812 227.269531 102.433594 227.117188 102.886719 226.96875 C 104.390625 226.367188 105.144531 224.558594 104.542969 223.050781 C 104.089844 222.148438 103.636719 221.246094 103.335938 220.34375 Z M 103.335938 220.34375 " fill-opacity="1" fill-rule="nonzero"/><g clip-path="url(#id8)"><path fill="#ffffff" d="M 91.441406 195.34375 C 91.589844 196.851562 92.945312 198.054688 94.453125 198.054688 C 94.601562 198.054688 94.601562 198.054688 94.753906 198.054688 C 96.410156 198.054688 97.613281 196.550781 97.464844 194.894531 C 97.3125 193.988281 97.3125 192.933594 97.3125 192.03125 C 97.164062 190.375 95.808594 189.019531 94.152344 189.171875 C 92.496094 189.320312 91.140625 190.675781 91.289062 192.332031 C 91.289062 193.386719 91.441406 194.441406 91.441406 195.34375 Z M 91.441406 195.34375 " fill-opacity="1" fill-rule="nonzero"/></g><g clip-path="url(#id9)"><path fill="#ffffff" d="M 280.878906 184.203125 C 279.222656 184.203125 277.867188 185.558594 277.867188 187.214844 L 277.867188 187.515625 C 277.867188 188.417969 277.867188 189.472656 277.867188 190.375 C 277.867188 192.03125 279.070312 193.386719 280.726562 193.539062 C 280.726562 193.539062 280.726562 193.539062 280.878906 193.539062 C 282.535156 193.539062 283.890625 192.183594 283.890625 190.675781 C 283.890625 189.621094 283.890625 188.570312 283.890625 187.515625 L 283.890625 187.214844 C 283.890625 185.558594 282.535156 184.203125 280.878906 184.203125 Z M 280.878906 184.203125 " fill-opacity="1" fill-rule="nonzero"/></g><path fill="#ffffff" d="M 276.210938 204.832031 C 275.90625 206.488281 276.960938 207.992188 278.617188 208.296875 C 278.769531 208.296875 279.070312 208.296875 279.222656 208.296875 C 280.578125 208.296875 281.929688 207.242188 282.234375 205.886719 C 282.382812 204.832031 282.683594 203.929688 282.835938 202.875 C 283.136719 201.21875 281.929688 199.710938 280.273438 199.410156 C 278.617188 199.109375 277.113281 200.3125 276.8125 201.96875 C 276.511719 203.023438 276.359375 203.929688 276.210938 204.832031 Z M 276.210938 204.832031 " fill-opacity="1" fill-rule="nonzero"/><g clip-path="url(#id10)"><path fill="#ffffff" d="M 280.125 178.179688 C 280.273438 178.179688 280.425781 178.179688 280.578125 178.179688 C 282.234375 178.027344 283.4375 176.523438 283.136719 174.863281 C 282.984375 173.8125 282.835938 172.757812 282.683594 171.851562 C 282.382812 170.195312 280.878906 169.144531 279.222656 169.292969 C 277.566406 169.59375 276.511719 171.101562 276.660156 172.757812 C 276.8125 173.660156 276.960938 174.714844 277.113281 175.617188 C 277.261719 177.125 278.617188 178.179688 280.125 178.179688 Z M 280.125 178.179688 " fill-opacity="1" fill-rule="nonzero"/></g><path fill="#ffffff" d="M 278.917969 156.644531 C 278.316406 155.136719 276.660156 154.234375 275.15625 154.6875 C 273.648438 155.289062 272.746094 156.945312 273.199219 158.453125 C 273.5 159.355469 273.800781 160.257812 274.101562 161.160156 C 274.554688 162.515625 275.757812 163.269531 276.960938 163.269531 C 277.261719 163.269531 277.566406 163.269531 277.867188 163.121094 C 279.523438 162.667969 280.425781 161.011719 279.824219 159.355469 C 279.523438 158.601562 279.222656 157.699219 278.917969 156.644531 Z M 278.917969 156.644531 " fill-opacity="1" fill-rule="nonzero"/><path fill="#ffffff" d="M 274.101562 222.75 C 274.402344 222.902344 274.855469 222.902344 275.15625 222.902344 C 276.359375 222.902344 277.566406 222.148438 278.015625 220.945312 C 278.316406 220.039062 278.769531 218.988281 279.070312 217.933594 C 279.523438 216.425781 278.769531 214.621094 277.113281 214.167969 C 275.457031 213.714844 273.800781 214.46875 273.347656 216.125 C 273.046875 217.027344 272.746094 217.933594 272.445312 218.835938 C 271.691406 220.492188 272.445312 222.148438 274.101562 222.75 Z M 274.101562 222.75 " fill-opacity="1" fill-rule="nonzero"/><path fill="#ffffff" d="M 98.367188 159.503906 C 96.710938 159.054688 95.054688 159.957031 94.601562 161.613281 C 94.300781 162.667969 94 163.570312 93.851562 164.625 C 93.398438 166.28125 94.453125 167.9375 96.109375 168.238281 C 97.765625 168.691406 99.421875 167.636719 99.722656 165.980469 C 100.023438 165.078125 100.175781 164.023438 100.476562 163.121094 C 100.925781 161.613281 100.023438 159.957031 98.367188 159.503906 Z M 98.367188 159.503906 " fill-opacity="1" fill-rule="nonzero"/><path fill="#ffffff" d="M 228.625 107.101562 C 229.074219 107.253906 229.527344 107.402344 229.980469 107.402344 C 231.035156 107.402344 232.085938 106.800781 232.691406 105.746094 C 233.441406 104.242188 232.839844 102.433594 231.335938 101.679688 C 230.429688 101.230469 229.527344 100.777344 228.472656 100.324219 C 226.96875 99.570312 225.160156 100.324219 224.40625 101.832031 C 223.65625 103.335938 224.40625 105.144531 225.914062 105.898438 C 226.96875 106.199219 227.71875 106.648438 228.625 107.101562 Z M 228.625 107.101562 " fill-opacity="1" fill-rule="nonzero"/><g clip-path="url(#id11)"><path fill="#ffffff" d="M 186.460938 91.140625 C 185.40625 91.140625 184.351562 91.140625 183.296875 91.289062 C 181.640625 91.289062 180.285156 92.796875 180.4375 94.453125 C 180.4375 96.109375 181.792969 97.3125 183.449219 97.3125 C 183.449219 97.3125 183.597656 97.3125 183.597656 97.3125 C 184.503906 97.3125 185.554688 97.3125 186.460938 97.3125 C 188.117188 97.3125 189.472656 95.957031 189.472656 94.300781 C 189.472656 92.496094 188.117188 91.140625 186.460938 91.140625 Z M 186.460938 91.140625 " fill-opacity="1" fill-rule="nonzero"/></g><g clip-path="url(#id12)"><path fill="#ffffff" d="M 201.96875 92.195312 C 200.917969 92.042969 199.863281 91.890625 198.957031 91.742188 C 197.300781 91.589844 195.796875 92.796875 195.644531 94.453125 C 195.496094 96.109375 196.699219 97.613281 198.355469 97.765625 C 199.261719 97.914062 200.3125 98.066406 201.21875 98.21875 C 201.367188 98.21875 201.519531 98.21875 201.667969 98.21875 C 203.175781 98.21875 204.378906 97.164062 204.679688 95.65625 C 204.679688 94 203.625 92.496094 201.96875 92.195312 Z M 201.96875 92.195312 " fill-opacity="1" fill-rule="nonzero"/></g><g clip-path="url(#id13)"><path fill="#ffffff" d="M 198.507812 277.261719 C 197.601562 277.414062 196.550781 277.414062 195.644531 277.566406 C 193.988281 277.714844 192.785156 279.222656 192.933594 280.878906 C 193.085938 282.382812 194.441406 283.589844 195.945312 283.589844 C 196.097656 283.589844 196.097656 283.589844 196.25 283.589844 C 197.300781 283.4375 198.355469 283.4375 199.410156 283.285156 C 201.066406 283.136719 202.273438 281.628906 201.96875 279.972656 C 201.667969 278.316406 200.164062 276.960938 198.507812 277.261719 Z M 198.507812 277.261719 " fill-opacity="1" fill-rule="nonzero"/></g><path fill="#ffffff" d="M 212.660156 274.25 C 211.757812 274.554688 210.855469 274.703125 209.800781 275.003906 C 208.144531 275.457031 207.242188 277.113281 207.691406 278.617188 C 207.992188 279.972656 209.199219 280.878906 210.554688 280.878906 C 210.855469 280.878906 211.003906 280.878906 211.308594 280.726562 C 212.359375 280.425781 213.265625 280.125 214.320312 279.972656 C 215.976562 279.523438 216.878906 277.867188 216.425781 276.210938 C 215.976562 274.703125 214.320312 273.800781 212.660156 274.25 Z M 212.660156 274.25 " fill-opacity="1" fill-rule="nonzero"/><path fill="#ffffff" d="M 226.667969 268.980469 C 226.515625 268.980469 226.367188 269.132812 226.214844 269.132812 C 225.3125 269.582031 224.40625 269.886719 223.503906 270.335938 C 222 270.9375 221.246094 272.746094 222 274.25 C 222.449219 275.457031 223.65625 276.058594 224.707031 276.058594 C 225.160156 276.058594 225.460938 275.910156 225.914062 275.757812 C 226.0625 275.605469 226.367188 275.605469 226.515625 275.457031 L 226.515625 268.980469 Z M 226.667969 268.980469 " fill-opacity="1" fill-rule="nonzero"/><path fill="#ffffff" d="M 215.222656 101.53125 C 215.523438 101.53125 215.824219 101.679688 216.125 101.679688 C 217.332031 101.679688 218.535156 100.925781 218.988281 99.570312 C 219.4375 97.914062 218.683594 96.257812 217.027344 95.808594 C 215.976562 95.507812 215.070312 95.207031 214.015625 94.902344 C 212.359375 94.453125 210.703125 95.355469 210.253906 97.011719 C 209.800781 98.667969 210.703125 100.324219 212.359375 100.777344 C 213.414062 100.925781 214.320312 101.230469 215.222656 101.53125 Z M 215.222656 101.53125 " fill-opacity="1" fill-rule="nonzero"/><g clip-path="url(#id14)"><path fill="#ffffff" d="M 186.761719 280.878906 C 186.761719 279.222656 185.554688 277.867188 183.898438 277.714844 C 182.996094 277.714844 181.941406 277.566406 181.039062 277.566406 C 179.382812 277.414062 177.875 278.769531 177.875 280.425781 C 177.726562 282.082031 179.082031 283.589844 180.738281 283.589844 C 181.792969 283.589844 182.847656 283.738281 183.898438 283.738281 C 183.898438 283.738281 184.050781 283.738281 184.050781 283.738281 C 185.40625 283.890625 186.761719 282.535156 186.761719 280.878906 Z M 186.761719 280.878906 " fill-opacity="1" fill-rule="nonzero"/></g><path fill="#ffffff" d="M 153.480469 277.714844 C 153.78125 277.867188 154.234375 277.867188 154.535156 277.867188 C 155.742188 277.867188 156.945312 277.113281 157.398438 275.910156 C 158 274.402344 157.246094 272.59375 155.589844 271.992188 C 154.6875 271.691406 153.78125 271.238281 152.878906 270.9375 C 151.375 270.335938 149.566406 271.089844 148.964844 272.59375 C 148.363281 274.101562 149.113281 275.910156 150.621094 276.511719 C 151.523438 276.960938 152.425781 277.261719 153.480469 277.714844 Z M 153.480469 277.714844 " fill-opacity="1" fill-rule="nonzero"/><path fill="#ffffff" d="M 156.042969 96.410156 C 154.988281 96.710938 154.085938 97.164062 153.179688 97.464844 C 151.675781 98.066406 150.921875 99.722656 151.375 101.378906 C 151.824219 102.582031 153.03125 103.335938 154.234375 103.335938 C 154.535156 103.335938 154.988281 103.335938 155.289062 103.1875 C 156.191406 102.886719 157.097656 102.433594 158 102.132812 C 159.503906 101.53125 160.410156 99.875 159.804688 98.367188 C 159.355469 96.710938 157.546875 95.808594 156.042969 96.410156 Z M 156.042969 96.410156 " fill-opacity="1" fill-rule="nonzero"/><path fill="#ffffff" d="M 141.886719 102.582031 C 140.984375 103.035156 140.078125 103.636719 139.175781 104.089844 C 137.671875 104.992188 137.21875 106.800781 138.121094 108.15625 C 138.722656 109.058594 139.628906 109.660156 140.683594 109.660156 C 141.132812 109.660156 141.734375 109.511719 142.1875 109.210938 C 143.089844 108.757812 143.84375 108.304688 144.746094 107.855469 C 146.253906 107.101562 146.707031 105.292969 145.953125 103.789062 C 145.199219 102.433594 143.242188 101.832031 141.886719 102.582031 Z M 141.886719 102.582031 " fill-opacity="1" fill-rule="nonzero"/><path fill="#ffffff" d="M 166.734375 275.457031 C 165.078125 275.003906 163.421875 276.058594 163.121094 277.714844 C 162.667969 279.371094 163.722656 281.027344 165.378906 281.328125 C 166.433594 281.628906 167.335938 281.78125 168.390625 281.933594 C 168.539062 281.933594 168.839844 281.933594 168.992188 281.933594 C 170.347656 281.933594 171.703125 280.878906 172.003906 279.523438 C 172.304688 277.867188 171.25 276.359375 169.59375 275.910156 C 168.539062 275.910156 167.636719 275.605469 166.734375 275.457031 Z M 166.734375 275.457031 " fill-opacity="1" fill-rule="nonzero"/><path fill="#ffffff" d="M 171.101562 92.496094 C 170.046875 92.644531 168.992188 92.796875 168.089844 93.097656 C 166.433594 93.398438 165.378906 95.054688 165.679688 96.710938 C 165.980469 98.066406 167.183594 99.121094 168.691406 99.121094 C 168.839844 99.121094 169.144531 99.121094 169.292969 99.121094 C 170.195312 98.96875 171.25 98.820312 172.15625 98.519531 C 173.8125 98.21875 174.863281 96.710938 174.5625 95.054688 C 174.261719 93.398438 172.757812 92.195312 171.101562 92.496094 Z M 171.101562 92.496094 " fill-opacity="1" fill-rule="nonzero"/><g clip-path="url(#id15)"><path fill="#ffffff" d="M 275.304688 249.707031 C 274.25 251.511719 273.046875 253.167969 271.542969 254.523438 C 275.15625 256.179688 277.867188 260.246094 277.867188 264.914062 L 277.867188 277.414062 C 277.867188 277.566406 277.714844 277.714844 277.714844 277.714844 L 238.863281 277.714844 C 238.714844 277.714844 238.714844 277.566406 238.714844 277.414062 L 238.714844 264.914062 C 238.714844 260.097656 241.273438 256.03125 245.039062 254.523438 C 243.53125 253.167969 242.175781 251.511719 241.273438 249.707031 C 236.152344 252.566406 232.691406 258.289062 232.691406 264.914062 L 232.691406 277.414062 C 232.691406 280.878906 235.550781 283.738281 238.863281 283.738281 L 277.566406 283.738281 C 281.027344 283.738281 283.738281 280.878906 283.738281 277.414062 L 283.738281 264.914062 C 283.890625 258.441406 280.425781 252.566406 275.304688 249.707031 Z M 275.304688 249.707031 " fill-opacity="1" fill-rule="nonzero"/></g><path fill="#ffffff" d="M 271.84375 240.21875 C 271.84375 241.109375 271.753906 241.992188 271.582031 242.863281 C 271.410156 243.734375 271.152344 244.582031 270.8125 245.40625 C 270.46875 246.226562 270.050781 247.007812 269.558594 247.75 C 269.0625 248.488281 268.503906 249.171875 267.871094 249.800781 C 267.242188 250.433594 266.558594 250.992188 265.820312 251.488281 C 265.078125 251.984375 264.296875 252.398438 263.476562 252.742188 C 262.652344 253.082031 261.804688 253.339844 260.933594 253.511719 C 260.0625 253.683594 259.179688 253.773438 258.289062 253.773438 C 257.398438 253.773438 256.519531 253.683594 255.644531 253.511719 C 254.773438 253.339844 253.925781 253.082031 253.101562 252.742188 C 252.28125 252.398438 251.5 251.984375 250.761719 251.488281 C 250.019531 250.992188 249.335938 250.433594 248.707031 249.800781 C 248.078125 249.171875 247.515625 248.488281 247.019531 247.75 C 246.527344 247.007812 246.109375 246.226562 245.769531 245.40625 C 245.429688 244.582031 245.171875 243.734375 244.996094 242.863281 C 244.824219 241.992188 244.738281 241.109375 244.738281 240.21875 C 244.738281 239.328125 244.824219 238.449219 244.996094 237.574219 C 245.171875 236.703125 245.429688 235.855469 245.769531 235.03125 C 246.109375 234.210938 246.527344 233.429688 247.019531 232.691406 C 247.515625 231.949219 248.078125 231.265625 248.707031 230.636719 C 249.335938 230.007812 250.019531 229.445312 250.761719 228.949219 C 251.5 228.457031 252.28125 228.039062 253.101562 227.699219 C 253.925781 227.359375 254.773438 227.101562 255.644531 226.925781 C 256.519531 226.753906 257.398438 226.667969 258.289062 226.667969 C 259.179688 226.667969 260.0625 226.753906 260.933594 226.925781 C 261.804688 227.101562 262.652344 227.359375 263.476562 227.699219 C 264.296875 228.039062 265.078125 228.457031 265.820312 228.949219 C 266.558594 229.445312 267.242188 230.007812 267.871094 230.636719 C 268.503906 231.265625 269.0625 231.949219 269.558594 232.691406 C 270.050781 233.429688 270.46875 234.210938 270.8125 235.03125 C 271.152344 235.855469 271.410156 236.703125 271.582031 237.574219 C 271.753906 238.449219 271.84375 239.328125 271.84375 240.21875 Z M 271.84375 240.21875 " fill-opacity="1" fill-rule="nonzero"/><path fill="#ffffff" d="M 158.902344 205.886719 L 154.535156 210.253906 C 152.878906 211.910156 153.03125 214.769531 154.988281 216.726562 L 158.449219 220.191406 C 159.503906 221.246094 160.710938 221.699219 162.066406 221.699219 C 163.121094 221.699219 164.171875 221.246094 164.925781 220.492188 L 169.292969 216.125 C 172.605469 218.234375 176.371094 219.890625 180.285156 220.644531 L 180.285156 226.816406 C 180.285156 229.226562 182.394531 231.183594 185.105469 231.183594 L 189.921875 231.183594 C 192.632812 231.183594 194.742188 229.226562 194.742188 226.816406 L 194.742188 220.644531 C 198.65625 219.738281 202.421875 218.234375 205.734375 216.125 L 210.101562 220.492188 C 210.855469 221.246094 211.910156 221.699219 212.964844 221.699219 C 214.167969 221.699219 215.523438 221.246094 216.578125 220.191406 L 220.039062 216.726562 C 222 214.769531 222.148438 211.910156 220.492188 210.253906 L 216.125 205.886719 C 218.234375 202.574219 219.890625 198.808594 220.644531 194.894531 L 226.816406 194.894531 C 229.226562 194.894531 231.183594 192.785156 231.183594 190.074219 L 231.183594 185.253906 C 231.183594 182.546875 229.226562 180.4375 226.816406 180.4375 L 220.644531 180.4375 C 219.738281 176.371094 218.234375 172.757812 216.125 169.445312 L 220.492188 165.078125 C 222.148438 163.421875 222 160.558594 220.039062 158.601562 L 216.578125 155.136719 C 215.523438 154.085938 214.320312 153.632812 212.964844 153.632812 C 211.910156 153.632812 210.855469 154.085938 210.101562 154.835938 L 205.886719 158.902344 C 202.574219 156.792969 198.808594 155.136719 194.894531 154.386719 L 194.894531 148.210938 C 194.894531 145.800781 192.785156 143.84375 190.074219 143.84375 L 185.253906 143.84375 C 182.542969 143.84375 180.4375 145.800781 180.4375 148.210938 L 180.4375 154.386719 C 176.519531 155.289062 172.757812 156.792969 169.445312 158.902344 L 165.078125 154.535156 C 164.324219 153.78125 163.269531 153.332031 162.214844 153.332031 C 161.011719 153.332031 159.65625 153.933594 158.601562 154.835938 L 155.136719 158.300781 C 153.179688 160.257812 153.03125 163.121094 154.6875 164.777344 L 159.054688 169.144531 C 156.945312 172.457031 155.289062 176.21875 154.535156 180.136719 L 148.363281 180.136719 C 145.953125 180.136719 143.996094 182.242188 143.996094 184.953125 L 143.996094 189.773438 C 143.996094 192.484375 145.953125 194.59375 148.363281 194.59375 L 154.386719 194.59375 C 155.136719 198.808594 156.792969 202.574219 158.902344 205.886719 Z M 187.515625 173.960938 C 195.042969 173.960938 201.066406 179.984375 201.066406 187.515625 C 201.066406 195.042969 195.042969 201.066406 187.515625 201.066406 C 179.984375 201.066406 173.960938 195.042969 173.960938 187.515625 C 173.960938 179.984375 179.984375 173.960938 187.515625 173.960938 Z M 187.515625 173.960938 " fill-opacity="1" fill-rule="nonzero"/></svg>