<svg xmlns="http://www.w3.org/2000/svg" xmlns:xlink="http://www.w3.org/1999/xlink" width="500" zoomAndPan="magnify" viewBox="0 0 375 374.999991" height="500" preserveAspectRatio="xMidYMid meet" version="1.0"><defs><clipPath id="id1"><path d="M 4.546875 4.546875 L 370.546875 4.546875 L 370.546875 370.546875 L 4.546875 370.546875 Z M 4.546875 4.546875 " clip-rule="nonzero"/></clipPath><clipPath id="id2"><path d="M 223 84.957031 L 268 84.957031 L 268 174 L 223 174 Z M 223 84.957031 " clip-rule="nonzero"/></clipPath><clipPath id="id3"><path d="M 177 219 L 276 219 L 276 289.707031 L 177 289.707031 Z M 177 219 " clip-rule="nonzero"/></clipPath></defs><g clip-path="url(#id1)"><path fill="#05649c" d="M 370.546875 187.546875 C 370.546875 190.539062 370.472656 193.535156 370.324219 196.523438 C 370.179688 199.515625 369.957031 202.503906 369.664062 205.484375 C 369.371094 208.464844 369.003906 211.433594 368.566406 214.398438 C 368.125 217.359375 367.613281 220.308594 367.03125 223.246094 C 366.445312 226.183594 365.789062 229.105469 365.0625 232.011719 C 364.332031 234.917969 363.535156 237.800781 362.664062 240.667969 C 361.796875 243.535156 360.855469 246.375 359.847656 249.195312 C 358.839844 252.015625 357.761719 254.808594 356.617188 257.578125 C 355.46875 260.34375 354.257812 263.082031 352.976562 265.789062 C 351.695312 268.496094 350.347656 271.171875 348.9375 273.8125 C 347.527344 276.453125 346.050781 279.058594 344.511719 281.625 C 342.96875 284.195312 341.367188 286.726562 339.703125 289.214844 C 338.039062 291.707031 336.316406 294.152344 334.53125 296.558594 C 332.75 298.964844 330.90625 301.324219 329.007812 303.640625 C 327.105469 305.953125 325.152344 308.222656 323.140625 310.441406 C 321.128906 312.660156 319.0625 314.828125 316.945312 316.945312 C 314.828125 319.0625 312.660156 321.128906 310.441406 323.140625 C 308.222656 325.152344 305.953125 327.105469 303.640625 329.007812 C 301.324219 330.90625 298.964844 332.75 296.558594 334.53125 C 294.152344 336.316406 291.707031 338.039062 289.214844 339.703125 C 286.726562 341.367188 284.195312 342.96875 281.625 344.511719 C 279.058594 346.050781 276.453125 347.527344 273.8125 348.9375 C 271.171875 350.347656 268.496094 351.695312 265.789062 352.976562 C 263.082031 354.257812 260.34375 355.46875 257.578125 356.617188 C 254.808594 357.761719 252.015625 358.839844 249.195312 359.847656 C 246.375 360.859375 243.535156 361.796875 240.667969 362.664062 C 237.800781 363.535156 234.917969 364.332031 232.011719 365.0625 C 229.105469 365.789062 226.183594 366.445312 223.246094 367.03125 C 220.308594 367.613281 217.359375 368.125 214.398438 368.566406 C 211.433594 369.003906 208.464844 369.371094 205.484375 369.664062 C 202.503906 369.957031 199.515625 370.179688 196.523438 370.324219 C 193.535156 370.472656 190.539062 370.546875 187.546875 370.546875 C 184.550781 370.546875 181.558594 370.472656 178.566406 370.324219 C 175.574219 370.179688 172.589844 369.957031 169.609375 369.664062 C 166.628906 369.371094 163.65625 369.003906 160.695312 368.566406 C 157.730469 368.125 154.78125 367.613281 151.84375 367.03125 C 148.90625 366.445312 145.984375 365.789062 143.082031 365.0625 C 140.175781 364.332031 137.289062 363.535156 134.421875 362.664062 C 131.558594 361.796875 128.714844 360.859375 125.894531 359.847656 C 123.074219 358.839844 120.28125 357.761719 117.515625 356.617188 C 114.746094 355.46875 112.011719 354.257812 109.304688 352.976562 C 106.597656 351.695312 103.921875 350.347656 101.28125 348.9375 C 98.640625 347.527344 96.035156 346.050781 93.464844 344.511719 C 90.894531 342.96875 88.367188 341.367188 85.875 339.703125 C 83.386719 338.039062 80.9375 336.316406 78.53125 334.53125 C 76.128906 332.75 73.765625 330.90625 71.453125 329.007812 C 69.136719 327.105469 66.871094 325.152344 64.652344 323.140625 C 62.429688 321.128906 60.261719 319.0625 58.144531 316.945312 C 56.027344 314.828125 53.964844 312.660156 51.953125 310.441406 C 49.941406 308.222656 47.984375 305.953125 46.085938 303.640625 C 44.183594 301.324219 42.34375 298.964844 40.558594 296.558594 C 38.773438 294.152344 37.050781 291.707031 35.386719 289.214844 C 33.722656 286.726562 32.121094 284.195312 30.582031 281.625 C 29.042969 279.058594 27.566406 276.453125 26.152344 273.8125 C 24.742188 271.171875 23.394531 268.496094 22.117188 265.789062 C 20.835938 263.082031 19.621094 260.34375 18.476562 257.578125 C 17.328125 254.808594 16.253906 252.015625 15.242188 249.195312 C 14.234375 246.375 13.296875 243.535156 12.425781 240.667969 C 11.554688 237.800781 10.757812 234.917969 10.03125 232.011719 C 9.300781 229.105469 8.644531 226.183594 8.0625 223.246094 C 7.476562 220.308594 6.964844 217.359375 6.527344 214.398438 C 6.085938 211.433594 5.71875 208.464844 5.425781 205.484375 C 5.132812 202.503906 4.914062 199.515625 4.765625 196.523438 C 4.621094 193.535156 4.546875 190.539062 4.546875 187.546875 C 4.546875 184.550781 4.621094 181.558594 4.765625 178.566406 C 4.914062 175.574219 5.132812 172.589844 5.425781 169.609375 C 5.71875 166.628906 6.085938 163.65625 6.527344 160.695312 C 6.964844 157.730469 7.476562 154.78125 8.0625 151.84375 C 8.644531 148.90625 9.300781 145.984375 10.03125 143.082031 C 10.757812 140.175781 11.554688 137.289062 12.425781 134.421875 C 13.296875 131.558594 14.234375 128.714844 15.242188 125.894531 C 16.253906 123.074219 17.328125 120.28125 18.476562 117.515625 C 19.621094 114.746094 20.835938 112.011719 22.117188 109.304688 C 23.394531 106.597656 24.742188 103.921875 26.152344 101.28125 C 27.566406 98.640625 29.042969 96.035156 30.582031 93.464844 C 32.121094 90.894531 33.722656 88.367188 35.386719 85.875 C 37.050781 83.386719 38.773438 80.9375 40.558594 78.53125 C 42.34375 76.128906 44.183594 73.765625 46.085938 71.453125 C 47.984375 69.136719 49.941406 66.871094 51.953125 64.652344 C 53.964844 62.429688 56.027344 60.261719 58.144531 58.144531 C 60.261719 56.027344 62.429688 53.964844 64.652344 51.953125 C 66.871094 49.941406 69.136719 47.984375 71.453125 46.085938 C 73.765625 44.183594 76.128906 42.34375 78.53125 40.558594 C 80.9375 38.773438 83.386719 37.050781 85.875 35.386719 C 88.367188 33.722656 90.894531 32.121094 93.464844 30.582031 C 96.035156 29.042969 98.640625 27.566406 101.28125 26.15625 C 103.921875 24.742188 106.597656 23.394531 109.304688 22.117188 C 112.011719 20.835938 114.746094 19.621094 117.515625 18.476562 C 120.28125 17.328125 123.074219 16.253906 125.894531 15.242188 C 128.714844 14.234375 131.558594 13.296875 134.421875 12.425781 C 137.289062 11.554688 140.175781 10.757812 143.082031 10.03125 C 145.984375 9.300781 148.90625 8.648438 151.84375 8.0625 C 154.78125 7.476562 157.730469 6.964844 160.695312 6.527344 C 163.65625 6.085938 166.628906 5.71875 169.609375 5.425781 C 172.589844 5.132812 175.574219 4.914062 178.566406 4.765625 C 181.558594 4.621094 184.550781 4.546875 187.546875 4.546875 C 190.539062 4.546875 193.535156 4.621094 196.523438 4.765625 C 199.515625 4.914062 202.503906 5.132812 205.484375 5.425781 C 208.464844 5.71875 211.433594 6.085938 214.398438 6.527344 C 217.359375 6.964844 220.308594 7.476562 223.246094 8.0625 C 226.183594 8.648438 229.105469 9.300781 232.011719 10.03125 C 234.917969 10.757812 237.800781 11.554688 240.667969 12.425781 C 243.535156 13.296875 246.375 14.234375 249.195312 15.242188 C 252.015625 16.253906 254.808594 17.328125 257.578125 18.476562 C 260.34375 19.621094 263.082031 20.835938 265.789062 22.117188 C 268.496094 23.394531 271.171875 24.742188 273.8125 26.15625 C 276.453125 27.566406 279.058594 29.042969 281.625 30.582031 C 284.195312 32.121094 286.726562 33.722656 289.214844 35.386719 C 291.707031 37.050781 294.152344 38.773438 296.558594 40.558594 C 298.964844 42.34375 301.324219 44.183594 303.640625 46.085938 C 305.953125 47.984375 308.222656 49.941406 310.441406 51.953125 C 312.660156 53.964844 314.828125 56.027344 316.945312 58.144531 C 319.0625 60.261719 321.128906 62.429688 323.140625 64.652344 C 325.152344 66.871094 327.105469 69.136719 329.007812 71.453125 C 330.90625 73.765625 332.75 76.128906 334.53125 78.53125 C 336.316406 80.9375 338.039062 83.386719 339.703125 85.875 C 341.367188 88.367188 342.96875 90.894531 344.511719 93.464844 C 346.050781 96.035156 347.527344 98.640625 348.9375 101.28125 C 350.347656 103.921875 351.695312 106.597656 352.976562 109.304688 C 354.257812 112.011719 355.46875 114.746094 356.617188 117.515625 C 357.761719 120.28125 358.839844 123.074219 359.847656 125.894531 C 360.855469 128.714844 361.796875 131.558594 362.664062 134.421875 C 363.535156 137.289062 364.332031 140.175781 365.0625 143.082031 C 365.789062 145.984375 366.445312 148.90625 367.03125 151.84375 C 367.613281 154.78125 368.125 157.730469 368.566406 160.695312 C 369.003906 163.65625 369.371094 166.628906 369.664062 169.609375 C 369.957031 172.589844 370.179688 175.574219 370.324219 178.566406 C 370.472656 181.558594 370.546875 184.550781 370.546875 187.546875 Z M 370.546875 187.546875 " fill-opacity="1" fill-rule="nonzero"/></g><path fill="#ffffff" d="M 187.546875 353.089844 C 96.183594 353.089844 22 278.910156 22 187.546875 C 22 96.183594 96.183594 22 187.546875 22 C 278.910156 22 353.089844 96.183594 353.089844 187.546875 C 353.089844 278.910156 278.910156 353.089844 187.546875 353.089844 Z M 187.546875 26.089844 C 98.363281 26.089844 26.089844 98.363281 26.089844 187.546875 C 26.089844 276.726562 98.636719 349 187.546875 349 C 276.726562 349 349 276.453125 349 187.546875 C 349 98.363281 276.726562 26.089844 187.546875 26.089844 Z M 187.546875 26.089844 " fill-opacity="1" fill-rule="nonzero"/><g clip-path="url(#id2)"><path fill="#ffffff" d="M 267.628906 137.105469 C 267.628906 135.347656 266.183594 133.90625 264.421875 133.90625 L 257.6875 133.90625 L 252.398438 115.351562 C 256.246094 113.113281 258.8125 109.113281 258.8125 104.3125 C 258.8125 98.394531 254.644531 93.4375 249.191406 91.996094 L 249.191406 88.15625 C 249.191406 86.398438 247.75 84.957031 245.984375 84.957031 C 244.222656 84.957031 242.78125 86.398438 242.78125 88.15625 L 242.78125 91.996094 C 237.167969 93.4375 233.160156 98.394531 233.160156 104.3125 C 233.160156 108.953125 235.726562 113.113281 239.574219 115.351562 L 234.285156 133.90625 L 227.550781 133.90625 C 225.789062 133.90625 224.34375 135.347656 224.34375 137.105469 C 224.34375 138.867188 225.789062 140.304688 227.550781 140.304688 L 232.359375 140.304688 L 224.023438 169.578125 C 223.542969 171.335938 224.503906 173.097656 226.269531 173.578125 C 226.589844 173.738281 226.910156 173.738281 227.070312 173.738281 C 228.511719 173.738281 229.792969 172.777344 230.117188 171.335938 L 238.933594 140.304688 L 252.878906 140.304688 L 258.8125 161.101562 L 260.734375 167.820312 L 261.695312 171.335938 C 262.015625 172.777344 263.460938 173.738281 264.742188 173.738281 C 265.0625 173.738281 265.382812 173.738281 265.542969 173.578125 C 267.308594 173.097656 268.269531 171.335938 267.789062 169.578125 L 267.148438 167.339844 L 265.703125 162.058594 L 259.613281 140.464844 L 264.421875 140.464844 C 266.183594 140.304688 267.628906 138.867188 267.628906 137.105469 Z M 240.855469 133.90625 L 245.664062 117.109375 C 245.824219 117.109375 245.824219 117.109375 245.984375 117.109375 C 246.144531 117.109375 246.144531 117.109375 246.308594 117.109375 L 251.117188 133.90625 Z M 245.984375 110.710938 C 242.460938 110.710938 239.574219 107.832031 239.574219 104.3125 C 239.574219 100.796875 242.460938 97.914062 245.984375 97.914062 C 249.511719 97.914062 252.398438 100.796875 252.398438 104.3125 C 252.398438 107.832031 249.511719 110.710938 245.984375 110.710938 Z M 245.984375 110.710938 " fill-opacity="1" fill-rule="nonzero"/></g><path fill="#ffffff" d="M 152.046875 172.777344 C 150.601562 171.816406 148.519531 172.136719 147.558594 173.738281 L 114.535156 223.324219 C 113.890625 224.285156 113.890625 225.40625 114.210938 226.363281 C 114.695312 227.324219 115.65625 228.125 116.617188 228.285156 L 205.269531 241.71875 L 216.167969 236.921875 L 122.710938 222.683594 L 153.007812 177.257812 C 153.96875 175.816406 153.648438 173.738281 152.046875 172.777344 Z M 152.046875 172.777344 " fill-opacity="1" fill-rule="nonzero"/><path fill="#ffffff" d="M 86 215.96875 C 84.074219 227.003906 91.289062 237.402344 102.191406 239.320312 C 102.351562 239.320312 183.144531 251.316406 183.144531 251.316406 L 194.207031 246.519531 C 194.207031 246.519531 103.632812 233.082031 103.3125 233.082031 C 95.9375 231.804688 90.96875 224.605469 92.25 217.246094 C 92.890625 213.726562 95.617188 210.367188 99.464844 208.449219 C 102.03125 207.167969 107.480469 205.410156 114.210938 208.769531 C 115.65625 209.570312 117.417969 209.089844 118.378906 207.648438 L 153.808594 154.382812 L 219.214844 162.539062 L 220.976562 156.300781 L 157.65625 148.304688 L 170.800781 128.46875 C 171.761719 127.027344 171.441406 124.949219 169.839844 123.988281 C 169.519531 123.828125 168.878906 123.507812 168.878906 123.507812 C 154.128906 118.070312 142.425781 128.148438 138.257812 134.226562 L 89.203125 208.289062 C 89.042969 208.609375 86.480469 213.726562 86 215.96875 Z M 86 215.96875 " fill-opacity="1" fill-rule="nonzero"/><path fill="#ffffff" d="M 263.460938 215.96875 L 290.390625 169.578125 C 290.871094 168.617188 291.03125 167.5 290.550781 166.539062 C 290.070312 165.578125 289.109375 164.9375 288.148438 164.78125 L 272.757812 162.859375 L 274.199219 167.820312 C 274.359375 168.457031 274.519531 168.9375 274.519531 169.578125 L 282.535156 170.539062 L 253.519531 220.445312 Z M 263.460938 215.96875 " fill-opacity="1" fill-rule="nonzero"/><path fill="#ffffff" d="M 251.917969 160.300781 L 240.375 158.859375 L 238.613281 165.097656 L 253.839844 167.019531 Z M 251.917969 160.300781 " fill-opacity="1" fill-rule="nonzero"/><path fill="#ffffff" d="M 245.183594 251.160156 L 227.070312 259.15625 L 240.695312 263.796875 Z M 245.183594 251.160156 " fill-opacity="1" fill-rule="nonzero"/><g clip-path="url(#id3)"><path fill="#ffffff" d="M 177.375 263.15625 C 177.375 264.433594 178.335938 265.554688 179.457031 266.035156 L 248.070312 289.550781 C 248.390625 289.707031 248.710938 289.707031 249.191406 289.707031 C 250.476562 289.707031 251.757812 288.910156 252.238281 287.628906 L 275.324219 223.804688 C 275.804688 222.523438 275.484375 221.246094 274.519531 220.445312 C 273.558594 219.644531 272.277344 219.324219 270.992188 219.804688 L 179.296875 260.117188 C 178.175781 260.597656 177.375 261.875 177.375 263.15625 Z M 216.96875 256.597656 L 249.511719 242.359375 C 250.636719 241.878906 252.078125 242.039062 253.039062 243 C 254 243.800781 254.320312 245.238281 253.839844 246.359375 L 245.664062 268.914062 C 245.183594 270.195312 243.902344 270.992188 242.621094 270.992188 C 242.300781 270.992188 241.976562 270.992188 241.496094 270.832031 L 217.289062 262.515625 C 216.007812 262.035156 215.207031 260.914062 215.046875 259.636719 C 215.046875 258.355469 215.847656 257.078125 216.96875 256.597656 Z M 216.96875 256.597656 " fill-opacity="1" fill-rule="nonzero"/></g><path fill="#ffffff" d="M 151.726562 214.367188 C 152.207031 215.328125 153.167969 215.96875 154.128906 216.125 C 154.128906 216.125 217.453125 225.40625 217.613281 225.40625 C 218.734375 225.40625 219.855469 224.765625 220.496094 223.804688 L 233.800781 200.128906 L 239.253906 205.089844 C 239.894531 205.570312 240.695312 205.890625 241.335938 205.890625 C 242.136719 205.890625 243.101562 205.570312 243.742188 204.769531 C 244.863281 203.488281 244.863281 201.410156 243.582031 200.289062 C 243.582031 200.289062 212.320312 172.136719 212.320312 172.136719 C 211.359375 171.019531 209.757812 171.496094 209.757812 171.496094 L 158.296875 180.777344 C 156.535156 181.09375 155.410156 182.695312 155.734375 184.453125 C 156.054688 186.054688 157.335938 187.015625 158.9375 187.015625 C 159.097656 187.015625 166.472656 185.734375 166.472656 185.734375 L 151.886719 211.488281 C 151.402344 212.449219 151.242188 213.40625 151.726562 214.367188 Z M 177.535156 202.53125 L 182.34375 194.210938 C 183.144531 192.613281 185.230469 192.132812 186.671875 192.933594 C 188.273438 193.730469 188.757812 195.8125 187.953125 197.25 L 185.390625 201.730469 L 204.785156 204.769531 L 208.632812 197.410156 C 209.4375 195.8125 211.359375 195.171875 212.960938 195.972656 C 214.566406 196.773438 215.207031 198.691406 214.40625 200.289062 L 209.597656 209.570312 C 209.113281 210.6875 207.992188 211.328125 206.710938 211.328125 C 206.550781 211.328125 179.9375 207.328125 179.9375 207.328125 C 178.816406 207.167969 178.015625 206.527344 177.535156 205.570312 C 176.894531 204.609375 177.054688 203.488281 177.535156 202.53125 Z M 177.535156 202.53125 " fill-opacity="1" fill-rule="nonzero"/></svg>