<svg xmlns="http://www.w3.org/2000/svg" xmlns:xlink="http://www.w3.org/1999/xlink" width="900" zoomAndPan="magnify" viewBox="0 0 675 149.999998" height="200" preserveAspectRatio="xMidYMid meet" version="1.0"><defs><g/><clipPath id="id1"><path d="M 551 83 L 659 83 L 659 148.40625 L 551 148.40625 Z M 551 83 " clip-rule="nonzero"/></clipPath><clipPath id="id2"><path d="M 600 2.90625 L 610 2.90625 L 610 13 L 600 13 Z M 600 2.90625 " clip-rule="nonzero"/></clipPath><clipPath id="id3"><path d="M 661 108 L 670.300781 108 L 670.300781 118 L 661 118 Z M 661 108 " clip-rule="nonzero"/></clipPath><clipPath id="id4"><path d="M 539.050781 108 L 549 108 L 549 118 L 539.050781 118 Z M 539.050781 108 " clip-rule="nonzero"/></clipPath></defs><rect x="-67.5" width="810" fill="#ffffff" y="-15" height="179.999997" fill-opacity="1"/><rect x="-67.5" width="810" fill="#ffffff" y="-15" height="179.999997" fill-opacity="1"/><rect x="-67.5" width="810" fill="#ffffff" y="-15" height="179.999997" fill-opacity="1"/><rect x="-67.5" width="810" fill="#ffffff" y="-15" height="179.999997" fill-opacity="1"/><path fill="#29aae3" d="M 550.269531 107.453125 L 602.621094 80.210938 L 602.621094 15.984375 C 601.464844 15.703125 600.410156 15.203125 599.457031 14.488281 C 598.503906 13.773438 597.730469 12.902344 597.132812 11.871094 L 543.714844 42.738281 L 543.714844 104.46875 C 544.972656 104.46875 546.171875 104.726562 547.316406 105.25 C 548.460938 105.769531 549.445312 106.503906 550.269531 107.453125 Z M 550.269531 107.453125 " fill-opacity="1" fill-rule="nonzero"/><path fill="#05649c" d="M 606.730469 15.984375 L 606.730469 80.210938 L 659.082031 107.453125 C 659.90625 106.503906 660.890625 105.769531 662.035156 105.25 C 663.179688 104.726562 664.378906 104.46875 665.636719 104.46875 L 665.636719 42.738281 L 612.21875 11.871094 C 611.621094 12.902344 610.847656 13.773438 609.894531 14.488281 C 608.941406 15.203125 607.886719 15.703125 606.730469 15.984375 Z M 606.730469 15.984375 " fill-opacity="1" fill-rule="nonzero"/><path fill="#00dee7" d="M 546.414062 109.457031 C 545.609375 108.871094 544.710938 108.578125 543.714844 108.582031 C 544.710938 108.578125 545.609375 108.871094 546.414062 109.457031 Z M 546.414062 109.457031 " fill-opacity="1" fill-rule="nonzero"/><path fill="#00dee7" d="M 665.636719 108.582031 C 664.640625 108.578125 663.738281 108.871094 662.933594 109.457031 C 663.738281 108.871094 664.640625 108.578125 665.636719 108.582031 Z M 665.636719 108.582031 " fill-opacity="1" fill-rule="nonzero"/><path fill="#00dee7" d="M 601.921875 11.203125 C 601.804688 11.117188 601.6875 11.023438 601.582031 10.921875 C 601.6875 11.023438 601.804688 11.117188 601.921875 11.203125 Z M 601.921875 11.203125 " fill-opacity="1" fill-rule="nonzero"/><path fill="#00dee7" d="M 600.6875 9.816406 C 600.816406 10.039062 600.960938 10.246094 601.125 10.445312 C 600.960938 10.246094 600.816406 10.039062 600.6875 9.816406 Z M 600.6875 9.816406 " fill-opacity="1" fill-rule="nonzero"/><path fill="#00dee7" d="M 602.480469 11.5625 C 602.527344 11.589844 602.574219 11.613281 602.621094 11.636719 C 602.574219 11.613281 602.527344 11.589844 602.480469 11.5625 Z M 602.480469 11.5625 " fill-opacity="1" fill-rule="nonzero"/><path fill="#00dee7" d="M 548.316406 113.1875 C 548.316406 114.007812 548.113281 114.777344 547.703125 115.488281 C 548.113281 114.777344 548.316406 114.007812 548.316406 113.1875 C 548.316406 113.160156 548.316406 113.132812 548.316406 113.105469 C 548.316406 113.132812 548.316406 113.160156 548.316406 113.1875 Z M 548.316406 113.1875 " fill-opacity="1" fill-rule="nonzero"/><g clip-path="url(#id1)"><path fill="#333333" d="M 657.175781 111.097656 L 604.675781 83.777344 L 552.171875 111.097656 C 552.441406 112.191406 552.5 113.296875 552.339844 114.410156 C 552.183594 115.523438 551.820312 116.566406 551.257812 117.542969 L 604.675781 148.40625 L 658.09375 117.542969 C 657.527344 116.566406 657.167969 115.523438 657.007812 114.410156 C 656.851562 113.296875 656.90625 112.191406 657.175781 111.097656 Z M 657.175781 111.097656 " fill-opacity="1" fill-rule="nonzero"/></g><g clip-path="url(#id2)"><path fill="#29aae3" d="M 602.882812 11.757812 C 602.953125 11.789062 603.023438 11.816406 603.09375 11.839844 C 603.234375 11.890625 603.378906 11.9375 603.523438 11.976562 C 603.863281 12.0625 604.210938 12.109375 604.5625 12.117188 C 604.914062 12.128906 605.257812 12.097656 605.601562 12.023438 C 605.945312 11.953125 606.277344 11.84375 606.597656 11.699219 C 606.917969 11.550781 607.214844 11.371094 607.492188 11.152344 C 607.769531 10.9375 608.019531 10.695312 608.242188 10.421875 C 608.460938 10.148438 608.648438 9.855469 608.804688 9.539062 C 608.960938 9.226562 609.074219 8.894531 609.15625 8.554688 C 609.234375 8.210938 609.273438 7.863281 609.273438 7.511719 C 609.273438 7.160156 609.234375 6.816406 609.15625 6.472656 C 609.074219 6.128906 608.960938 5.800781 608.804688 5.484375 C 608.648438 5.171875 608.460938 4.875 608.242188 4.605469 C 608.019531 4.332031 607.769531 4.089844 607.492188 3.871094 C 607.214844 3.65625 606.917969 3.476562 606.597656 3.328125 C 606.277344 3.183594 605.945312 3.074219 605.601562 3 C 605.257812 2.929688 604.914062 2.898438 604.5625 2.90625 C 604.210938 2.917969 603.863281 2.964844 603.523438 3.050781 C 603.378906 3.089844 603.234375 3.132812 603.09375 3.1875 C 603.023438 3.210938 602.953125 3.238281 602.882812 3.269531 C 602.746094 3.328125 602.613281 3.390625 602.480469 3.460938 C 602.285156 3.570312 602.097656 3.6875 601.921875 3.820312 C 601.804688 3.910156 601.6875 4.003906 601.582031 4.101562 C 601.101562 4.539062 600.726562 5.054688 600.464844 5.648438 C 600.203125 6.242188 600.070312 6.863281 600.070312 7.511719 C 600.074219 8.617188 600.421875 9.59375 601.125 10.445312 C 601.265625 10.613281 601.417969 10.773438 601.582031 10.921875 C 601.6875 11.023438 601.804688 11.117188 601.921875 11.203125 C 602.097656 11.339844 602.285156 11.457031 602.480469 11.5625 C 602.527344 11.589844 602.574219 11.613281 602.621094 11.636719 C 602.707031 11.679688 602.792969 11.71875 602.882812 11.757812 Z M 602.882812 11.757812 " fill-opacity="1" fill-rule="nonzero"/></g><g clip-path="url(#id3)"><path fill="#29aae3" d="M 669.960938 111.605469 C 669.933594 111.535156 669.90625 111.464844 669.878906 111.394531 C 669.820312 111.257812 669.753906 111.121094 669.683594 110.992188 C 669.578125 110.796875 669.457031 110.609375 669.324219 110.429688 C 669.238281 110.3125 669.144531 110.199219 669.042969 110.089844 C 668.609375 109.609375 668.09375 109.238281 667.5 108.976562 C 666.90625 108.710938 666.285156 108.582031 665.636719 108.582031 C 664.640625 108.578125 663.738281 108.871094 662.933594 109.457031 C 662.859375 109.515625 662.78125 109.574219 662.707031 109.632812 C 662.539062 109.773438 662.378906 109.925781 662.230469 110.089844 C 662.128906 110.199219 662.035156 110.3125 661.949219 110.429688 C 661.816406 110.609375 661.695312 110.796875 661.589844 110.992188 C 661.519531 111.121094 661.453125 111.257812 661.394531 111.394531 C 661.367188 111.464844 661.339844 111.535156 661.3125 111.605469 C 661.261719 111.746094 661.214844 111.890625 661.179688 112.035156 C 661.089844 112.375 661.042969 112.722656 661.035156 113.074219 C 661.027344 113.425781 661.058594 113.773438 661.128906 114.117188 C 661.199219 114.460938 661.308594 114.792969 661.457031 115.113281 C 661.601562 115.429688 661.785156 115.730469 662 116.007812 C 662.214844 116.285156 662.457031 116.535156 662.730469 116.753906 C 663.003906 116.976562 663.296875 117.164062 663.609375 117.320312 C 663.925781 117.476562 664.253906 117.59375 664.597656 117.671875 C 664.9375 117.75 665.285156 117.789062 665.636719 117.789062 C 665.988281 117.789062 666.335938 117.75 666.675781 117.671875 C 667.019531 117.59375 667.347656 117.476562 667.660156 117.320312 C 667.976562 117.164062 668.269531 116.976562 668.542969 116.753906 C 668.816406 116.535156 669.058594 116.285156 669.273438 116.007812 C 669.488281 115.730469 669.671875 115.429688 669.816406 115.113281 C 669.964844 114.792969 670.074219 114.460938 670.144531 114.117188 C 670.214844 113.773438 670.246094 113.425781 670.238281 113.074219 C 670.230469 112.722656 670.183594 112.375 670.09375 112.035156 C 670.058594 111.890625 670.011719 111.746094 669.960938 111.605469 Z M 669.960938 111.605469 " fill-opacity="1" fill-rule="nonzero"/></g><g clip-path="url(#id4)"><path fill="#29aae3" d="M 548.316406 113.1875 C 548.316406 113.160156 548.316406 113.132812 548.316406 113.105469 C 548.296875 111.949219 547.898438 110.945312 547.121094 110.089844 C 547.023438 109.980469 546.917969 109.878906 546.808594 109.777344 C 545.929688 108.980469 544.898438 108.582031 543.714844 108.582031 C 542.871094 108.582031 542.085938 108.796875 541.359375 109.230469 C 540.632812 109.664062 540.070312 110.25 539.667969 110.992188 C 539.59375 111.121094 539.53125 111.257812 539.472656 111.394531 C 539.445312 111.464844 539.414062 111.53125 539.390625 111.605469 C 539.339844 111.746094 539.292969 111.890625 539.253906 112.035156 C 539.136719 112.5 539.089844 112.96875 539.117188 113.445312 C 539.140625 113.921875 539.238281 114.382812 539.410156 114.828125 C 539.578125 115.273438 539.8125 115.683594 540.109375 116.058594 C 540.40625 116.429688 540.75 116.75 541.148438 117.015625 C 541.542969 117.28125 541.96875 117.480469 542.425781 117.613281 C 542.886719 117.746094 543.351562 117.808594 543.828125 117.796875 C 544.304688 117.785156 544.769531 117.699219 545.21875 117.542969 C 545.671875 117.386719 546.085938 117.164062 546.46875 116.878906 C 546.554688 116.816406 546.636719 116.746094 546.71875 116.675781 C 547.113281 116.335938 547.441406 115.9375 547.703125 115.488281 C 548.113281 114.777344 548.316406 114.007812 548.316406 113.1875 Z M 548.316406 113.1875 " fill-opacity="1" fill-rule="nonzero"/></g><g fill="#05649c" fill-opacity="1"><g transform="translate(115.506083, 53.896758)"><g><path d="M 12.546875 -30.34375 L 9.109375 -26.90625 L 5.640625 -30.34375 L 9.015625 -33.71875 Z M 16.296875 -4.234375 C 16.609375 -4.234375 16.765625 -4.085938 16.765625 -3.796875 L 16.765625 -0.46875 C 16.765625 -0.15625 16.609375 0 16.296875 0 C 13.890625 0 12.117188 -0.828125 10.984375 -2.484375 L 10.984375 -1.265625 C 10.984375 2.648438 9.984375 5.519531 7.984375 7.34375 C 5.984375 9.175781 2.976562 10.09375 -1.03125 10.09375 L -1.40625 6.671875 C 4.226562 6.671875 7.046875 3.976562 7.046875 -1.40625 L 7 -22.6875 L 10.984375 -23.34375 L 10.984375 -8.6875 C 11.203125 -5.71875 12.972656 -4.234375 16.296875 -4.234375 Z M 16.296875 -4.234375 "/></g></g></g><g fill="#05649c" fill-opacity="1"><g transform="translate(131.851222, 53.896758)"><g><path d="M 17.65625 -4.234375 C 17.96875 -4.234375 18.125 -4.085938 18.125 -3.796875 L 18.125 -0.46875 C 18.125 -0.15625 17.96875 0 17.65625 0 C 14.75 0 12.054688 -1.140625 9.578125 -3.421875 C 7.890625 -1.140625 4.695312 0 0 0 C -0.3125 0 -0.46875 -0.15625 -0.46875 -0.46875 L -0.421875 -3.796875 C -0.421875 -4.085938 -0.265625 -4.234375 0.046875 -4.234375 C 2.546875 -4.234375 4.367188 -4.691406 5.515625 -5.609375 C 6.660156 -6.535156 7.234375 -8.03125 7.234375 -10.09375 L 7.234375 -17.703125 L 11.171875 -18.3125 L 11.171875 -9.015625 C 11.171875 -8.234375 11.09375 -7.421875 10.9375 -6.578125 C 13.039062 -5.015625 15.28125 -4.234375 17.65625 -4.234375 Z M 1.546875 7.09375 L 4.984375 3.703125 L 8.40625 7.09375 L 4.984375 10.46875 Z M 8.96875 7.09375 L 12.453125 3.703125 L 15.875 7.09375 L 12.453125 10.46875 Z M 8.96875 7.09375 "/></g></g></g><g fill="#05649c" fill-opacity="1"><g transform="translate(149.511491, 53.896758)"><g><path d="M 26.484375 -4.234375 C 26.796875 -4.234375 26.953125 -4.085938 26.953125 -3.796875 L 26.953125 -0.46875 C 26.953125 -0.15625 26.796875 0 26.484375 0 L 15.125 0 C 12.019531 0 9.421875 -0.765625 7.328125 -2.296875 C 4.878906 -0.765625 2.4375 0 0 0 C -0.3125 0 -0.46875 -0.15625 -0.46875 -0.46875 L -0.46875 -3.796875 C -0.46875 -4.085938 -0.3125 -4.234375 0 -4.234375 C 1.625 -4.234375 3.175781 -4.578125 4.65625 -5.265625 C 3.519531 -7.109375 2.953125 -9.316406 2.953125 -11.890625 C 2.953125 -15.015625 3.953125 -17.609375 5.953125 -19.671875 C 7.960938 -21.742188 10.519531 -22.78125 13.625 -22.78125 C 16.53125 -22.78125 19.015625 -21.738281 21.078125 -19.65625 C 23.148438 -17.570312 24.1875 -15.125 24.1875 -12.3125 C 24.1875 -9.863281 23.640625 -7.171875 22.546875 -4.234375 Z M 14.796875 -4.234375 L 18.6875 -4.234375 C 19.789062 -7.296875 20.34375 -9.765625 20.34375 -11.640625 C 20.34375 -13.554688 19.722656 -15.234375 18.484375 -16.671875 C 17.242188 -18.109375 15.703125 -18.828125 13.859375 -18.828125 C 11.753906 -18.828125 10.078125 -18.175781 8.828125 -16.875 C 7.578125 -15.582031 6.953125 -13.867188 6.953125 -11.734375 C 6.953125 -9.484375 7.65625 -7.671875 9.0625 -6.296875 C 10.46875 -4.921875 12.378906 -4.234375 14.796875 -4.234375 Z M 14.796875 -4.234375 "/></g></g></g><g fill="#05649c" fill-opacity="1"><g transform="translate(176.001878, 53.896758)"><g><path d="M 26.484375 -4.234375 C 26.796875 -4.234375 26.953125 -4.085938 26.953125 -3.796875 L 26.953125 -0.46875 C 26.953125 -0.15625 26.796875 0 26.484375 0 L 15.125 0 C 12.019531 0 9.421875 -0.765625 7.328125 -2.296875 C 4.878906 -0.765625 2.4375 0 0 0 C -0.3125 0 -0.46875 -0.15625 -0.46875 -0.46875 L -0.46875 -3.796875 C -0.46875 -4.085938 -0.3125 -4.234375 0 -4.234375 C 1.625 -4.234375 3.175781 -4.578125 4.65625 -5.265625 C 3.519531 -7.109375 2.953125 -9.316406 2.953125 -11.890625 C 2.953125 -15.015625 3.953125 -17.609375 5.953125 -19.671875 C 7.960938 -21.742188 10.519531 -22.78125 13.625 -22.78125 C 16.53125 -22.78125 19.015625 -21.738281 21.078125 -19.65625 C 23.148438 -17.570312 24.1875 -15.125 24.1875 -12.3125 C 24.1875 -9.863281 23.640625 -7.171875 22.546875 -4.234375 Z M 14.796875 -4.234375 L 18.6875 -4.234375 C 19.789062 -7.296875 20.34375 -9.765625 20.34375 -11.640625 C 20.34375 -13.554688 19.722656 -15.234375 18.484375 -16.671875 C 17.242188 -18.109375 15.703125 -18.828125 13.859375 -18.828125 C 11.753906 -18.828125 10.078125 -18.175781 8.828125 -16.875 C 7.578125 -15.582031 6.953125 -13.867188 6.953125 -11.734375 C 6.953125 -9.484375 7.65625 -7.671875 9.0625 -6.296875 C 10.46875 -4.921875 12.378906 -4.234375 14.796875 -4.234375 Z M 14.796875 -4.234375 "/></g></g></g><g fill="#05649c" fill-opacity="1"><g transform="translate(202.492266, 53.896758)"><g><path d="M 0 0 C -0.3125 0 -0.46875 -0.15625 -0.46875 -0.46875 L -0.46875 -3.796875 C -0.46875 -4.085938 -0.296875 -4.234375 0.046875 -4.234375 C 3.960938 -4.234375 5.921875 -6.265625 5.921875 -10.328125 L 5.96875 -33.671875 L 9.90625 -34.28125 L 9.90625 -9.390625 C 9.90625 -3.128906 6.601562 0 0 0 Z M 0 0 "/></g></g></g><g fill="#05649c" fill-opacity="1"><g transform="translate(216.441988, 53.896758)"><g><path d="M 4.09375 0 L 4.09375 -33.671875 L 8.078125 -34.28125 L 8.078125 0 Z M 4.09375 0 "/></g></g></g><g fill="#05649c" fill-opacity="1"><g transform="translate(228.372052, 53.896758)"><g/></g></g><g fill="#05649c" fill-opacity="1"><g transform="translate(239.644559, 53.896758)"><g><path d="M 40.859375 -4.234375 C 41.171875 -4.234375 41.328125 -4.085938 41.328125 -3.796875 L 41.328125 -0.46875 C 41.328125 -0.15625 41.171875 0 40.859375 0 C 38.203125 0 35.710938 -1.015625 33.390625 -3.046875 C 31.796875 -1.109375 29.273438 -0.09375 25.828125 0 L 13.53125 0 C 9.769531 0 6.910156 -0.875 4.953125 -2.625 C 2.992188 -4.382812 2.015625 -6.984375 2.015625 -10.421875 C 2.015625 -13.023438 2.484375 -16.441406 3.421875 -20.671875 L 6.90625 -20.203125 C 6.15625 -16.347656 5.78125 -13.445312 5.78125 -11.5 C 5.78125 -6.65625 8.675781 -4.234375 14.46875 -4.234375 L 25.3125 -4.234375 C 29.257812 -4.234375 31.234375 -6.1875 31.234375 -10.09375 L 31.234375 -17.703125 L 35.21875 -18.3125 L 35.21875 -9.015625 C 35.21875 -7.921875 35.109375 -6.984375 34.890625 -6.203125 C 36.835938 -4.890625 38.828125 -4.234375 40.859375 -4.234375 Z M 16.484375 7.09375 L 19.875 3.65625 L 23.390625 7.09375 L 19.96875 10.46875 Z M 16.484375 7.09375 "/></g></g></g><g fill="#05649c" fill-opacity="1"><g transform="translate(280.507399, 53.896758)"><g><path d="M 28.140625 -4.234375 C 28.453125 -4.234375 28.609375 -4.085938 28.609375 -3.796875 L 28.609375 -0.46875 C 28.609375 -0.15625 28.453125 0 28.140625 0 C 22.660156 0 18.242188 -0.828125 14.890625 -2.484375 C 12.785156 -1.546875 10.625 -0.894531 8.40625 -0.53125 C 6.1875 -0.175781 3.382812 0 0 0 C -0.3125 -0.03125 -0.46875 -0.1875 -0.46875 -0.46875 L -0.46875 -3.796875 C -0.46875 -4.085938 -0.3125 -4.234375 0 -4.234375 C 3.226562 -4.234375 6.40625 -4.515625 9.53125 -5.078125 C 7.875 -7.046875 6.460938 -8.898438 5.296875 -10.640625 C 4.140625 -12.378906 2.859375 -14.578125 1.453125 -17.234375 L 2.953125 -20.859375 C 7.335938 -23.109375 11.300781 -24.234375 14.84375 -24.234375 C 17.96875 -24.234375 20.5625 -23.398438 22.625 -21.734375 C 24.695312 -20.078125 25.734375 -17.96875 25.734375 -15.40625 C 25.734375 -13.625 25.1875 -11.816406 24.09375 -9.984375 C 23 -8.148438 21.382812 -6.484375 19.25 -4.984375 C 21.757812 -4.484375 24.722656 -4.234375 28.140625 -4.234375 Z M 14.1875 -20.203125 C 11.738281 -20.234375 8.90625 -19.492188 5.6875 -17.984375 C 7.0625 -15.328125 8.347656 -13.113281 9.546875 -11.34375 C 10.753906 -9.570312 12.238281 -7.703125 14 -5.734375 C 16.25 -6.828125 18.085938 -8.15625 19.515625 -9.71875 C 20.941406 -11.289062 21.65625 -12.75 21.65625 -14.09375 C 21.65625 -15.90625 20.972656 -17.375 19.609375 -18.5 C 18.242188 -19.632812 16.4375 -20.203125 14.1875 -20.203125 Z M 14.1875 -20.203125 "/></g></g></g><g fill="#05649c" fill-opacity="1"><g transform="translate(308.73563, 53.896758)"><g><path d="M 30.71875 -4.234375 C 31.03125 -4.234375 31.1875 -4.085938 31.1875 -3.796875 L 31.1875 -0.46875 C 31.1875 -0.15625 31.03125 0 30.71875 0 C 27.957031 0 25.421875 -1.0625 23.109375 -3.1875 C 21.234375 -1.0625 18.492188 0 14.890625 0 L 0 0 C -0.3125 0 -0.46875 -0.15625 -0.46875 -0.46875 L -0.46875 -3.796875 C -0.46875 -4.085938 -0.3125 -4.234375 0 -4.234375 L 14.5625 -4.234375 C 16.71875 -4.234375 18.414062 -4.75 19.65625 -5.78125 C 20.894531 -6.8125 21.515625 -8.25 21.515625 -10.09375 C 21.515625 -11.945312 20.894531 -13.410156 19.65625 -14.484375 C 18.414062 -15.566406 16.734375 -16.109375 14.609375 -16.109375 L 3.28125 -16.109375 L 1.125 -19.921875 L 15.171875 -36.546875 L 19.015625 -34.515625 L 5.828125 -19.875 L 14.1875 -19.875 C 17.625 -19.875 20.367188 -18.988281 22.421875 -17.21875 C 24.472656 -15.445312 25.5 -13.054688 25.5 -10.046875 C 25.5 -8.546875 25.296875 -7.25 24.890625 -6.15625 C 26.710938 -4.875 28.65625 -4.234375 30.71875 -4.234375 Z M 30.71875 -4.234375 "/></g></g></g><g fill="#05649c" fill-opacity="1"><g transform="translate(339.453205, 53.896758)"><g><path d="M 26.484375 -4.234375 C 26.796875 -4.234375 26.953125 -4.085938 26.953125 -3.796875 L 26.953125 -0.46875 C 26.953125 -0.15625 26.796875 0 26.484375 0 L 15.125 0 C 12.019531 0 9.421875 -0.765625 7.328125 -2.296875 C 4.878906 -0.765625 2.4375 0 0 0 C -0.3125 0 -0.46875 -0.15625 -0.46875 -0.46875 L -0.46875 -3.796875 C -0.46875 -4.085938 -0.3125 -4.234375 0 -4.234375 C 1.625 -4.234375 3.175781 -4.578125 4.65625 -5.265625 C 3.519531 -7.109375 2.953125 -9.316406 2.953125 -11.890625 C 2.953125 -15.015625 3.953125 -17.609375 5.953125 -19.671875 C 7.960938 -21.742188 10.519531 -22.78125 13.625 -22.78125 C 16.53125 -22.78125 19.015625 -21.738281 21.078125 -19.65625 C 23.148438 -17.570312 24.1875 -15.125 24.1875 -12.3125 C 24.1875 -9.863281 23.640625 -7.171875 22.546875 -4.234375 Z M 14.796875 -4.234375 L 18.6875 -4.234375 C 19.789062 -7.296875 20.34375 -9.765625 20.34375 -11.640625 C 20.34375 -13.554688 19.722656 -15.234375 18.484375 -16.671875 C 17.242188 -18.109375 15.703125 -18.828125 13.859375 -18.828125 C 11.753906 -18.828125 10.078125 -18.175781 8.828125 -16.875 C 7.578125 -15.582031 6.953125 -13.867188 6.953125 -11.734375 C 6.953125 -9.484375 7.65625 -7.671875 9.0625 -6.296875 C 10.46875 -4.921875 12.378906 -4.234375 14.796875 -4.234375 Z M 14.796875 -4.234375 "/></g></g></g><g fill="#05649c" fill-opacity="1"><g transform="translate(365.943593, 53.896758)"><g><path d="M 0 0 C -0.3125 0 -0.46875 -0.15625 -0.46875 -0.46875 L -0.46875 -3.796875 C -0.46875 -4.085938 -0.296875 -4.234375 0.046875 -4.234375 C 3.960938 -4.234375 5.921875 -6.265625 5.921875 -10.328125 L 5.96875 -33.671875 L 9.90625 -34.28125 L 9.90625 -9.390625 C 9.90625 -3.128906 6.601562 0 0 0 Z M 0 0 "/></g></g></g><g fill="#05649c" fill-opacity="1"><g transform="translate(379.893315, 53.896758)"><g><path d="M 4.09375 0 L 4.09375 -33.671875 L 8.078125 -34.28125 L 8.078125 0 Z M 4.09375 0 "/></g></g></g><g fill="#05649c" fill-opacity="1"><g transform="translate(391.823379, 53.896758)"><g/></g></g><g fill="#05649c" fill-opacity="1"><g transform="translate(403.095901, 53.896758)"><g><path d="M 40.859375 -4.234375 C 41.171875 -4.234375 41.328125 -4.085938 41.328125 -3.796875 L 41.328125 -0.46875 C 41.328125 -0.15625 41.171875 0 40.859375 0 C 38.203125 0 35.710938 -1.015625 33.390625 -3.046875 C 31.796875 -1.109375 29.273438 -0.09375 25.828125 0 L 13.53125 0 C 9.769531 0 6.910156 -0.875 4.953125 -2.625 C 2.992188 -4.382812 2.015625 -6.984375 2.015625 -10.421875 C 2.015625 -13.023438 2.484375 -16.441406 3.421875 -20.671875 L 6.90625 -20.203125 C 6.15625 -16.347656 5.78125 -13.445312 5.78125 -11.5 C 5.78125 -6.65625 8.675781 -4.234375 14.46875 -4.234375 L 25.3125 -4.234375 C 29.257812 -4.234375 31.234375 -6.1875 31.234375 -10.09375 L 31.234375 -17.703125 L 35.21875 -18.3125 L 35.21875 -9.015625 C 35.21875 -7.921875 35.109375 -6.984375 34.890625 -6.203125 C 36.835938 -4.890625 38.828125 -4.234375 40.859375 -4.234375 Z M 16.484375 7.09375 L 19.875 3.65625 L 23.390625 7.09375 L 19.96875 10.46875 Z M 16.484375 7.09375 "/></g></g></g><g fill="#05649c" fill-opacity="1"><g transform="translate(443.958756, 53.896758)"><g><path d="M 8.640625 -25.078125 L 5.21875 -21.703125 L 1.78125 -25.078125 L 5.21875 -28.46875 Z M 16.109375 -25.078125 L 12.6875 -21.703125 L 9.203125 -25.078125 L 12.6875 -28.46875 Z M 17.65625 -4.234375 C 17.96875 -4.234375 18.125 -4.085938 18.125 -3.796875 L 18.125 -0.46875 C 18.125 -0.15625 17.96875 0 17.65625 0 C 14.75 0 12.054688 -1.140625 9.578125 -3.421875 C 7.890625 -1.140625 4.695312 0 0 0 C -0.3125 0 -0.46875 -0.15625 -0.46875 -0.46875 L -0.421875 -3.796875 C -0.421875 -4.085938 -0.265625 -4.234375 0.046875 -4.234375 C 2.546875 -4.234375 4.367188 -4.691406 5.515625 -5.609375 C 6.660156 -6.535156 7.234375 -8.03125 7.234375 -10.09375 L 7.234375 -17.703125 L 11.171875 -18.3125 L 11.171875 -9.015625 C 11.171875 -8.234375 11.09375 -7.421875 10.9375 -6.578125 C 13.039062 -5.015625 15.28125 -4.234375 17.65625 -4.234375 Z M 17.65625 -4.234375 "/></g></g></g><g fill="#05649c" fill-opacity="1"><g transform="translate(461.619025, 53.896758)"><g><path d="M 30.71875 -4.234375 C 31.03125 -4.234375 31.1875 -4.085938 31.1875 -3.796875 L 31.1875 -0.46875 C 31.1875 -0.15625 31.03125 0 30.71875 0 C 27.957031 0 25.421875 -1.0625 23.109375 -3.1875 C 21.234375 -1.0625 18.492188 0 14.890625 0 L 0 0 C -0.3125 0 -0.46875 -0.15625 -0.46875 -0.46875 L -0.46875 -3.796875 C -0.46875 -4.085938 -0.3125 -4.234375 0 -4.234375 L 14.5625 -4.234375 C 16.71875 -4.234375 18.414062 -4.75 19.65625 -5.78125 C 20.894531 -6.8125 21.515625 -8.25 21.515625 -10.09375 C 21.515625 -11.945312 20.894531 -13.410156 19.65625 -14.484375 C 18.414062 -15.566406 16.734375 -16.109375 14.609375 -16.109375 L 3.28125 -16.109375 L 1.125 -19.921875 L 15.171875 -36.546875 L 19.015625 -34.515625 L 5.828125 -19.875 L 14.1875 -19.875 C 17.625 -19.875 20.367188 -18.988281 22.421875 -17.21875 C 24.472656 -15.445312 25.5 -13.054688 25.5 -10.046875 C 25.5 -8.546875 25.296875 -7.25 24.890625 -6.15625 C 26.710938 -4.875 28.65625 -4.234375 30.71875 -4.234375 Z M 30.71875 -4.234375 "/></g></g></g><g fill="#05649c" fill-opacity="1"><g transform="translate(492.336585, 53.896758)"><g><path d="M 12.828125 -22.78125 C 15.828125 -22.78125 18.34375 -21.753906 20.375 -19.703125 C 22.414062 -17.648438 23.4375 -15.09375 23.4375 -12.03125 C 23.4375 -8.269531 22.269531 -5.320312 19.9375 -3.1875 C 17.601562 -1.0625 14.382812 0 10.28125 0 L 0 0 C -0.3125 0 -0.46875 -0.15625 -0.46875 -0.46875 L -0.46875 -3.796875 C -0.46875 -4.085938 -0.3125 -4.234375 0 -4.234375 L 4.046875 -4.234375 C 2.628906 -7.140625 1.921875 -9.675781 1.921875 -11.84375 C 1.921875 -15 2.945312 -17.609375 5 -19.671875 C 7.050781 -21.742188 9.660156 -22.78125 12.828125 -22.78125 Z M 10.609375 -4.234375 C 13.304688 -4.234375 15.453125 -4.90625 17.046875 -6.25 C 18.640625 -7.59375 19.4375 -9.472656 19.4375 -11.890625 C 19.4375 -13.890625 18.785156 -15.535156 17.484375 -16.828125 C 16.191406 -18.128906 14.5625 -18.78125 12.59375 -18.78125 C 10.707031 -18.78125 9.109375 -18.082031 7.796875 -16.6875 C 6.484375 -15.300781 5.828125 -13.671875 5.828125 -11.796875 C 5.828125 -9.535156 6.609375 -7.015625 8.171875 -4.234375 Z M 10.609375 -4.234375 "/></g></g></g><g fill="#333333" fill-opacity="1"><g transform="translate(114.375983, 120.313041)"><g><path d="M 10.71875 -26.8125 L 7.703125 -23.828125 L 4.671875 -26.8125 L 7.703125 -29.796875 Z M 17.296875 -26.8125 L 14.28125 -23.828125 L 11.21875 -26.8125 L 14.28125 -29.796875 Z M 24.125 -3.71875 C 24.394531 -3.71875 24.53125 -3.59375 24.53125 -3.34375 L 24.53125 -0.40625 C 24.53125 -0.132812 24.394531 0 24.125 0 C 21.582031 0 19.707031 -0.59375 18.5 -1.78125 C 15.707031 -0.34375 13.207031 0.375 11 0.375 C 8.21875 0.375 5.9375 -0.578125 4.15625 -2.484375 C 2.375 -4.390625 1.484375 -6.75 1.484375 -9.5625 C 1.484375 -12.425781 2.378906 -14.863281 4.171875 -16.875 C 5.972656 -18.894531 8.25 -19.90625 11 -19.90625 C 12.6875 -19.90625 14.535156 -19.519531 16.546875 -18.75 L 16.546875 -21.3125 L 20.03125 -21.890625 L 20.0625 -8.359375 C 20.0625 -6.703125 20.378906 -5.515625 21.015625 -4.796875 C 21.648438 -4.078125 22.6875 -3.71875 24.125 -3.71875 Z M 11 -3.1875 C 12.851562 -3.15625 14.84375 -3.625 16.96875 -4.59375 C 16.6875 -5.53125 16.546875 -6.675781 16.546875 -8.03125 L 16.546875 -15.21875 C 14.316406 -15.96875 12.507812 -16.34375 11.125 -16.34375 C 9.28125 -16.34375 7.769531 -15.691406 6.59375 -14.390625 C 5.425781 -13.097656 4.84375 -11.5 4.84375 -9.59375 C 4.84375 -7.78125 5.414062 -6.265625 6.5625 -5.046875 C 7.707031 -3.835938 9.1875 -3.21875 11 -3.1875 Z M 11 -3.1875 "/></g></g></g><g fill="#333333" fill-opacity="1"><g transform="translate(138.49162, 120.313041)"><g><path d="M 15.5625 -3.71875 C 15.832031 -3.71875 15.96875 -3.59375 15.96875 -3.34375 L 15.96875 -0.40625 C 15.96875 -0.132812 15.832031 0 15.5625 0 C 12.988281 0 10.613281 -1.003906 8.4375 -3.015625 C 6.945312 -1.003906 4.132812 0 0 0 C -0.269531 0 -0.40625 -0.132812 -0.40625 -0.40625 L -0.375 -3.34375 C -0.375 -3.59375 -0.234375 -3.71875 0.046875 -3.71875 C 2.242188 -3.71875 3.847656 -4.125 4.859375 -4.9375 C 5.867188 -5.757812 6.375 -7.078125 6.375 -8.890625 L 6.375 -15.59375 L 9.84375 -16.140625 L 9.84375 -7.9375 C 9.84375 -7.25 9.773438 -6.535156 9.640625 -5.796875 C 11.484375 -4.410156 13.457031 -3.71875 15.5625 -3.71875 Z M 1.359375 6.25 L 4.390625 3.265625 L 7.40625 6.25 L 4.390625 9.234375 Z M 7.90625 6.25 L 10.96875 3.265625 L 13.984375 6.25 L 10.96875 9.234375 Z M 7.90625 6.25 "/></g></g></g><g fill="#333333" fill-opacity="1"><g transform="translate(154.044757, 120.313041)"><g><path d="M 8.03125 -3.71875 C 8.300781 -3.71875 8.4375 -3.59375 8.4375 -3.34375 L 8.4375 -0.40625 C 8.4375 -0.132812 8.300781 0 8.03125 0 L 0 0 C -0.269531 0 -0.40625 -0.132812 -0.40625 -0.40625 L -0.40625 -3.34375 C -0.40625 -3.59375 -0.269531 -3.71875 0 -3.71875 Z M 8.03125 -3.71875 "/></g></g></g><g fill="#333333" fill-opacity="1"><g transform="translate(162.06951, 120.313041)"><g><path d="M 8.03125 -3.71875 C 8.300781 -3.71875 8.4375 -3.59375 8.4375 -3.34375 L 8.4375 -0.40625 C 8.4375 -0.132812 8.300781 0 8.03125 0 L 0 0 C -0.269531 0 -0.40625 -0.132812 -0.40625 -0.40625 L -0.40625 -3.34375 C -0.40625 -3.59375 -0.269531 -3.71875 0 -3.71875 Z M 8.03125 -3.71875 "/></g></g></g><g fill="#333333" fill-opacity="1"><g transform="translate(170.094264, 120.313041)"><g><path d="M 8.03125 -3.71875 C 8.300781 -3.71875 8.4375 -3.59375 8.4375 -3.34375 L 8.4375 -0.40625 C 8.4375 -0.132812 8.300781 0 8.03125 0 L 0 0 C -0.269531 0 -0.40625 -0.132812 -0.40625 -0.40625 L -0.40625 -3.34375 C -0.40625 -3.59375 -0.269531 -3.71875 0 -3.71875 Z M 8.03125 -3.71875 "/></g></g></g><g fill="#333333" fill-opacity="1"><g transform="translate(178.119017, 120.313041)"><g><path d="M 8.03125 -3.71875 C 8.300781 -3.71875 8.4375 -3.59375 8.4375 -3.34375 L 8.4375 -0.40625 C 8.4375 -0.132812 8.300781 0 8.03125 0 L 0 0 C -0.269531 0 -0.40625 -0.132812 -0.40625 -0.40625 L -0.40625 -3.34375 C -0.40625 -3.59375 -0.269531 -3.71875 0 -3.71875 Z M 8.03125 -3.71875 "/></g></g></g><g fill="#333333" fill-opacity="1"><g transform="translate(186.14377, 120.313041)"><g><path d="M 30.65625 -20.03125 L 34.140625 -20.609375 L 34.140625 -7.984375 C 34.140625 -5.441406 33.445312 -3.484375 32.0625 -2.109375 C 30.6875 -0.734375 28.644531 -0.046875 25.9375 -0.046875 C 23.726562 -0.046875 21.425781 -0.773438 19.03125 -2.234375 C 17.570312 -0.773438 15.476562 -0.046875 12.75 -0.046875 C 10.757812 -0.046875 8.703125 -0.757812 6.578125 -2.1875 C 5.054688 -0.726562 2.863281 0 0 0 C -0.269531 0 -0.40625 -0.132812 -0.40625 -0.40625 L -0.40625 -3.34375 C -0.40625 -3.59375 -0.269531 -3.71875 0 -3.71875 C 3.476562 -3.71875 5.21875 -5.441406 5.21875 -8.890625 L 5.171875 -15.59375 L 8.6875 -16.140625 L 8.6875 -7.9375 C 8.6875 -6.78125 8.519531 -5.722656 8.1875 -4.765625 C 9.789062 -4.097656 11.226562 -3.765625 12.5 -3.765625 C 15.96875 -3.765625 17.703125 -5.488281 17.703125 -8.9375 L 17.671875 -15.640625 L 21.1875 -16.171875 L 21.1875 -7.984375 C 21.1875 -6.773438 21.003906 -5.710938 20.640625 -4.796875 C 22.359375 -4.109375 23.960938 -3.765625 25.453125 -3.765625 C 27.128906 -3.765625 28.414062 -4.195312 29.3125 -5.0625 C 30.207031 -5.9375 30.65625 -7.226562 30.65625 -8.9375 Z M 30.65625 -20.03125 "/></g></g></g><g fill="#333333" fill-opacity="1"><g transform="translate(222.710196, 120.313041)"><g><path d="M 24.625 -3.71875 C 24.894531 -3.71875 25.03125 -3.59375 25.03125 -3.34375 L 25.03125 -0.40625 C 25.03125 -0.132812 24.894531 0 24.625 0 C 22.195312 0 19.988281 -0.921875 18 -2.765625 C 16.476562 -0.921875 14.078125 0 10.796875 0 L 1.109375 0 L 0.40625 -3.71875 L 10.84375 -3.71875 C 12.519531 -3.71875 13.804688 -4.128906 14.703125 -4.953125 C 15.597656 -5.785156 16.046875 -6.960938 16.046875 -8.484375 L 16.015625 -10.875 C 15.984375 -12.5625 15.378906 -13.925781 14.203125 -14.96875 C 13.035156 -16.019531 11.539062 -16.546875 9.71875 -16.546875 L 7.28125 -16.546875 L 7.28125 -20.1875 L 10.46875 -20.1875 C 13.113281 -20.1875 15.273438 -19.375 16.953125 -17.75 C 18.640625 -16.125 19.5 -13.988281 19.53125 -11.34375 L 19.578125 -7.9375 C 19.578125 -7.195312 19.476562 -6.398438 19.28125 -5.546875 C 20.988281 -4.328125 22.769531 -3.71875 24.625 -3.71875 Z M 24.625 -3.71875 "/></g></g></g><g fill="#333333" fill-opacity="1"><g transform="translate(247.322202, 120.313041)"><g><path d="M 9.96875 -22.21875 L 6.953125 -19.203125 L 3.890625 -22.21875 L 6.875 -25.203125 Z M 13.6875 -3.71875 C 13.96875 -3.71875 14.109375 -3.59375 14.109375 -3.34375 L 14.109375 -0.40625 C 14.109375 -0.132812 13.96875 0 13.6875 0 C 11.34375 0 9.148438 -0.894531 7.109375 -2.6875 C 5.648438 -0.894531 3.28125 0 0 0 C -0.269531 0 -0.40625 -0.132812 -0.40625 -0.40625 L -0.375 -3.34375 C -0.375 -3.59375 -0.234375 -3.71875 0.046875 -3.71875 C 3.515625 -3.71875 5.25 -5.441406 5.25 -8.890625 L 5.21875 -15.59375 L 8.734375 -16.140625 L 8.734375 -7.9375 C 8.734375 -6.976562 8.632812 -6.15625 8.4375 -5.46875 C 10.144531 -4.300781 11.894531 -3.71875 13.6875 -3.71875 Z M 13.6875 -3.71875 "/></g></g></g><g fill="#333333" fill-opacity="1"><g transform="translate(261.013921, 120.313041)"><g><path d="M 22.796875 -3.71875 C 23.078125 -3.71875 23.21875 -3.59375 23.21875 -3.34375 L 23.21875 -0.40625 C 23.21875 -0.132812 23.078125 0 22.796875 0 L 21.140625 0 L 21.140625 0.625 C 21.140625 3.351562 20.359375 5.445312 18.796875 6.90625 C 17.242188 8.375 14.976562 9.109375 12 9.109375 C 9.457031 9.109375 7.316406 8.300781 5.578125 6.6875 C 3.847656 5.070312 2.707031 2.828125 2.15625 -0.046875 C 1.65625 -0.015625 0.894531 0 -0.125 0 C -0.394531 0 -0.53125 -0.132812 -0.53125 -0.40625 L -0.53125 -3.34375 C -0.53125 -3.59375 -0.394531 -3.71875 -0.125 -3.71875 L 1.78125 -3.71875 L 1.78125 -3.96875 C 1.78125 -11.0625 4.882812 -17.722656 11.09375 -23.953125 L 14.28125 -23.953125 C 16.238281 -21.828125 17.773438 -19.632812 18.890625 -17.375 C 20.003906 -15.113281 20.5625 -13.0625 20.5625 -11.21875 C 20.5625 -8.09375 19.265625 -5.59375 16.671875 -3.71875 Z M 5.171875 -4.515625 L 5.171875 -3.890625 C 9.304688 -4.140625 12.328125 -4.820312 14.234375 -5.9375 C 16.140625 -7.050781 17.09375 -8.78125 17.09375 -11.125 C 17.09375 -14.082031 15.519531 -17.394531 12.375 -21.0625 C 10.195312 -18.71875 8.453125 -16.054688 7.140625 -13.078125 C 5.828125 -10.097656 5.171875 -7.242188 5.171875 -4.515625 Z M 12.078125 5.625 C 16.078125 5.625 18.078125 3.957031 18.078125 0.625 L 18.078125 0 L 12.125 0 L 11.671875 -1.40625 C 9.816406 -0.882812 7.785156 -0.515625 5.578125 -0.296875 C 6.523438 3.648438 8.691406 5.625 12.078125 5.625 Z M 12.078125 5.625 "/></g></g></g><g fill="#333333" fill-opacity="1"><g transform="translate(283.640421, 120.313041)"><g><path d="M 0 0 C -0.269531 0 -0.40625 -0.132812 -0.40625 -0.40625 L -0.40625 -3.34375 C -0.40625 -3.59375 -0.253906 -3.71875 0.046875 -3.71875 C 3.492188 -3.71875 5.21875 -5.515625 5.21875 -9.109375 L 5.25 -29.671875 L 8.734375 -30.203125 L 8.734375 -8.28125 C 8.734375 -2.757812 5.820312 0 0 0 Z M 0 0 "/></g></g></g><g fill="#333333" fill-opacity="1"><g transform="translate(295.925743, 120.313041)"><g><path d="M 3.59375 0 L 3.59375 -29.671875 L 7.109375 -30.203125 L 7.109375 0 Z M 3.59375 0 "/></g></g></g><g fill="#333333" fill-opacity="1"><g transform="translate(306.432387, 120.313041)"><g/></g></g><g fill="#333333" fill-opacity="1"><g transform="translate(316.359921, 120.313041)"><g><path d="M 16.515625 -21.96875 L 13.484375 -18.984375 L 10.46875 -21.96875 L 13.484375 -24.953125 Z M 23.09375 -21.96875 L 20.0625 -18.984375 L 17 -21.96875 L 20.0625 -24.953125 Z M 28.140625 -19.984375 L 31.65625 -20.5625 L 31.65625 -7.9375 C 31.65625 -5.40625 30.914062 -3.445312 29.4375 -2.0625 C 27.957031 -0.6875 25.785156 0 22.921875 0 L 11.875 0 C 8.59375 0 6.085938 -0.753906 4.359375 -2.265625 C 2.640625 -3.785156 1.78125 -6.023438 1.78125 -8.984375 C 1.78125 -10.992188 2.066406 -13.347656 2.640625 -16.046875 L 5.75 -15.640625 C 5.3125 -13.179688 5.09375 -11.289062 5.09375 -9.96875 C 5.09375 -5.800781 7.628906 -3.71875 12.703125 -3.71875 L 22.921875 -3.71875 C 26.398438 -3.71875 28.140625 -5.441406 28.140625 -8.890625 Z M 28.140625 -19.984375 "/></g></g></g><g fill="#333333" fill-opacity="1"><g transform="translate(350.734011, 120.313041)"><g><path d="M 3.59375 0 L 3.59375 -29.671875 L 7.109375 -30.203125 L 7.109375 0 Z M 3.59375 0 "/></g></g></g><g fill="#333333" fill-opacity="1"><g transform="translate(361.240656, 120.313041)"><g><path d="M -0.90625 8.890625 L -1.234375 5.875 C 3.722656 5.875 6.203125 3.503906 6.203125 -1.234375 L 6.171875 -19.984375 L 9.6875 -20.5625 L 9.6875 -1.109375 C 9.6875 2.335938 8.800781 4.863281 7.03125 6.46875 C 5.269531 8.082031 2.625 8.890625 -0.90625 8.890625 Z M -0.90625 8.890625 "/></g></g></g><g fill="#333333" fill-opacity="1"><g transform="translate(373.608703, 120.313041)"><g><path d="M 12.28125 0 C 6.488281 0 3.59375 -2.757812 3.59375 -8.28125 L 3.5625 -29.671875 L 7.078125 -30.203125 L 7.078125 -9.109375 C 7.078125 -5.515625 8.800781 -3.71875 12.25 -3.71875 C 12.519531 -3.71875 12.65625 -3.59375 12.65625 -3.34375 L 12.703125 -0.40625 C 12.703125 -0.132812 12.5625 0 12.28125 0 Z M 12.28125 0 "/></g></g></g><g fill="#333333" fill-opacity="1"><g transform="translate(385.89404, 120.313041)"><g><path d="M 21.34375 -30.203125 L 19.203125 -28.046875 L 17 -30.203125 L 19.15625 -32.390625 Z M 18.75 -25.15625 L 15.765625 -22.140625 L 12.703125 -25.15625 L 15.71875 -28.140625 Z M 22.59375 -22.140625 L 19.53125 -25.15625 L 22.59375 -28.140625 L 25.609375 -25.15625 Z M 38.84375 -3.71875 C 39.125 -3.71875 39.265625 -3.59375 39.265625 -3.34375 L 39.265625 -0.40625 C 39.265625 -0.132812 39.125 0 38.84375 0 C 36.5625 0 34.425781 -0.84375 32.4375 -2.53125 C 31.03125 -0.875 28.863281 -0.046875 25.9375 -0.046875 C 23.726562 -0.046875 21.425781 -0.773438 19.03125 -2.234375 C 17.570312 -0.773438 15.476562 -0.046875 12.75 -0.046875 C 10.757812 -0.046875 8.703125 -0.757812 6.578125 -2.1875 C 5.054688 -0.726562 2.863281 0 0 0 C -0.269531 0 -0.40625 -0.132812 -0.40625 -0.40625 L -0.40625 -3.34375 C -0.40625 -3.59375 -0.269531 -3.71875 0 -3.71875 C 3.476562 -3.71875 5.21875 -5.441406 5.21875 -8.890625 L 5.171875 -15.59375 L 8.6875 -16.140625 L 8.6875 -7.9375 C 8.6875 -6.78125 8.519531 -5.722656 8.1875 -4.765625 C 9.789062 -4.097656 11.226562 -3.765625 12.5 -3.765625 C 15.96875 -3.765625 17.703125 -5.488281 17.703125 -8.9375 L 17.671875 -15.640625 L 21.1875 -16.171875 L 21.1875 -7.984375 C 21.1875 -6.773438 21.003906 -5.710938 20.640625 -4.796875 C 22.359375 -4.109375 23.960938 -3.765625 25.453125 -3.765625 C 27.128906 -3.765625 28.414062 -4.195312 29.3125 -5.0625 C 30.207031 -5.9375 30.65625 -7.226562 30.65625 -8.9375 L 30.65625 -20.03125 L 34.140625 -20.609375 L 34.140625 -7.984375 C 34.140625 -7.078125 34.023438 -6.179688 33.796875 -5.296875 C 35.398438 -4.242188 37.082031 -3.71875 38.84375 -3.71875 Z M 38.84375 -3.71875 "/></g></g></g><g fill="#333333" fill-opacity="1"><g transform="translate(424.735498, 120.313041)"><g><path d="M 7.609375 -22.09375 L 4.59375 -19.109375 L 1.578125 -22.09375 L 4.59375 -25.078125 Z M 14.1875 -22.09375 L 11.171875 -19.109375 L 8.109375 -22.09375 L 11.171875 -25.078125 Z M 15.5625 -3.71875 C 15.832031 -3.71875 15.96875 -3.59375 15.96875 -3.34375 L 15.96875 -0.40625 C 15.96875 -0.132812 15.832031 0 15.5625 0 C 12.988281 0 10.613281 -1.003906 8.4375 -3.015625 C 6.945312 -1.003906 4.132812 0 0 0 C -0.269531 0 -0.40625 -0.132812 -0.40625 -0.40625 L -0.375 -3.34375 C -0.375 -3.59375 -0.234375 -3.71875 0.046875 -3.71875 C 2.242188 -3.71875 3.847656 -4.125 4.859375 -4.9375 C 5.867188 -5.757812 6.375 -7.078125 6.375 -8.890625 L 6.375 -15.59375 L 9.84375 -16.140625 L 9.84375 -7.9375 C 9.84375 -7.25 9.773438 -6.535156 9.640625 -5.796875 C 11.484375 -4.410156 13.457031 -3.71875 15.5625 -3.71875 Z M 15.5625 -3.71875 "/></g></g></g><g fill="#333333" fill-opacity="1"><g transform="translate(440.28865, 120.313041)"><g><path d="M 30.65625 -20.03125 L 34.140625 -20.609375 L 34.140625 -7.984375 C 34.140625 -5.441406 33.445312 -3.484375 32.0625 -2.109375 C 30.6875 -0.734375 28.644531 -0.046875 25.9375 -0.046875 C 23.726562 -0.046875 21.425781 -0.773438 19.03125 -2.234375 C 17.570312 -0.773438 15.476562 -0.046875 12.75 -0.046875 C 10.757812 -0.046875 8.703125 -0.757812 6.578125 -2.1875 C 5.054688 -0.726562 2.863281 0 0 0 C -0.269531 0 -0.40625 -0.132812 -0.40625 -0.40625 L -0.40625 -3.34375 C -0.40625 -3.59375 -0.269531 -3.71875 0 -3.71875 C 3.476562 -3.71875 5.21875 -5.441406 5.21875 -8.890625 L 5.171875 -15.59375 L 8.6875 -16.140625 L 8.6875 -7.9375 C 8.6875 -6.78125 8.519531 -5.722656 8.1875 -4.765625 C 9.789062 -4.097656 11.226562 -3.765625 12.5 -3.765625 C 15.96875 -3.765625 17.703125 -5.488281 17.703125 -8.9375 L 17.671875 -15.640625 L 21.1875 -16.171875 L 21.1875 -7.984375 C 21.1875 -6.773438 21.003906 -5.710938 20.640625 -4.796875 C 22.359375 -4.109375 23.960938 -3.765625 25.453125 -3.765625 C 27.128906 -3.765625 28.414062 -4.195312 29.3125 -5.0625 C 30.207031 -5.9375 30.65625 -7.226562 30.65625 -8.9375 Z M 30.65625 -20.03125 "/></g></g></g><g fill="#333333" fill-opacity="1"><g transform="translate(476.855091, 120.313041)"><g><path d="M 29.046875 -3.34375 L 29.09375 -0.40625 C 29.09375 -0.132812 28.953125 0 28.671875 0 C 25.722656 0 23.503906 -0.71875 22.015625 -2.15625 C 20.710938 -1.519531 19.046875 -1 17.015625 -0.59375 C 14.992188 -0.195312 13.179688 0 11.578125 0 L 1.359375 0 L 0.703125 -3.71875 L 10.515625 -3.71875 L 6.375 -23.921875 L 9.84375 -24.78125 L 13.78125 -3.8125 C 16.125 -3.976562 18.34375 -4.347656 20.4375 -4.921875 C 20.132812 -5.972656 19.984375 -7.09375 19.984375 -8.28125 L 19.9375 -29.671875 L 23.453125 -30.203125 L 23.453125 -9.109375 C 23.453125 -5.515625 25.175781 -3.71875 28.625 -3.71875 C 28.90625 -3.71875 29.046875 -3.59375 29.046875 -3.34375 Z M 29.046875 -3.34375 "/></g></g></g><g fill="#333333" fill-opacity="1"><g transform="translate(505.520867, 120.313041)"><g><path d="M 0 0 C -0.269531 0 -0.40625 -0.132812 -0.40625 -0.40625 L -0.40625 -3.34375 C -0.40625 -3.59375 -0.253906 -3.71875 0.046875 -3.71875 C 3.492188 -3.71875 5.21875 -5.515625 5.21875 -9.109375 L 5.25 -29.671875 L 8.734375 -30.203125 L 8.734375 -8.28125 C 8.734375 -2.757812 5.820312 0 0 0 Z M 0 0 "/></g></g></g></svg>