<svg xmlns="http://www.w3.org/2000/svg" xmlns:xlink="http://www.w3.org/1999/xlink" width="700" zoomAndPan="magnify" viewBox="0 0 525 149.999998" height="200" preserveAspectRatio="xMidYMid meet" version="1.0"><defs><g/><clipPath id="id1"><path d="M 419 82 L 514 82 L 514 138.984375 L 419 138.984375 Z M 419 82 " clip-rule="nonzero"/></clipPath><clipPath id="id2"><path d="M 462 10.734375 L 471 10.734375 L 471 19 L 462 19 Z M 462 10.734375 " clip-rule="nonzero"/></clipPath><clipPath id="id3"><path d="M 516 103 L 524.570312 103 L 524.570312 112 L 516 112 Z M 516 103 " clip-rule="nonzero"/></clipPath><clipPath id="id4"><path d="M 408.320312 103 L 417 103 L 417 113 L 408.320312 113 Z M 408.320312 103 " clip-rule="nonzero"/></clipPath></defs><path fill="#29aae3" d="M 418.253906 102.886719 L 464.625 78.875 L 464.625 22.265625 C 463.601562 22.015625 462.667969 21.574219 461.820312 20.945312 C 460.976562 20.316406 460.292969 19.546875 459.765625 18.636719 L 412.445312 45.84375 L 412.445312 100.257812 C 413.5625 100.257812 414.625 100.484375 415.636719 100.945312 C 416.652344 101.40625 417.523438 102.050781 418.253906 102.886719 Z M 418.253906 102.886719 " fill-opacity="1" fill-rule="nonzero"/><path fill="#05649c" d="M 468.265625 22.265625 L 468.265625 78.875 L 514.636719 102.886719 C 515.367188 102.050781 516.238281 101.40625 517.25 100.945312 C 518.265625 100.484375 519.328125 100.257812 520.441406 100.257812 L 520.441406 45.84375 L 473.125 18.636719 C 472.597656 19.546875 471.910156 20.316406 471.066406 20.945312 C 470.222656 21.574219 469.289062 22.015625 468.265625 22.265625 Z M 468.265625 22.265625 " fill-opacity="1" fill-rule="nonzero"/><path fill="#00dee7" d="M 414.839844 104.65625 C 414.128906 104.140625 413.328125 103.882812 412.445312 103.882812 C 413.328125 103.882812 414.128906 104.140625 414.839844 104.65625 Z M 414.839844 104.65625 " fill-opacity="1" fill-rule="nonzero"/><path fill="#00dee7" d="M 520.441406 103.882812 C 519.558594 103.882812 518.761719 104.140625 518.046875 104.65625 C 518.761719 104.140625 519.558594 103.882812 520.441406 103.882812 Z M 520.441406 103.882812 " fill-opacity="1" fill-rule="nonzero"/><path fill="#00dee7" d="M 464.003906 18.050781 C 463.898438 17.972656 463.800781 17.890625 463.703125 17.800781 C 463.800781 17.890625 463.898438 17.972656 464.003906 18.050781 Z M 464.003906 18.050781 " fill-opacity="1" fill-rule="nonzero"/><path fill="#00dee7" d="M 462.914062 16.828125 C 463.027344 17.023438 463.15625 17.207031 463.296875 17.378906 C 463.15625 17.207031 463.027344 17.023438 462.914062 16.828125 Z M 462.914062 16.828125 " fill-opacity="1" fill-rule="nonzero"/><path fill="#00dee7" d="M 464.5 18.367188 C 464.542969 18.390625 464.582031 18.410156 464.625 18.429688 C 464.582031 18.410156 464.542969 18.390625 464.5 18.367188 Z M 464.5 18.367188 " fill-opacity="1" fill-rule="nonzero"/><path fill="#00dee7" d="M 416.523438 107.941406 C 416.527344 108.667969 416.34375 109.34375 415.980469 109.96875 C 416.34375 109.34375 416.527344 108.667969 416.523438 107.941406 C 416.523438 107.917969 416.523438 107.894531 416.523438 107.871094 C 416.523438 107.894531 416.523438 107.917969 416.523438 107.941406 Z M 416.523438 107.941406 " fill-opacity="1" fill-rule="nonzero"/><g clip-path="url(#id1)"><path fill="#333333" d="M 512.949219 106.101562 L 466.445312 82.019531 L 419.941406 106.101562 C 420.179688 107.066406 420.230469 108.039062 420.089844 109.019531 C 419.949219 110.003906 419.628906 110.921875 419.128906 111.78125 L 466.445312 138.984375 L 513.757812 111.78125 C 513.261719 110.921875 512.941406 110.003906 512.800781 109.019531 C 512.660156 108.039062 512.710938 107.066406 512.949219 106.101562 Z M 512.949219 106.101562 " fill-opacity="1" fill-rule="nonzero"/></g><g clip-path="url(#id2)"><path fill="#29aae3" d="M 464.859375 18.539062 C 464.917969 18.5625 464.980469 18.589844 465.042969 18.609375 C 465.167969 18.65625 465.296875 18.695312 465.425781 18.730469 C 465.726562 18.808594 466.03125 18.847656 466.34375 18.855469 C 466.65625 18.863281 466.960938 18.835938 467.265625 18.773438 C 467.570312 18.710938 467.863281 18.613281 468.148438 18.484375 C 468.429688 18.355469 468.695312 18.195312 468.9375 18.003906 C 469.183594 17.816406 469.40625 17.601562 469.601562 17.359375 C 469.800781 17.121094 469.964844 16.863281 470.101562 16.582031 C 470.238281 16.304688 470.34375 16.015625 470.414062 15.714844 C 470.484375 15.414062 470.519531 15.105469 470.519531 14.796875 C 470.519531 14.488281 470.484375 14.179688 470.414062 13.878906 C 470.34375 13.578125 470.238281 13.289062 470.101562 13.011719 C 469.964844 12.730469 469.800781 12.472656 469.601562 12.234375 C 469.40625 11.992188 469.183594 11.777344 468.9375 11.585938 C 468.695312 11.398438 468.429688 11.238281 468.148438 11.109375 C 467.863281 10.980469 467.570312 10.882812 467.265625 10.820312 C 466.960938 10.757812 466.65625 10.730469 466.34375 10.738281 C 466.03125 10.746094 465.726562 10.785156 465.425781 10.863281 C 465.296875 10.898438 465.167969 10.9375 465.042969 10.984375 C 464.980469 11.003906 464.917969 11.03125 464.859375 11.054688 C 464.734375 11.105469 464.617188 11.164062 464.5 11.226562 C 464.328125 11.320312 464.164062 11.425781 464.003906 11.542969 C 463.898438 11.621094 463.800781 11.703125 463.703125 11.789062 C 463.277344 12.175781 462.949219 12.628906 462.714844 13.152344 C 462.484375 13.675781 462.367188 14.222656 462.367188 14.796875 C 462.367188 15.769531 462.679688 16.628906 463.296875 17.378906 C 463.421875 17.53125 463.558594 17.671875 463.703125 17.800781 C 463.800781 17.890625 463.898438 17.972656 464.003906 18.050781 C 464.164062 18.167969 464.328125 18.273438 464.5 18.367188 C 464.542969 18.390625 464.582031 18.410156 464.625 18.429688 C 464.699219 18.46875 464.777344 18.503906 464.859375 18.539062 Z M 464.859375 18.539062 " fill-opacity="1" fill-rule="nonzero"/></g><g clip-path="url(#id3)"><path fill="#29aae3" d="M 524.273438 106.546875 C 524.25 106.484375 524.226562 106.421875 524.199219 106.363281 C 524.148438 106.242188 524.089844 106.121094 524.027344 106.007812 C 523.933594 105.835938 523.828125 105.671875 523.710938 105.511719 C 523.632812 105.410156 523.546875 105.308594 523.460938 105.210938 C 523.074219 104.789062 522.617188 104.460938 522.09375 104.230469 C 521.566406 103.996094 521.015625 103.882812 520.441406 103.882812 C 519.558594 103.882812 518.761719 104.140625 518.046875 104.65625 C 517.980469 104.707031 517.914062 104.757812 517.847656 104.808594 C 517.695312 104.933594 517.554688 105.066406 517.421875 105.210938 C 517.335938 105.308594 517.253906 105.410156 517.175781 105.511719 C 517.058594 105.671875 516.949219 105.835938 516.855469 106.007812 C 516.792969 106.121094 516.738281 106.242188 516.683594 106.363281 C 516.660156 106.421875 516.636719 106.484375 516.613281 106.546875 C 516.566406 106.671875 516.527344 106.796875 516.492188 106.929688 C 516.414062 107.226562 516.375 107.53125 516.367188 107.84375 C 516.359375 108.152344 516.386719 108.457031 516.449219 108.761719 C 516.511719 109.066406 516.609375 109.355469 516.738281 109.636719 C 516.867188 109.917969 517.03125 110.183594 517.21875 110.425781 C 517.410156 110.671875 517.625 110.890625 517.867188 111.089844 C 518.109375 111.285156 518.367188 111.449219 518.648438 111.585938 C 518.925781 111.722656 519.21875 111.824219 519.519531 111.894531 C 519.824219 111.964844 520.132812 112 520.441406 112 C 520.753906 112 521.058594 111.964844 521.363281 111.894531 C 521.664062 111.824219 521.957031 111.722656 522.234375 111.585938 C 522.515625 111.449219 522.777344 111.285156 523.015625 111.089844 C 523.257812 110.890625 523.472656 110.671875 523.664062 110.425781 C 523.855469 110.183594 524.015625 109.917969 524.144531 109.636719 C 524.277344 109.355469 524.371094 109.066406 524.433594 108.761719 C 524.496094 108.457031 524.527344 108.152344 524.519531 107.84375 C 524.511719 107.53125 524.46875 107.226562 524.390625 106.929688 C 524.359375 106.796875 524.316406 106.671875 524.273438 106.546875 Z M 524.273438 106.546875 " fill-opacity="1" fill-rule="nonzero"/></g><g clip-path="url(#id4)"><path fill="#29aae3" d="M 416.523438 107.941406 C 416.523438 107.917969 416.523438 107.894531 416.523438 107.871094 C 416.507812 106.851562 416.152344 105.964844 415.464844 105.210938 C 415.378906 105.117188 415.285156 105.023438 415.1875 104.9375 C 414.410156 104.234375 413.496094 103.882812 412.445312 103.882812 C 411.699219 103.882812 411.003906 104.074219 410.363281 104.453125 C 409.71875 104.835938 409.21875 105.351562 408.863281 106.007812 C 408.800781 106.121094 408.742188 106.242188 408.691406 106.363281 C 408.664062 106.421875 408.640625 106.484375 408.617188 106.546875 C 408.570312 106.671875 408.53125 106.796875 408.5 106.929688 C 408.390625 107.335938 408.351562 107.75 408.375 108.167969 C 408.398438 108.589844 408.484375 108.996094 408.632812 109.386719 C 408.785156 109.78125 408.992188 110.144531 409.253906 110.472656 C 409.515625 110.800781 409.824219 111.082031 410.171875 111.316406 C 410.523438 111.550781 410.902344 111.726562 411.308594 111.84375 C 411.714844 111.960938 412.128906 112.015625 412.550781 112.003906 C 412.972656 111.992188 413.382812 111.917969 413.78125 111.78125 C 414.179688 111.644531 414.546875 111.449219 414.886719 111.195312 C 414.964844 111.140625 415.039062 111.078125 415.109375 111.015625 C 415.460938 110.714844 415.75 110.367188 415.980469 109.96875 C 416.34375 109.34375 416.527344 108.667969 416.523438 107.941406 Z M 416.523438 107.941406 " fill-opacity="1" fill-rule="nonzero"/></g><g fill="#05649c" fill-opacity="1"><g transform="translate(51.998766, 63.076618)"><g><path d="M 10.46875 -25.328125 L 7.609375 -22.46875 L 4.703125 -25.328125 L 7.53125 -28.140625 Z M 13.609375 -3.53125 C 13.867188 -3.53125 14 -3.410156 14 -3.171875 L 14 -0.390625 C 14 -0.128906 13.867188 0 13.609375 0 C 11.585938 0 10.109375 -0.691406 9.171875 -2.078125 L 9.171875 -1.0625 C 9.171875 2.207031 8.332031 4.601562 6.65625 6.125 C 4.988281 7.65625 2.484375 8.421875 -0.859375 8.421875 L -1.171875 5.5625 C 3.523438 5.5625 5.875 3.316406 5.875 -1.171875 L 5.84375 -18.9375 L 9.171875 -19.484375 L 9.171875 -7.25 C 9.359375 -4.769531 10.835938 -3.53125 13.609375 -3.53125 Z M 13.609375 -3.53125 "/></g></g></g><g fill="#05649c" fill-opacity="1"><g transform="translate(65.642553, 63.076618)"><g><path d="M 14.734375 -3.53125 C 14.992188 -3.53125 15.125 -3.410156 15.125 -3.171875 L 15.125 -0.390625 C 15.125 -0.128906 14.992188 0 14.734375 0 C 12.304688 0 10.0625 -0.953125 8 -2.859375 C 6.582031 -0.953125 3.914062 0 0 0 C -0.257812 0 -0.390625 -0.128906 -0.390625 -0.390625 L -0.359375 -3.171875 C -0.359375 -3.410156 -0.222656 -3.53125 0.046875 -3.53125 C 2.128906 -3.53125 3.644531 -3.914062 4.59375 -4.6875 C 5.550781 -5.457031 6.03125 -6.703125 6.03125 -8.421875 L 6.03125 -14.78125 L 9.328125 -15.296875 L 9.328125 -7.53125 C 9.328125 -6.875 9.265625 -6.191406 9.140625 -5.484375 C 10.890625 -4.179688 12.753906 -3.53125 14.734375 -3.53125 Z M 1.296875 5.921875 L 4.15625 3.09375 L 7.015625 5.921875 L 4.15625 8.75 Z M 7.484375 5.921875 L 10.390625 3.09375 L 13.25 5.921875 L 10.390625 8.75 Z M 7.484375 5.921875 "/></g></g></g><g fill="#05649c" fill-opacity="1"><g transform="translate(80.38412, 63.076618)"><g><path d="M 22.109375 -3.53125 C 22.367188 -3.53125 22.5 -3.410156 22.5 -3.171875 L 22.5 -0.390625 C 22.5 -0.128906 22.367188 0 22.109375 0 L 12.625 0 C 10.039062 0 7.867188 -0.640625 6.109375 -1.921875 C 4.078125 -0.640625 2.039062 0 0 0 C -0.257812 0 -0.390625 -0.128906 -0.390625 -0.390625 L -0.390625 -3.171875 C -0.390625 -3.410156 -0.257812 -3.53125 0 -3.53125 C 1.351562 -3.53125 2.644531 -3.816406 3.875 -4.390625 C 2.9375 -5.929688 2.46875 -7.773438 2.46875 -9.921875 C 2.46875 -12.535156 3.300781 -14.703125 4.96875 -16.421875 C 6.644531 -18.148438 8.78125 -19.015625 11.375 -19.015625 C 13.800781 -19.015625 15.875 -18.144531 17.59375 -16.40625 C 19.320312 -14.664062 20.1875 -12.617188 20.1875 -10.265625 C 20.1875 -8.234375 19.726562 -5.988281 18.8125 -3.53125 Z M 12.34375 -3.53125 L 15.609375 -3.53125 C 16.515625 -6.09375 16.96875 -8.15625 16.96875 -9.71875 C 16.96875 -11.3125 16.453125 -12.707031 15.421875 -13.90625 C 14.390625 -15.113281 13.101562 -15.71875 11.5625 -15.71875 C 9.8125 -15.71875 8.410156 -15.175781 7.359375 -14.09375 C 6.316406 -13.007812 5.796875 -11.578125 5.796875 -9.796875 C 5.796875 -7.921875 6.382812 -6.40625 7.5625 -5.25 C 8.738281 -4.101562 10.332031 -3.53125 12.34375 -3.53125 Z M 12.34375 -3.53125 "/></g></g></g><g fill="#05649c" fill-opacity="1"><g transform="translate(102.496457, 63.076618)"><g><path d="M 22.109375 -3.53125 C 22.367188 -3.53125 22.5 -3.410156 22.5 -3.171875 L 22.5 -0.390625 C 22.5 -0.128906 22.367188 0 22.109375 0 L 12.625 0 C 10.039062 0 7.867188 -0.640625 6.109375 -1.921875 C 4.078125 -0.640625 2.039062 0 0 0 C -0.257812 0 -0.390625 -0.128906 -0.390625 -0.390625 L -0.390625 -3.171875 C -0.390625 -3.410156 -0.257812 -3.53125 0 -3.53125 C 1.351562 -3.53125 2.644531 -3.816406 3.875 -4.390625 C 2.9375 -5.929688 2.46875 -7.773438 2.46875 -9.921875 C 2.46875 -12.535156 3.300781 -14.703125 4.96875 -16.421875 C 6.644531 -18.148438 8.78125 -19.015625 11.375 -19.015625 C 13.800781 -19.015625 15.875 -18.144531 17.59375 -16.40625 C 19.320312 -14.664062 20.1875 -12.617188 20.1875 -10.265625 C 20.1875 -8.234375 19.726562 -5.988281 18.8125 -3.53125 Z M 12.34375 -3.53125 L 15.609375 -3.53125 C 16.515625 -6.09375 16.96875 -8.15625 16.96875 -9.71875 C 16.96875 -11.3125 16.453125 -12.707031 15.421875 -13.90625 C 14.390625 -15.113281 13.101562 -15.71875 11.5625 -15.71875 C 9.8125 -15.71875 8.410156 -15.175781 7.359375 -14.09375 C 6.316406 -13.007812 5.796875 -11.578125 5.796875 -9.796875 C 5.796875 -7.921875 6.382812 -6.40625 7.5625 -5.25 C 8.738281 -4.101562 10.332031 -3.53125 12.34375 -3.53125 Z M 12.34375 -3.53125 "/></g></g></g><g fill="#05649c" fill-opacity="1"><g transform="translate(124.608794, 63.076618)"><g><path d="M 0 0 C -0.257812 0 -0.390625 -0.128906 -0.390625 -0.390625 L -0.390625 -3.171875 C -0.390625 -3.410156 -0.242188 -3.53125 0.046875 -3.53125 C 3.304688 -3.53125 4.9375 -5.226562 4.9375 -8.625 L 4.984375 -28.109375 L 8.265625 -28.625 L 8.265625 -7.84375 C 8.265625 -2.613281 5.507812 0 0 0 Z M 0 0 "/></g></g></g><g fill="#05649c" fill-opacity="1"><g transform="translate(136.253054, 63.076618)"><g><path d="M 3.40625 0 L 3.40625 -28.109375 L 6.75 -28.625 L 6.75 0 Z M 3.40625 0 "/></g></g></g><g fill="#05649c" fill-opacity="1"><g transform="translate(146.211444, 63.076618)"><g/></g></g><g fill="#05649c" fill-opacity="1"><g transform="translate(155.62095, 63.076618)"><g><path d="M 34.109375 -3.53125 C 34.367188 -3.53125 34.5 -3.410156 34.5 -3.171875 L 34.5 -0.390625 C 34.5 -0.128906 34.367188 0 34.109375 0 C 31.890625 0 29.8125 -0.847656 27.875 -2.546875 C 26.539062 -0.929688 24.4375 -0.0820312 21.5625 0 L 11.296875 0 C 8.160156 0 5.773438 -0.726562 4.140625 -2.1875 C 2.503906 -3.65625 1.6875 -5.828125 1.6875 -8.703125 C 1.6875 -10.867188 2.078125 -13.71875 2.859375 -17.25 L 5.765625 -16.859375 C 5.140625 -13.640625 4.828125 -11.222656 4.828125 -9.609375 C 4.828125 -5.554688 7.242188 -3.53125 12.078125 -3.53125 L 21.125 -3.53125 C 24.414062 -3.53125 26.0625 -5.160156 26.0625 -8.421875 L 26.0625 -14.78125 L 29.40625 -15.296875 L 29.40625 -7.53125 C 29.40625 -6.613281 29.3125 -5.828125 29.125 -5.171875 C 30.75 -4.078125 32.410156 -3.53125 34.109375 -3.53125 Z M 13.765625 5.921875 L 16.578125 3.0625 L 19.515625 5.921875 L 16.65625 8.75 Z M 13.765625 5.921875 "/></g></g></g><g fill="#05649c" fill-opacity="1"><g transform="translate(189.730413, 63.076618)"><g><path d="M 23.484375 -3.53125 C 23.742188 -3.53125 23.875 -3.410156 23.875 -3.171875 L 23.875 -0.390625 C 23.875 -0.128906 23.742188 0 23.484375 0 C 18.910156 0 15.222656 -0.691406 12.421875 -2.078125 C 10.671875 -1.296875 8.867188 -0.753906 7.015625 -0.453125 C 5.160156 -0.148438 2.820312 0 0 0 C -0.257812 -0.03125 -0.390625 -0.160156 -0.390625 -0.390625 L -0.390625 -3.171875 C -0.390625 -3.410156 -0.257812 -3.53125 0 -3.53125 C 2.6875 -3.53125 5.335938 -3.765625 7.953125 -4.234375 C 6.566406 -5.878906 5.390625 -7.425781 4.421875 -8.875 C 3.460938 -10.332031 2.394531 -12.171875 1.21875 -14.390625 L 2.46875 -17.40625 C 6.125 -19.289062 9.429688 -20.234375 12.390625 -20.234375 C 15.003906 -20.234375 17.171875 -19.539062 18.890625 -18.15625 C 20.617188 -16.769531 21.484375 -15.003906 21.484375 -12.859375 C 21.484375 -11.367188 21.023438 -9.859375 20.109375 -8.328125 C 19.191406 -6.796875 17.847656 -5.40625 16.078125 -4.15625 C 18.160156 -3.738281 20.628906 -3.53125 23.484375 -3.53125 Z M 11.84375 -16.859375 C 9.800781 -16.878906 7.4375 -16.265625 4.75 -15.015625 C 5.894531 -12.796875 6.96875 -10.945312 7.96875 -9.46875 C 8.976562 -7.988281 10.21875 -6.425781 11.6875 -4.78125 C 13.5625 -5.695312 15.09375 -6.804688 16.28125 -8.109375 C 17.476562 -9.421875 18.078125 -10.640625 18.078125 -11.765625 C 18.078125 -13.273438 17.503906 -14.5 16.359375 -15.4375 C 15.222656 -16.382812 13.71875 -16.859375 11.84375 -16.859375 Z M 11.84375 -16.859375 "/></g></g></g><g fill="#05649c" fill-opacity="1"><g transform="translate(213.293381, 63.076618)"><g><path d="M 25.640625 -3.53125 C 25.898438 -3.53125 26.03125 -3.410156 26.03125 -3.171875 L 26.03125 -0.390625 C 26.03125 -0.128906 25.898438 0 25.640625 0 C 23.335938 0 21.21875 -0.890625 19.28125 -2.671875 C 17.71875 -0.890625 15.429688 0 12.421875 0 L 0 0 C -0.257812 0 -0.390625 -0.128906 -0.390625 -0.390625 L -0.390625 -3.171875 C -0.390625 -3.410156 -0.257812 -3.53125 0 -3.53125 L 12.15625 -3.53125 C 13.957031 -3.53125 15.375 -3.957031 16.40625 -4.8125 C 17.4375 -5.675781 17.953125 -6.878906 17.953125 -8.421875 C 17.953125 -9.960938 17.4375 -11.1875 16.40625 -12.09375 C 15.375 -13 13.96875 -13.453125 12.1875 -13.453125 L 2.75 -13.453125 L 0.9375 -16.625 L 12.65625 -30.5 L 15.875 -28.8125 L 4.859375 -16.578125 L 11.84375 -16.578125 C 14.71875 -16.578125 17.007812 -15.835938 18.71875 -14.359375 C 20.425781 -12.890625 21.28125 -10.898438 21.28125 -8.390625 C 21.28125 -7.128906 21.113281 -6.046875 20.78125 -5.140625 C 22.289062 -4.066406 23.910156 -3.53125 25.640625 -3.53125 Z M 25.640625 -3.53125 "/></g></g></g><g fill="#05649c" fill-opacity="1"><g transform="translate(238.934282, 63.076618)"><g><path d="M 22.109375 -3.53125 C 22.367188 -3.53125 22.5 -3.410156 22.5 -3.171875 L 22.5 -0.390625 C 22.5 -0.128906 22.367188 0 22.109375 0 L 12.625 0 C 10.039062 0 7.867188 -0.640625 6.109375 -1.921875 C 4.078125 -0.640625 2.039062 0 0 0 C -0.257812 0 -0.390625 -0.128906 -0.390625 -0.390625 L -0.390625 -3.171875 C -0.390625 -3.410156 -0.257812 -3.53125 0 -3.53125 C 1.351562 -3.53125 2.644531 -3.816406 3.875 -4.390625 C 2.9375 -5.929688 2.46875 -7.773438 2.46875 -9.921875 C 2.46875 -12.535156 3.300781 -14.703125 4.96875 -16.421875 C 6.644531 -18.148438 8.78125 -19.015625 11.375 -19.015625 C 13.800781 -19.015625 15.875 -18.144531 17.59375 -16.40625 C 19.320312 -14.664062 20.1875 -12.617188 20.1875 -10.265625 C 20.1875 -8.234375 19.726562 -5.988281 18.8125 -3.53125 Z M 12.34375 -3.53125 L 15.609375 -3.53125 C 16.515625 -6.09375 16.96875 -8.15625 16.96875 -9.71875 C 16.96875 -11.3125 16.453125 -12.707031 15.421875 -13.90625 C 14.390625 -15.113281 13.101562 -15.71875 11.5625 -15.71875 C 9.8125 -15.71875 8.410156 -15.175781 7.359375 -14.09375 C 6.316406 -13.007812 5.796875 -11.578125 5.796875 -9.796875 C 5.796875 -7.921875 6.382812 -6.40625 7.5625 -5.25 C 8.738281 -4.101562 10.332031 -3.53125 12.34375 -3.53125 Z M 12.34375 -3.53125 "/></g></g></g><g fill="#05649c" fill-opacity="1"><g transform="translate(261.046619, 63.076618)"><g><path d="M 0 0 C -0.257812 0 -0.390625 -0.128906 -0.390625 -0.390625 L -0.390625 -3.171875 C -0.390625 -3.410156 -0.242188 -3.53125 0.046875 -3.53125 C 3.304688 -3.53125 4.9375 -5.226562 4.9375 -8.625 L 4.984375 -28.109375 L 8.265625 -28.625 L 8.265625 -7.84375 C 8.265625 -2.613281 5.507812 0 0 0 Z M 0 0 "/></g></g></g><g fill="#05649c" fill-opacity="1"><g transform="translate(272.690879, 63.076618)"><g><path d="M 3.40625 0 L 3.40625 -28.109375 L 6.75 -28.625 L 6.75 0 Z M 3.40625 0 "/></g></g></g><g fill="#05649c" fill-opacity="1"><g transform="translate(282.649269, 63.076618)"><g/></g></g><g fill="#05649c" fill-opacity="1"><g transform="translate(292.058788, 63.076618)"><g><path d="M 34.109375 -3.53125 C 34.367188 -3.53125 34.5 -3.410156 34.5 -3.171875 L 34.5 -0.390625 C 34.5 -0.128906 34.367188 0 34.109375 0 C 31.890625 0 29.8125 -0.847656 27.875 -2.546875 C 26.539062 -0.929688 24.4375 -0.0820312 21.5625 0 L 11.296875 0 C 8.160156 0 5.773438 -0.726562 4.140625 -2.1875 C 2.503906 -3.65625 1.6875 -5.828125 1.6875 -8.703125 C 1.6875 -10.867188 2.078125 -13.71875 2.859375 -17.25 L 5.765625 -16.859375 C 5.140625 -13.640625 4.828125 -11.222656 4.828125 -9.609375 C 4.828125 -5.554688 7.242188 -3.53125 12.078125 -3.53125 L 21.125 -3.53125 C 24.414062 -3.53125 26.0625 -5.160156 26.0625 -8.421875 L 26.0625 -14.78125 L 29.40625 -15.296875 L 29.40625 -7.53125 C 29.40625 -6.613281 29.3125 -5.828125 29.125 -5.171875 C 30.75 -4.078125 32.410156 -3.53125 34.109375 -3.53125 Z M 13.765625 5.921875 L 16.578125 3.0625 L 19.515625 5.921875 L 16.65625 8.75 Z M 13.765625 5.921875 "/></g></g></g><g fill="#05649c" fill-opacity="1"><g transform="translate(326.168263, 63.076618)"><g><path d="M 7.21875 -20.9375 L 4.34375 -18.109375 L 1.484375 -20.9375 L 4.34375 -23.75 Z M 13.453125 -20.9375 L 10.578125 -18.109375 L 7.6875 -20.9375 L 10.578125 -23.75 Z M 14.734375 -3.53125 C 14.992188 -3.53125 15.125 -3.410156 15.125 -3.171875 L 15.125 -0.390625 C 15.125 -0.128906 14.992188 0 14.734375 0 C 12.304688 0 10.0625 -0.953125 8 -2.859375 C 6.582031 -0.953125 3.914062 0 0 0 C -0.257812 0 -0.390625 -0.128906 -0.390625 -0.390625 L -0.359375 -3.171875 C -0.359375 -3.410156 -0.222656 -3.53125 0.046875 -3.53125 C 2.128906 -3.53125 3.644531 -3.914062 4.59375 -4.6875 C 5.550781 -5.457031 6.03125 -6.703125 6.03125 -8.421875 L 6.03125 -14.78125 L 9.328125 -15.296875 L 9.328125 -7.53125 C 9.328125 -6.875 9.265625 -6.191406 9.140625 -5.484375 C 10.890625 -4.179688 12.753906 -3.53125 14.734375 -3.53125 Z M 14.734375 -3.53125 "/></g></g></g><g fill="#05649c" fill-opacity="1"><g transform="translate(340.909829, 63.076618)"><g><path d="M 25.640625 -3.53125 C 25.898438 -3.53125 26.03125 -3.410156 26.03125 -3.171875 L 26.03125 -0.390625 C 26.03125 -0.128906 25.898438 0 25.640625 0 C 23.335938 0 21.21875 -0.890625 19.28125 -2.671875 C 17.71875 -0.890625 15.429688 0 12.421875 0 L 0 0 C -0.257812 0 -0.390625 -0.128906 -0.390625 -0.390625 L -0.390625 -3.171875 C -0.390625 -3.410156 -0.257812 -3.53125 0 -3.53125 L 12.15625 -3.53125 C 13.957031 -3.53125 15.375 -3.957031 16.40625 -4.8125 C 17.4375 -5.675781 17.953125 -6.878906 17.953125 -8.421875 C 17.953125 -9.960938 17.4375 -11.1875 16.40625 -12.09375 C 15.375 -13 13.96875 -13.453125 12.1875 -13.453125 L 2.75 -13.453125 L 0.9375 -16.625 L 12.65625 -30.5 L 15.875 -28.8125 L 4.859375 -16.578125 L 11.84375 -16.578125 C 14.71875 -16.578125 17.007812 -15.835938 18.71875 -14.359375 C 20.425781 -12.890625 21.28125 -10.898438 21.28125 -8.390625 C 21.28125 -7.128906 21.113281 -6.046875 20.78125 -5.140625 C 22.289062 -4.066406 23.910156 -3.53125 25.640625 -3.53125 Z M 25.640625 -3.53125 "/></g></g></g><g fill="#05649c" fill-opacity="1"><g transform="translate(366.550718, 63.076618)"><g><path d="M 10.703125 -19.015625 C 13.210938 -19.015625 15.316406 -18.15625 17.015625 -16.4375 C 18.710938 -14.726562 19.5625 -12.59375 19.5625 -10.03125 C 19.5625 -6.894531 18.585938 -4.4375 16.640625 -2.65625 C 14.691406 -0.882812 12.003906 0 8.578125 0 L 0 0 C -0.257812 0 -0.390625 -0.128906 -0.390625 -0.390625 L -0.390625 -3.171875 C -0.390625 -3.410156 -0.257812 -3.53125 0 -3.53125 L 3.375 -3.53125 C 2.195312 -5.957031 1.609375 -8.070312 1.609375 -9.875 C 1.609375 -12.519531 2.460938 -14.703125 4.171875 -16.421875 C 5.890625 -18.148438 8.066406 -19.015625 10.703125 -19.015625 Z M 8.859375 -3.53125 C 11.109375 -3.53125 12.898438 -4.09375 14.234375 -5.21875 C 15.566406 -6.34375 16.234375 -7.910156 16.234375 -9.921875 C 16.234375 -11.585938 15.6875 -12.960938 14.59375 -14.046875 C 13.507812 -15.140625 12.144531 -15.6875 10.5 -15.6875 C 8.9375 -15.6875 7.601562 -15.101562 6.5 -13.9375 C 5.40625 -12.769531 4.859375 -11.40625 4.859375 -9.84375 C 4.859375 -7.957031 5.515625 -5.851562 6.828125 -3.53125 Z M 8.859375 -3.53125 "/></g></g></g><g fill="#333333" fill-opacity="1"><g transform="translate(51.055436, 118.516318)"><g><path d="M 8.9375 -22.375 L 6.421875 -19.890625 L 3.90625 -22.375 L 6.421875 -24.859375 Z M 14.4375 -22.375 L 11.90625 -19.890625 L 9.359375 -22.375 L 11.90625 -24.859375 Z M 20.125 -3.109375 C 20.363281 -3.109375 20.484375 -3.003906 20.484375 -2.796875 L 20.484375 -0.34375 C 20.484375 -0.113281 20.363281 0 20.125 0 C 18.007812 0 16.445312 -0.492188 15.4375 -1.484375 C 13.113281 -0.285156 11.03125 0.3125 9.1875 0.3125 C 6.863281 0.3125 4.957031 -0.476562 3.46875 -2.0625 C 1.988281 -3.65625 1.25 -5.628906 1.25 -7.984375 C 1.25 -10.367188 1.992188 -12.398438 3.484375 -14.078125 C 4.984375 -15.765625 6.882812 -16.609375 9.1875 -16.609375 C 10.59375 -16.609375 12.132812 -16.285156 13.8125 -15.640625 L 13.8125 -17.78125 L 16.71875 -18.265625 L 16.75 -6.96875 C 16.75 -5.59375 17.015625 -4.601562 17.546875 -4 C 18.078125 -3.40625 18.9375 -3.109375 20.125 -3.109375 Z M 9.1875 -2.65625 C 10.726562 -2.632812 12.382812 -3.023438 14.15625 -3.828125 C 13.925781 -4.609375 13.8125 -5.566406 13.8125 -6.703125 L 13.8125 -12.703125 C 11.945312 -13.328125 10.4375 -13.640625 9.28125 -13.640625 C 7.738281 -13.640625 6.476562 -13.097656 5.5 -12.015625 C 4.53125 -10.929688 4.046875 -9.597656 4.046875 -8.015625 C 4.046875 -6.492188 4.519531 -5.222656 5.46875 -4.203125 C 6.425781 -3.191406 7.664062 -2.675781 9.1875 -2.65625 Z M 9.1875 -2.65625 "/></g></g></g><g fill="#333333" fill-opacity="1"><g transform="translate(71.185497, 118.516318)"><g><path d="M 12.984375 -3.109375 C 13.210938 -3.109375 13.328125 -3.003906 13.328125 -2.796875 L 13.328125 -0.34375 C 13.328125 -0.113281 13.210938 0 12.984375 0 C 10.835938 0 8.859375 -0.835938 7.046875 -2.515625 C 5.804688 -0.835938 3.457031 0 0 0 C -0.226562 0 -0.34375 -0.113281 -0.34375 -0.34375 L -0.3125 -2.796875 C -0.3125 -3.003906 -0.195312 -3.109375 0.03125 -3.109375 C 1.875 -3.109375 3.210938 -3.445312 4.046875 -4.125 C 4.890625 -4.800781 5.3125 -5.898438 5.3125 -7.421875 L 5.3125 -13.015625 L 8.21875 -13.46875 L 8.21875 -6.625 C 8.21875 -6.050781 8.160156 -5.453125 8.046875 -4.828125 C 9.585938 -3.679688 11.234375 -3.109375 12.984375 -3.109375 Z M 1.140625 5.21875 L 3.65625 2.734375 L 6.1875 5.21875 L 3.65625 7.703125 Z M 6.59375 5.21875 L 9.15625 2.734375 L 11.671875 5.21875 L 9.15625 7.703125 Z M 6.59375 5.21875 "/></g></g></g><g fill="#333333" fill-opacity="1"><g transform="translate(84.168176, 118.516318)"><g><path d="M 6.703125 -3.109375 C 6.929688 -3.109375 7.046875 -3.003906 7.046875 -2.796875 L 7.046875 -0.34375 C 7.046875 -0.113281 6.929688 0 6.703125 0 L 0 0 C -0.226562 0 -0.34375 -0.113281 -0.34375 -0.34375 L -0.34375 -2.796875 C -0.34375 -3.003906 -0.226562 -3.109375 0 -3.109375 Z M 6.703125 -3.109375 "/></g></g></g><g fill="#333333" fill-opacity="1"><g transform="translate(90.866683, 118.516318)"><g><path d="M 6.703125 -3.109375 C 6.929688 -3.109375 7.046875 -3.003906 7.046875 -2.796875 L 7.046875 -0.34375 C 7.046875 -0.113281 6.929688 0 6.703125 0 L 0 0 C -0.226562 0 -0.34375 -0.113281 -0.34375 -0.34375 L -0.34375 -2.796875 C -0.34375 -3.003906 -0.226562 -3.109375 0 -3.109375 Z M 6.703125 -3.109375 "/></g></g></g><g fill="#333333" fill-opacity="1"><g transform="translate(97.56519, 118.516318)"><g><path d="M 6.703125 -3.109375 C 6.929688 -3.109375 7.046875 -3.003906 7.046875 -2.796875 L 7.046875 -0.34375 C 7.046875 -0.113281 6.929688 0 6.703125 0 L 0 0 C -0.226562 0 -0.34375 -0.113281 -0.34375 -0.34375 L -0.34375 -2.796875 C -0.34375 -3.003906 -0.226562 -3.109375 0 -3.109375 Z M 6.703125 -3.109375 "/></g></g></g><g fill="#333333" fill-opacity="1"><g transform="translate(104.263697, 118.516318)"><g><path d="M 6.703125 -3.109375 C 6.929688 -3.109375 7.046875 -3.003906 7.046875 -2.796875 L 7.046875 -0.34375 C 7.046875 -0.113281 6.929688 0 6.703125 0 L 0 0 C -0.226562 0 -0.34375 -0.113281 -0.34375 -0.34375 L -0.34375 -2.796875 C -0.34375 -3.003906 -0.226562 -3.109375 0 -3.109375 Z M 6.703125 -3.109375 "/></g></g></g><g fill="#333333" fill-opacity="1"><g transform="translate(110.962204, 118.516318)"><g><path d="M 25.59375 -16.71875 L 28.484375 -17.203125 L 28.484375 -6.671875 C 28.484375 -4.546875 27.90625 -2.90625 26.75 -1.75 C 25.601562 -0.601562 23.90625 -0.03125 21.65625 -0.03125 C 19.8125 -0.03125 17.890625 -0.640625 15.890625 -1.859375 C 14.660156 -0.640625 12.910156 -0.03125 10.640625 -0.03125 C 8.984375 -0.03125 7.265625 -0.628906 5.484375 -1.828125 C 4.222656 -0.609375 2.394531 0 0 0 C -0.226562 0 -0.34375 -0.113281 -0.34375 -0.34375 L -0.34375 -2.796875 C -0.34375 -3.003906 -0.226562 -3.109375 0 -3.109375 C 2.894531 -3.109375 4.34375 -4.546875 4.34375 -7.421875 L 4.3125 -13.015625 L 7.25 -13.46875 L 7.25 -6.625 C 7.25 -5.664062 7.113281 -4.78125 6.84375 -3.96875 C 8.175781 -3.414062 9.367188 -3.140625 10.421875 -3.140625 C 13.328125 -3.140625 14.78125 -4.578125 14.78125 -7.453125 L 14.75 -13.046875 L 17.6875 -13.5 L 17.6875 -6.671875 C 17.6875 -5.648438 17.535156 -4.757812 17.234375 -4 C 18.660156 -3.425781 19.992188 -3.140625 21.234375 -3.140625 C 22.640625 -3.140625 23.71875 -3.5 24.46875 -4.21875 C 25.21875 -4.945312 25.59375 -6.023438 25.59375 -7.453125 Z M 25.59375 -16.71875 "/></g></g></g><g fill="#333333" fill-opacity="1"><g transform="translate(141.485319, 118.516318)"><g><path d="M 20.546875 -3.109375 C 20.773438 -3.109375 20.890625 -3.003906 20.890625 -2.796875 L 20.890625 -0.34375 C 20.890625 -0.113281 20.773438 0 20.546875 0 C 18.515625 0 16.671875 -0.769531 15.015625 -2.3125 C 13.753906 -0.769531 11.753906 0 9.015625 0 L 0.9375 0 L 0.34375 -3.109375 L 9.046875 -3.109375 C 10.453125 -3.109375 11.523438 -3.453125 12.265625 -4.140625 C 13.015625 -4.835938 13.390625 -5.816406 13.390625 -7.078125 L 13.359375 -9.078125 C 13.335938 -10.484375 12.835938 -11.625 11.859375 -12.5 C 10.878906 -13.375 9.628906 -13.8125 8.109375 -13.8125 L 6.078125 -13.8125 L 6.078125 -16.84375 L 8.734375 -16.84375 C 10.941406 -16.84375 12.75 -16.164062 14.15625 -14.8125 C 15.5625 -13.457031 16.273438 -11.675781 16.296875 -9.46875 L 16.328125 -6.625 C 16.328125 -6.007812 16.25 -5.34375 16.09375 -4.625 C 17.519531 -3.613281 19.003906 -3.109375 20.546875 -3.109375 Z M 20.546875 -3.109375 "/></g></g></g><g fill="#333333" fill-opacity="1"><g transform="translate(162.029714, 118.516318)"><g><path d="M 8.328125 -18.546875 L 5.796875 -16.015625 L 3.25 -18.546875 L 5.734375 -21.03125 Z M 11.4375 -3.109375 C 11.664062 -3.109375 11.78125 -3.003906 11.78125 -2.796875 L 11.78125 -0.34375 C 11.78125 -0.113281 11.664062 0 11.4375 0 C 9.476562 0 7.644531 -0.75 5.9375 -2.25 C 4.71875 -0.75 2.738281 0 0 0 C -0.226562 0 -0.34375 -0.113281 -0.34375 -0.34375 L -0.3125 -2.796875 C -0.3125 -3.003906 -0.195312 -3.109375 0.03125 -3.109375 C 2.9375 -3.109375 4.390625 -4.546875 4.390625 -7.421875 L 4.34375 -13.015625 L 7.28125 -13.46875 L 7.28125 -6.625 C 7.28125 -5.820312 7.203125 -5.132812 7.046875 -4.5625 C 8.472656 -3.59375 9.9375 -3.109375 11.4375 -3.109375 Z M 11.4375 -3.109375 "/></g></g></g><g fill="#333333" fill-opacity="1"><g transform="translate(173.458611, 118.516318)"><g><path d="M 19.03125 -3.109375 C 19.257812 -3.109375 19.375 -3.003906 19.375 -2.796875 L 19.375 -0.34375 C 19.375 -0.113281 19.257812 0 19.03125 0 L 17.640625 0 L 17.640625 0.515625 C 17.640625 2.796875 16.988281 4.546875 15.6875 5.765625 C 14.394531 6.984375 12.503906 7.59375 10.015625 7.59375 C 7.898438 7.59375 6.113281 6.921875 4.65625 5.578125 C 3.207031 4.234375 2.253906 2.363281 1.796875 -0.03125 C 1.378906 -0.0078125 0.742188 0 -0.109375 0 C -0.335938 0 -0.453125 -0.113281 -0.453125 -0.34375 L -0.453125 -2.796875 C -0.453125 -3.003906 -0.335938 -3.109375 -0.109375 -3.109375 L 1.484375 -3.109375 L 1.484375 -3.3125 C 1.484375 -9.226562 4.070312 -14.789062 9.25 -20 L 11.90625 -20 C 13.539062 -18.21875 14.820312 -16.382812 15.75 -14.5 C 16.6875 -12.613281 17.15625 -10.898438 17.15625 -9.359375 C 17.15625 -6.753906 16.078125 -4.671875 13.921875 -3.109375 Z M 4.3125 -3.765625 L 4.3125 -3.25 C 7.769531 -3.457031 10.289062 -4.023438 11.875 -4.953125 C 13.46875 -5.890625 14.265625 -7.332031 14.265625 -9.28125 C 14.265625 -11.75 12.953125 -14.515625 10.328125 -17.578125 C 8.503906 -15.617188 7.046875 -13.394531 5.953125 -10.90625 C 4.859375 -8.425781 4.3125 -6.046875 4.3125 -3.765625 Z M 10.078125 4.703125 C 13.421875 4.703125 15.09375 3.304688 15.09375 0.515625 L 15.09375 0 L 10.125 0 L 9.734375 -1.171875 C 8.191406 -0.734375 6.5 -0.421875 4.65625 -0.234375 C 5.4375 3.054688 7.242188 4.703125 10.078125 4.703125 Z M 10.078125 4.703125 "/></g></g></g><g fill="#333333" fill-opacity="1"><g transform="translate(192.345642, 118.516318)"><g><path d="M 0 0 C -0.226562 0 -0.34375 -0.113281 -0.34375 -0.34375 L -0.34375 -2.796875 C -0.34375 -3.003906 -0.21875 -3.109375 0.03125 -3.109375 C 2.90625 -3.109375 4.34375 -4.601562 4.34375 -7.59375 L 4.390625 -24.765625 L 7.28125 -25.203125 L 7.28125 -6.90625 C 7.28125 -2.300781 4.851562 0 0 0 Z M 0 0 "/></g></g></g><g fill="#333333" fill-opacity="1"><g transform="translate(202.600577, 118.516318)"><g><path d="M 3 0 L 3 -24.765625 L 5.9375 -25.203125 L 5.9375 0 Z M 3 0 "/></g></g></g><g fill="#333333" fill-opacity="1"><g transform="translate(211.370794, 118.516318)"><g/></g></g><g fill="#333333" fill-opacity="1"><g transform="translate(219.657611, 118.516318)"><g><path d="M 13.78125 -18.34375 L 11.25 -15.84375 L 8.734375 -18.34375 L 11.25 -20.828125 Z M 19.265625 -18.34375 L 16.75 -15.84375 L 14.1875 -18.34375 L 16.75 -20.828125 Z M 23.484375 -16.671875 L 26.421875 -17.15625 L 26.421875 -6.625 C 26.421875 -4.507812 25.800781 -2.875 24.5625 -1.71875 C 23.332031 -0.570312 21.519531 0 19.125 0 L 9.90625 0 C 7.164062 0 5.078125 -0.628906 3.640625 -1.890625 C 2.203125 -3.160156 1.484375 -5.03125 1.484375 -7.5 C 1.484375 -9.175781 1.722656 -11.140625 2.203125 -13.390625 L 4.796875 -13.046875 C 4.429688 -11.003906 4.25 -9.429688 4.25 -8.328125 C 4.25 -4.847656 6.363281 -3.109375 10.59375 -3.109375 L 19.125 -3.109375 C 22.03125 -3.109375 23.484375 -4.546875 23.484375 -7.421875 Z M 23.484375 -16.671875 "/></g></g></g><g fill="#333333" fill-opacity="1"><g transform="translate(248.350716, 118.516318)"><g><path d="M 3 0 L 3 -24.765625 L 5.9375 -25.203125 L 5.9375 0 Z M 3 0 "/></g></g></g><g fill="#333333" fill-opacity="1"><g transform="translate(257.120933, 118.516318)"><g><path d="M -0.765625 7.421875 L -1.03125 4.90625 C 3.113281 4.90625 5.1875 2.925781 5.1875 -1.03125 L 5.140625 -16.671875 L 8.078125 -17.15625 L 8.078125 -0.9375 C 8.078125 1.945312 7.335938 4.0625 5.859375 5.40625 C 4.390625 6.75 2.179688 7.421875 -0.765625 7.421875 Z M -0.765625 7.421875 "/></g></g></g><g fill="#333333" fill-opacity="1"><g transform="translate(267.444921, 118.516318)"><g><path d="M 10.25 0 C 5.414062 0 3 -2.300781 3 -6.90625 L 2.96875 -24.765625 L 5.90625 -25.203125 L 5.90625 -7.59375 C 5.90625 -4.601562 7.34375 -3.109375 10.21875 -3.109375 C 10.445312 -3.109375 10.5625 -3.003906 10.5625 -2.796875 L 10.59375 -0.34375 C 10.59375 -0.113281 10.476562 0 10.25 0 Z M 10.25 0 "/></g></g></g><g fill="#333333" fill-opacity="1"><g transform="translate(277.699868, 118.516318)"><g><path d="M 17.8125 -25.203125 L 16.015625 -23.40625 L 14.1875 -25.203125 L 15.984375 -27.03125 Z M 15.640625 -21 L 13.15625 -18.46875 L 10.59375 -21 L 13.125 -23.484375 Z M 18.859375 -18.46875 L 16.296875 -21 L 18.859375 -23.484375 L 21.375 -21 Z M 32.421875 -3.109375 C 32.648438 -3.109375 32.765625 -3.003906 32.765625 -2.796875 L 32.765625 -0.34375 C 32.765625 -0.113281 32.648438 0 32.421875 0 C 30.515625 0 28.734375 -0.703125 27.078125 -2.109375 C 25.898438 -0.722656 24.09375 -0.03125 21.65625 -0.03125 C 19.8125 -0.03125 17.890625 -0.640625 15.890625 -1.859375 C 14.660156 -0.640625 12.910156 -0.03125 10.640625 -0.03125 C 8.984375 -0.03125 7.265625 -0.628906 5.484375 -1.828125 C 4.222656 -0.609375 2.394531 0 0 0 C -0.226562 0 -0.34375 -0.113281 -0.34375 -0.34375 L -0.34375 -2.796875 C -0.34375 -3.003906 -0.226562 -3.109375 0 -3.109375 C 2.894531 -3.109375 4.34375 -4.546875 4.34375 -7.421875 L 4.3125 -13.015625 L 7.25 -13.46875 L 7.25 -6.625 C 7.25 -5.664062 7.113281 -4.78125 6.84375 -3.96875 C 8.175781 -3.414062 9.367188 -3.140625 10.421875 -3.140625 C 13.328125 -3.140625 14.78125 -4.578125 14.78125 -7.453125 L 14.75 -13.046875 L 17.6875 -13.5 L 17.6875 -6.671875 C 17.6875 -5.648438 17.535156 -4.757812 17.234375 -4 C 18.660156 -3.425781 19.992188 -3.140625 21.234375 -3.140625 C 22.640625 -3.140625 23.71875 -3.5 24.46875 -4.21875 C 25.21875 -4.945312 25.59375 -6.023438 25.59375 -7.453125 L 25.59375 -16.71875 L 28.484375 -17.203125 L 28.484375 -6.671875 C 28.484375 -5.910156 28.394531 -5.160156 28.21875 -4.421875 C 29.550781 -3.546875 30.953125 -3.109375 32.421875 -3.109375 Z M 32.421875 -3.109375 "/></g></g></g><g fill="#333333" fill-opacity="1"><g transform="translate(310.122021, 118.516318)"><g><path d="M 6.359375 -18.4375 L 3.828125 -15.953125 L 1.3125 -18.4375 L 3.828125 -20.921875 Z M 11.84375 -18.4375 L 9.328125 -15.953125 L 6.765625 -18.4375 L 9.328125 -20.921875 Z M 12.984375 -3.109375 C 13.210938 -3.109375 13.328125 -3.003906 13.328125 -2.796875 L 13.328125 -0.34375 C 13.328125 -0.113281 13.210938 0 12.984375 0 C 10.835938 0 8.859375 -0.835938 7.046875 -2.515625 C 5.804688 -0.835938 3.457031 0 0 0 C -0.226562 0 -0.34375 -0.113281 -0.34375 -0.34375 L -0.3125 -2.796875 C -0.3125 -3.003906 -0.195312 -3.109375 0.03125 -3.109375 C 1.875 -3.109375 3.210938 -3.445312 4.046875 -4.125 C 4.890625 -4.800781 5.3125 -5.898438 5.3125 -7.421875 L 5.3125 -13.015625 L 8.21875 -13.46875 L 8.21875 -6.625 C 8.21875 -6.050781 8.160156 -5.453125 8.046875 -4.828125 C 9.585938 -3.679688 11.234375 -3.109375 12.984375 -3.109375 Z M 12.984375 -3.109375 "/></g></g></g><g fill="#333333" fill-opacity="1"><g transform="translate(323.104713, 118.516318)"><g><path d="M 25.59375 -16.71875 L 28.484375 -17.203125 L 28.484375 -6.671875 C 28.484375 -4.546875 27.90625 -2.90625 26.75 -1.75 C 25.601562 -0.601562 23.90625 -0.03125 21.65625 -0.03125 C 19.8125 -0.03125 17.890625 -0.640625 15.890625 -1.859375 C 14.660156 -0.640625 12.910156 -0.03125 10.640625 -0.03125 C 8.984375 -0.03125 7.265625 -0.628906 5.484375 -1.828125 C 4.222656 -0.609375 2.394531 0 0 0 C -0.226562 0 -0.34375 -0.113281 -0.34375 -0.34375 L -0.34375 -2.796875 C -0.34375 -3.003906 -0.226562 -3.109375 0 -3.109375 C 2.894531 -3.109375 4.34375 -4.546875 4.34375 -7.421875 L 4.3125 -13.015625 L 7.25 -13.46875 L 7.25 -6.625 C 7.25 -5.664062 7.113281 -4.78125 6.84375 -3.96875 C 8.175781 -3.414062 9.367188 -3.140625 10.421875 -3.140625 C 13.328125 -3.140625 14.78125 -4.578125 14.78125 -7.453125 L 14.75 -13.046875 L 17.6875 -13.5 L 17.6875 -6.671875 C 17.6875 -5.648438 17.535156 -4.757812 17.234375 -4 C 18.660156 -3.425781 19.992188 -3.140625 21.234375 -3.140625 C 22.640625 -3.140625 23.71875 -3.5 24.46875 -4.21875 C 25.21875 -4.945312 25.59375 -6.023438 25.59375 -7.453125 Z M 25.59375 -16.71875 "/></g></g></g><g fill="#333333" fill-opacity="1"><g transform="translate(353.62784, 118.516318)"><g><path d="M 24.234375 -2.796875 L 24.28125 -0.34375 C 24.28125 -0.113281 24.164062 0 23.9375 0 C 21.46875 0 19.613281 -0.597656 18.375 -1.796875 C 17.289062 -1.265625 15.898438 -0.832031 14.203125 -0.5 C 12.515625 -0.164062 11.003906 0 9.671875 0 L 1.140625 0 L 0.59375 -3.109375 L 8.765625 -3.109375 L 5.3125 -19.953125 L 8.21875 -20.6875 L 11.5 -3.171875 C 13.457031 -3.316406 15.3125 -3.628906 17.0625 -4.109375 C 16.800781 -4.984375 16.671875 -5.914062 16.671875 -6.90625 L 16.640625 -24.765625 L 19.578125 -25.203125 L 19.578125 -7.59375 C 19.578125 -4.601562 21.015625 -3.109375 23.890625 -3.109375 C 24.117188 -3.109375 24.234375 -3.003906 24.234375 -2.796875 Z M 24.234375 -2.796875 "/></g></g></g><g fill="#333333" fill-opacity="1"><g transform="translate(377.556041, 118.516318)"><g><path d="M 0 0 C -0.226562 0 -0.34375 -0.113281 -0.34375 -0.34375 L -0.34375 -2.796875 C -0.34375 -3.003906 -0.21875 -3.109375 0.03125 -3.109375 C 2.90625 -3.109375 4.34375 -4.601562 4.34375 -7.59375 L 4.390625 -24.765625 L 7.28125 -25.203125 L 7.28125 -6.90625 C 7.28125 -2.300781 4.851562 0 0 0 Z M 0 0 "/></g></g></g></svg>